<svg xmlns="http://www.w3.org/2000/svg" xmlns:xlink="http://www.w3.org/1999/xlink" width="500" zoomAndPan="magnify" viewBox="0 0 375 374.999991" height="500" preserveAspectRatio="xMidYMid meet" version="1.0"><defs><g/><clipPath id="2810c14a5d"><path d="M 68.097656 7.398438 L 316.347656 7.398438 L 316.347656 139.050781 L 68.097656 139.050781 Z M 68.097656 7.398438 " clip-rule="nonzero"/></clipPath><clipPath id="c2f23d9385"><path d="M 65.308594 7.398438 L 313.558594 7.398438 L 313.558594 139.050781 L 65.308594 139.050781 Z M 65.308594 7.398438 " clip-rule="nonzero"/></clipPath></defs><g clip-path="url(#2810c14a5d)"><path fill="#c43302" d="M 188.511719 7.398438 C 190.871094 9.433594 192.546875 12.199219 194.226562 14.777344 C 196.027344 17.355469 197.703125 20.058594 199.382812 22.695312 C 199.191406 23.546875 198.574219 23.964844 198.503906 24.878906 C 198.558594 25.429688 198.019531 24.753906 198.015625 25.117188 C 197.867188 27.371094 198.570312 29.816406 198.539062 32.375 C 206.902344 31.921875 216.066406 31.480469 226.011719 31.53125 C 232.542969 31.605469 240.292969 31.695312 247.128906 31.589844 C 249.203125 31.554688 252.378906 31.347656 254.023438 31.851562 C 254.082031 31.914062 265.703125 45.636719 266.726562 46.746094 C 267.210938 47.359375 268.171875 48.40625 268.042969 49.199219 C 267.84375 50.351562 265.832031 50.390625 264.792969 50.621094 L 265.011719 74.089844 C 265.25 74.578125 265.980469 74.648438 266.464844 74.957031 C 266.167969 69.164062 267.199219 63.875 268.597656 59.503906 C 271.65625 58.5625 272.417969 61.4375 272.941406 63.695312 C 273.808594 62.488281 274.988281 60.855469 276.527344 59.351562 C 277.949219 57.902344 280.234375 55.859375 282.601562 56.859375 C 285.640625 58.054688 285.871094 64.511719 284.125 67.96875 C 286.992188 67.878906 291.125 69.328125 288.765625 72.894531 C 290.832031 73.835938 293.878906 73.867188 294.339844 76.191406 C 294.800781 78.816406 292.339844 80.25 291.648438 82.3125 C 295.730469 82.789062 295.171875 88.996094 293.3125 91.535156 C 299.585938 97.820312 307.871094 104.195312 314.453125 110.546875 C 315.238281 111.289062 316.265625 112.152344 316.371094 113.371094 C 282.3125 97.867188 252.621094 58.164062 203.792969 63.941406 C 191.628906 65.449219 180.769531 70.566406 172.597656 75.410156 C 165.039062 80.015625 157.597656 84.984375 151.003906 90.761719 C 162.824219 97.359375 170.886719 102.203125 180.886719 108.410156 C 190.339844 114.308594 199.835938 121.546875 209.414062 127.320312 C 211.535156 128.566406 213.65625 129.808594 215.589844 131.355469 C 216.199219 131.785156 217.046875 132.164062 217.222656 133.019531 C 213.996094 132.191406 211.085938 130.390625 208.117188 128.832031 C 187.429688 118.113281 139.371094 88.375 120.492188 90.230469 C 112.734375 90.933594 104.835938 93.15625 98.703125 95.585938 C 95.269531 96.890625 92.449219 98.378906 89.683594 100.234375 C 82.542969 105.210938 75.519531 111.410156 70.007812 118.109375 C 69.570312 118.65625 69.015625 119.5625 68.101562 119.371094 C 68.054688 118.027344 69.164062 116.945312 69.910156 116.039062 C 73.804688 111.328125 78.25 107.054688 82.996094 102.964844 C 84.84375 101.402344 86.515625 99.46875 88.363281 97.964844 C 95.882812 91.652344 104.730469 86.269531 116.289062 84.328125 C 116.171875 83.722656 115.261719 83.101562 114.96875 82.367188 C 114.078125 80.039062 114 76.324219 114.039062 72.847656 C 114.117188 66.085938 115.226562 59.882812 115.304688 53.058594 C 115.339844 49.890625 115.386719 45.925781 116.328125 43.5625 C 116.765625 42.589844 117.882812 40.71875 118.800781 40.605469 C 121.613281 40.269531 121.539062 46.914062 121.691406 49.351562 C 122.21875 56.855469 122.566406 63.5625 123.03125 71.125 C 123.285156 75.574219 124.554688 81.683594 121.542969 83.78125 C 123.132812 83.617188 124.902344 83.578125 126.730469 83.660156 C 123.042969 75.328125 124.460938 58.28125 125.148438 46.101562 C 125.371094 42.691406 125.199219 36.414062 127.703125 36.015625 C 131.007812 35.503906 131.601562 42.152344 131.9375 44.714844 C 133.292969 54.179688 133.484375 64.480469 133.976562 74.785156 C 134.132812 76.855469 134.472656 79.238281 134.027344 80.875 C 133.828125 81.851562 133.214844 82.210938 132.839844 82.996094 C 133.023438 83.367188 133.140625 83.730469 133.195312 84.21875 C 138.1875 85.191406 142.5625 86.824219 146.757812 88.519531 C 147.609375 88.347656 147.925781 87.617188 148.660156 87.320312 C 148.117188 86.707031 148.066406 85.792969 147.710938 84.933594 C 147.472656 84.199219 146.871094 83.707031 146.695312 82.910156 C 146.351562 81.203125 146.3125 79.128906 146.152344 77.179688 C 145.992188 75.226562 145.769531 73.210938 145.792969 71.261719 C 145.84375 66.9375 145.960938 61.878906 146.191406 57.738281 C 146.347656 54.875 146.191406 46.953125 148.699219 46.492188 C 151.882812 45.859375 151.996094 51.769531 152.273438 54.210938 C 152.660156 57.628906 152.875 60.554688 153.328125 63.425781 C 154.234375 69.652344 155.753906 75.398438 155.558594 81.550781 C 156.789062 81.074219 158.082031 79.75 159.375 78.910156 C 158.714844 77.992188 158.78125 77.320312 158.679688 75.675781 C 158.484375 71.652344 157.921875 67.378906 157.972656 62.808594 C 158.023438 58.542969 157.890625 54.03125 157.945312 49.402344 C 158.019531 42.820312 158.035156 35.996094 158.902344 29.609375 C 159.171875 27.234375 159.507812 24.738281 161.761719 25.007812 C 164.628906 25.285156 165.40625 31.996094 165.925781 34.804688 C 166.613281 38.589844 167.109375 43.105469 167.554688 47.074219 C 168.488281 55.980469 169.679688 63.671875 169.640625 72.816406 C 171.84375 72.046875 173.9375 70.242188 176.207031 69.234375 C 176.214844 63.445312 175.488281 57.585938 175.375 51.550781 C 175.261719 50.574219 173.546875 51.285156 173.128906 50.367188 C 172.472656 49.082031 174.628906 47.335938 175.371094 46.554688 C 175.804688 46.070312 176.296875 45.527344 176.855469 44.925781 C 177.226562 44.441406 178.085938 43.722656 178.214844 43.234375 C 178.46875 42.324219 178.121094 40.675781 178.140625 39.332031 C 178.109375 36.46875 178.015625 33.90625 178.050781 31.105469 C 178.0625 29.828125 177.652344 28.480469 178.394531 27.453125 C 179.5625 26.917969 179.535156 29.292969 179.582031 30.511719 C 179.847656 33.929688 179.984375 38.074219 180.195312 41.003906 C 181.484375 40.222656 182.476562 38.894531 183.648438 37.628906 C 184.144531 37.085938 184.824219 36.421875 185.4375 35.882812 C 186.738281 34.679688 187.597656 33.777344 190.101562 33.863281 C 189.769531 31.054688 189.800781 28.007812 189.839844 24.902344 C 188.921875 24.648438 187.519531 24.816406 186.421875 24.742188 C 186.757812 27.425781 187.304688 32.980469 183.660156 31.65625 C 181.832031 31.027344 182.492188 26.890625 182.148438 24.9375 C 180.503906 24.675781 178.480469 25.441406 177.386719 24.761719 C 177.703125 23.96875 178.199219 23.308594 178.632812 22.582031 C 181.5 17.675781 184.425781 12.46875 187.351562 7.507812 C 187.960938 7.695312 188.019531 7.695312 188.511719 7.398438 Z M 179.230469 23.804688 C 180.394531 23.636719 181.488281 23.894531 182.585938 23.78125 C 183.078125 23.726562 183.570312 23.371094 184.054688 23.375 C 184.421875 23.378906 184.847656 23.6875 185.273438 23.691406 C 186.738281 23.832031 188.269531 23.484375 189.976562 23.5625 C 189.300781 18.679688 188.253906 14.160156 187.207031 9.699219 C 184.769531 14.546875 181.789062 18.960938 179.230469 23.804688 Z M 242.777344 38.488281 C 240.988281 40.171875 239.5625 42.109375 237.953125 43.855469 C 237.152344 44.703125 236.101562 45.847656 234.882812 45.773438 C 234.652344 44.550781 235.882812 43.46875 236.628906 42.5625 C 238.605469 40.085938 240.710938 37.671875 242.628906 35.378906 C 243.0625 34.894531 243.679688 34.355469 243.621094 34.046875 C 241.546875 34.027344 239.472656 34 237.457031 33.980469 C 236.023438 36.765625 233.929688 38.203125 231.644531 40.738281 C 230.902344 41.582031 230.097656 42.730469 229.292969 43.636719 C 228.734375 44.359375 227.308594 46.175781 226.457031 45.980469 C 224.996094 45.660156 226.851562 43.304688 227.226562 42.757812 C 229.519531 39.679688 231.992188 36.902344 234.222656 34.125 C 232.148438 34.101562 230.136719 34.078125 228.300781 34.300781 C 226.621094 36.839844 224.894531 38.589844 222.664062 41.183594 C 221.988281 41.96875 221 42.992188 220.257812 43.835938 C 219.640625 44.5625 218.394531 46.496094 217.421875 46.183594 C 216.390625 45.863281 217.261719 44.410156 217.570312 43.929688 C 219.746094 40.417969 222.957031 37.289062 224.941406 34.261719 C 223.292969 34.425781 221.28125 34.28125 219.449219 34.261719 C 218.640625 35.894531 217.46875 36.675781 216.234375 38.003906 C 214.753906 39.570312 213.386719 41.503906 211.964844 43.253906 C 211.40625 43.859375 210.164062 45.671875 209.375 45.480469 C 208.339844 45.226562 209.273438 43.773438 209.519531 43.410156 C 211.757812 40.203125 214.476562 37.066406 216.523438 34.347656 C 214.933594 34.390625 213.347656 34.433594 211.699219 34.476562 C 209.585938 37.621094 206.628906 40.085938 204.335938 43.046875 C 203.59375 43.953125 202.96875 45.34375 201.683594 45.695312 C 200.65625 44.832031 201.953125 43.503906 202.449219 42.71875 C 204.066406 40.117188 206.164062 38.191406 207.835938 36.015625 C 208.144531 35.652344 208.699219 35.171875 208.582031 34.683594 C 206.8125 34.664062 205.226562 34.828125 203.574219 34.933594 C 202.886719 36.628906 201.777344 37.53125 200.601562 38.859375 C 199.054688 40.609375 197.570312 42.238281 196.027344 43.863281 C 195.285156 44.648438 194.476562 46.164062 193.203125 45.539062 C 193.089844 44.378906 194.078125 43.539062 194.757812 42.753906 C 196.492188 40.582031 198.226562 38.464844 199.835938 36.351562 C 200.085938 35.988281 200.761719 35.632812 200.585938 35.082031 C 199.175781 35.246094 197.710938 35.292969 196.1875 35.273438 C 193.960938 38.050781 191.308594 40.398438 189.019531 42.992188 C 188.277344 43.835938 187.53125 44.988281 186.308594 45.214844 C 185.710938 44.234375 186.757812 43.210938 187.257812 42.546875 C 189.054688 40.007812 191.460938 37.78125 193.195312 35.421875 C 191.242188 35.519531 189.039062 35.863281 187.332031 35.902344 C 184.226562 40.378906 180.339844 44.050781 177.117188 48.339844 C 196.832031 48.140625 218.625 47.660156 238.628906 48.921875 C 242.214844 44.941406 245.441406 40.285156 248.664062 36.058594 C 249.097656 35.511719 249.773438 34.851562 249.84375 34.121094 C 249.175781 33.871094 248.078125 34.039062 247.222656 33.96875 C 246.042969 35.902344 244.378906 37.042969 242.777344 38.488281 Z M 117.796875 80.324219 C 119.339844 78.761719 118.765625 75.890625 118.609375 73.570312 C 118.148438 65.949219 118.421875 57.726562 118.082031 50.347656 C 117.246094 59.660156 116.253906 71.472656 117.796875 80.324219 Z M 198.3125 68.207031 C 198.917969 68.703125 197.875 68.992188 197.816406 69.054688 C 191.976562 72.644531 186.070312 76.65625 180.890625 81.046875 C 179.046875 82.609375 165.894531 95.808594 164.675781 95.609375 C 158.707031 94.6875 174.40625 82.558594 174.65625 82.378906 C 179.269531 79.019531 184.558594 75.605469 189.714844 72.617188 C 192.542969 71.003906 195.433594 69.269531 198.3125 68.207031 Z M 295.738281 71.515625 C 296.839844 71.160156 297.257812 71.714844 297.3125 72.386719 C 297.40625 75.066406 293.226562 72.398438 295.738281 71.515625 Z M 222.316406 71.648438 C 222.367188 72.5625 221.386719 73.101562 220.828125 73.703125 C 216.753906 78.109375 212.609375 82.933594 208.828125 87.886719 C 204.429688 93.628906 201.421875 100.296875 197.566406 106.710938 C 198.632812 109.285156 191.171875 110.839844 192.078125 106.464844 C 192.269531 105.371094 193.019531 103.917969 193.207031 103.492188 C 198.46875 91.972656 208.082031 83.675781 216.539062 75.421875 C 217.957031 74.039062 219.6875 72.351562 221.21875 71.636719 C 221.34375 71.515625 222.019531 71.097656 222.316406 71.648438 Z M 211.515625 71.828125 C 210.523438 72.914062 209.292969 73.753906 208.125 74.714844 C 201.46875 80.066406 195.054688 86.332031 189.726562 93.214844 C 188.796875 94.363281 188.050781 95.632812 187.0625 96.71875 C 186.507812 97.320312 185.707031 97.742188 184.84375 98.523438 C 184.289062 99.0625 183.664062 100.335938 182.746094 100.386719 C 181.832031 100.4375 181.351562 99.820312 181.167969 99.453125 C 180.699219 98.109375 181.945312 95.867188 182.941406 94.355469 C 183.933594 92.78125 185.230469 91.703125 186.214844 90.675781 C 190.539062 86.03125 195.847656 80.976562 200.710938 77.316406 C 203.296875 75.332031 206.066406 73.046875 209.011719 71.800781 C 209.8125 71.445312 210.847656 71.214844 211.515625 71.828125 Z M 234.925781 74.046875 C 234.914062 75.023438 233.871094 75.5 233.3125 76.042969 C 226.769531 82.671875 221.835938 92.300781 217.703125 101.515625 C 216.949219 103.277344 216.199219 105.035156 215.566406 106.917969 C 214.617188 109.769531 214.039062 112.445312 212.484375 114.863281 C 211.988281 115.589844 211.550781 116.621094 210.574219 116.613281 C 208.257812 116.523438 209.78125 111.117188 210.160156 110.085938 C 212 103.765625 215.484375 98.082031 218.65625 92.875 C 220.648438 89.609375 223.253906 85.859375 225.609375 82.777344 C 228.085938 79.636719 230.691406 75.949219 233.949219 74.039062 C 234.132812 73.917969 234.683594 73.679688 234.925781 74.046875 Z M 298.347656 78.125 C 298.679688 81.117188 294.714844 80.828125 295.046875 78.515625 C 295.25 76.992188 297.566406 76.957031 298.347656 78.125 Z M 244.019531 79.269531 C 246.160156 78.929688 244.359375 81.347656 243.863281 82.132812 C 240.3125 88.367188 237.75 93.640625 234.796875 100.859375 C 233.292969 104.621094 231.96875 108.261719 230.9375 112.882812 C 230.167969 116.101562 229.347656 118.65625 228.328125 122.238281 C 227.949219 123.453125 227.75 124.730469 226.714844 124.777344 C 224.394531 124.996094 224.746094 120.730469 224.894531 118.542969 C 225.46875 110.929688 228.164062 104.621094 230.664062 99.410156 C 233.230469 93.894531 236.527344 88.507812 239.878906 83.671875 C 240.746094 82.464844 242.550781 79.433594 244.019531 79.269531 Z M 257.867188 84.914062 C 260.007812 84.574219 258.394531 86.871094 258.082031 87.414062 C 254.59375 93.652344 252.253906 100.9375 249.613281 107.792969 C 247.285156 113.859375 245.566406 120.117188 243.65625 126.679688 C 243.46875 127.285156 237.957031 144.957031 237.226562 133.855469 C 237.125 132.027344 237.628906 130.875 237.824219 129.839844 C 239.320312 121.875 241.230469 114.828125 244.050781 108.402344 C 246.742188 102.277344 249.933594 95.792969 253.476562 90.105469 C 254.410156 88.53125 256.15625 85.261719 257.867188 84.914062 Z M 270.71875 92.738281 C 270.691406 94.8125 269.453125 96.441406 268.640625 98.261719 C 266.378906 103.78125 264.664062 109.429688 262.34375 115.007812 C 259.769531 121.253906 256.652344 127.128906 254.738281 134.359375 C 254.359375 135.636719 254.222656 136.730469 253.425781 136.84375 C 251.472656 137.125 251.933594 134.082031 252.132812 132.6875 C 252.59375 129.886719 253.417969 126.910156 254.117188 124.664062 C 255.324219 120.535156 256.53125 116.34375 258.097656 112.765625 C 260.476562 107.433594 263.042969 101.914062 265.972656 96.890625 C 266.964844 95.253906 268.59375 91.679688 270.71875 92.738281 Z M 119.835938 94.183594 C 112.402344 98.726562 99.460938 109.671875 93.457031 116.734375 C 92.222656 118.183594 90.980469 119.8125 89.742188 121.261719 C 88.199219 123.074219 82.167969 132.816406 78.574219 131.738281 C 76.570312 131.105469 77.152344 128.125 77.90625 126.308594 C 78.28125 125.515625 79.148438 124.492188 79.828125 123.523438 C 84.542969 117.242188 89.550781 111.691406 95.765625 107.011719 C 99.398438 104.1875 102.96875 101.730469 106.65625 99.335938 C 109.484375 97.476562 119.316406 91.679688 119.835938 94.183594 Z M 134.882812 96.425781 C 134.566406 97.460938 119.460938 110.9375 118.476562 111.71875 C 113.175781 116.167969 108.664062 121.355469 104.085938 126.605469 C 102.972656 127.871094 101.859375 129.203125 100.863281 130.773438 C 99.933594 132.226562 99.058594 134.105469 97.945312 135.066406 C 97.144531 135.730469 94.875 136.921875 93.71875 136.480469 C 92.199219 135.855469 93.292969 131.113281 93.917969 129.839844 C 95.542969 126.324219 99.066406 122.585938 101.96875 119.515625 C 103.515625 117.886719 104.933594 116.378906 106.597656 114.996094 C 110.542969 111.75 129.078125 97.335938 133.121094 96.101562 C 133.546875 95.984375 134.769531 95.816406 134.882812 96.425781 Z M 149.296875 100.734375 C 149.347656 101.957031 148.179688 102.429688 147.503906 102.96875 C 137.515625 111.875 124.40625 132.203125 118.492188 136.765625 C 118 137.183594 117.445312 137.789062 116.953125 138.089844 C 115.664062 138.863281 113.210938 139.871094 112.378906 137.914062 C 111.78125 136.625 112.605469 134.199219 113.042969 133.167969 C 114.546875 129.894531 134.855469 109.957031 137.996094 107.371094 C 140.890625 105.027344 144.347656 101.53125 147.898438 100.414062 C 148.265625 100.296875 149.0625 100.125 149.296875 100.734375 Z M 159.976562 106.28125 C 160.648438 106.226562 161.136719 106.230469 161.253906 106.785156 C 161.425781 107.757812 159.828125 108.59375 159.644531 108.777344 C 155.269531 112.441406 151.128906 116.90625 147.421875 120.886719 C 144.019531 124.566406 135.644531 136.777344 133.613281 138.15625 C 132.261719 139.054688 129.691406 139.574219 129.226562 137.3125 C 128.015625 131.390625 149.207031 114.019531 151.492188 111.972656 C 153.582031 110.167969 156.730469 107.21875 159.671875 106.277344 C 159.734375 106.214844 159.914062 106.28125 159.976562 106.28125 Z M 277.003906 108.777344 C 277.207031 112.007812 275.597656 114.003906 274.289062 116.300781 C 273.726562 117.332031 273.230469 118.421875 272.480469 119.695312 C 271.921875 120.664062 271.289062 122.546875 270.191406 122.59375 C 269.394531 122.644531 268.488281 121.902344 268.378906 120.929688 C 268.160156 118.792969 269.648438 116.613281 270.773438 114.375 C 272.148438 111.707031 273.152344 109.160156 275.542969 108.335938 C 276.03125 108.097656 276.703125 108.347656 277.003906 108.777344 Z M 167.128906 121.292969 C 165.890625 122.863281 164.472656 124.003906 163.417969 125.515625 C 162.300781 127.089844 161.304688 128.722656 160.25 130.296875 C 159.132812 131.867188 158.382812 133.808594 157.265625 135.136719 C 156.277344 136.34375 154.621094 137.054688 152.550781 136.542969 C 151.394531 136.226562 150.539062 136.15625 150.371094 134.75 C 150.214844 132.679688 152.007812 130.503906 153.0625 129.175781 C 155.414062 126.21875 158.4375 123.449219 161.273438 120.921875 C 163.925781 118.574219 175.984375 110.179688 167.128906 121.292969 Z M 181.726562 125.542969 C 182.519531 125.371094 183.070312 125.5 183.308594 125.988281 C 183.367188 126.109375 179.859375 134.054688 179.359375 134.960938 C 178.613281 136.234375 176.878906 138.589844 174.625 138.015625 C 172.558594 137.503906 173.019531 134.460938 173.953125 132.707031 C 174.332031 131.980469 181.113281 125.660156 181.726562 125.542969 Z M 177.820312 51.273438 C 177.695312 51.332031 177.570312 51.390625 177.570312 51.574219 C 178.242188 56.761719 178.605469 62.3125 179.09375 67.679688 C 184.0625 65.300781 189.460938 63.046875 195.703125 61.535156 C 208.308594 58.570312 226.546875 59.386719 238.957031 63.003906 C 238.875 59.46875 238.730469 56.054688 238.589844 52.578125 C 233.882812 52.949219 229.496094 52.414062 224.734375 52.296875 C 225.441406 54.804688 224.253906 57.167969 222 56.777344 C 220.292969 56.453125 220.257812 54.441406 220.34375 52.1875 C 215.832031 51.953125 211.316406 51.78125 206.617188 51.726562 C 206.289062 53.792969 205.953125 56.535156 203.878906 56.449219 C 202.050781 56.367188 201.773438 53.800781 202.039062 51.671875 C 198.324219 51.386719 194.171875 51.519531 190.265625 51.414062 C 191.09375 53.558594 191.21875 58.800781 188.125 57.425781 C 186.605469 56.738281 187.128906 53.636719 186.972656 51.378906 C 183.921875 51.34375 180.867188 51.308594 177.820312 51.273438 " fill-opacity="1" fill-rule="evenodd"/></g><g clip-path="url(#c2f23d9385)"><path fill="#edaa25" d="M 185.722656 7.398438 C 188.078125 9.433594 189.753906 12.199219 191.4375 14.777344 C 193.238281 17.355469 194.914062 20.058594 196.59375 22.695312 C 196.398438 23.546875 195.785156 23.964844 195.714844 24.878906 C 195.769531 25.429688 195.226562 24.753906 195.222656 25.117188 C 195.074219 27.371094 195.777344 29.816406 195.75 32.375 C 204.113281 31.921875 213.277344 31.480469 223.222656 31.53125 C 229.753906 31.605469 237.5 31.695312 244.335938 31.589844 C 246.414062 31.554688 249.585938 31.347656 251.230469 31.851562 C 251.289062 31.914062 262.910156 45.636719 263.9375 46.746094 C 264.417969 47.359375 265.382812 48.40625 265.25 49.199219 C 265.054688 50.351562 263.039062 50.390625 262 50.621094 L 262.21875 74.089844 C 262.457031 74.578125 263.191406 74.648438 263.675781 74.957031 C 263.375 69.164062 264.410156 63.875 265.804688 59.503906 C 268.867188 58.5625 269.625 61.4375 270.152344 63.695312 C 271.019531 62.488281 272.199219 60.855469 273.738281 59.351562 C 275.160156 57.902344 277.441406 55.859375 279.8125 56.859375 C 282.847656 58.054688 283.078125 64.511719 281.332031 67.96875 C 284.199219 67.878906 288.335938 69.328125 285.972656 72.894531 C 288.039062 73.835938 291.089844 73.867188 291.550781 76.191406 C 292.007812 78.816406 289.550781 80.25 288.859375 82.3125 C 292.9375 82.789062 292.378906 88.996094 290.519531 91.535156 C 296.792969 97.820312 305.082031 104.195312 311.664062 110.546875 C 312.445312 111.289062 313.472656 112.152344 313.582031 113.371094 C 279.523438 97.867188 249.832031 58.164062 201.003906 63.941406 C 188.839844 65.449219 177.980469 70.566406 169.808594 75.410156 C 162.25 80.015625 154.804688 84.984375 148.210938 90.761719 C 160.035156 97.359375 168.097656 102.203125 178.097656 108.410156 C 187.546875 114.308594 197.046875 121.546875 206.621094 127.320312 C 208.742188 128.566406 210.867188 129.808594 212.800781 131.355469 C 213.40625 131.785156 214.253906 132.164062 214.429688 133.019531 C 211.207031 132.191406 208.296875 130.390625 205.324219 128.832031 C 184.636719 118.113281 136.578125 88.375 117.699219 90.230469 C 109.945312 90.933594 102.042969 93.15625 95.914062 95.585938 C 92.480469 96.890625 89.65625 98.378906 86.890625 100.234375 C 79.753906 105.210938 72.726562 111.410156 67.214844 118.109375 C 66.78125 118.65625 66.222656 119.5625 65.3125 119.371094 C 65.261719 118.027344 66.375 116.945312 67.117188 116.039062 C 71.015625 111.328125 75.457031 107.054688 80.207031 102.964844 C 82.054688 101.402344 83.722656 99.46875 85.574219 97.964844 C 93.089844 91.652344 101.941406 86.269531 113.496094 84.328125 C 113.382812 83.722656 112.472656 83.101562 112.179688 82.367188 C 111.289062 80.039062 111.207031 76.324219 111.25 72.847656 C 111.328125 66.085938 112.4375 59.882812 112.515625 53.058594 C 112.550781 49.890625 112.59375 45.925781 113.539062 43.5625 C 113.976562 42.589844 115.09375 40.71875 116.011719 40.605469 C 118.824219 40.269531 118.746094 46.914062 118.902344 49.351562 C 119.425781 56.855469 119.777344 63.5625 120.242188 71.125 C 120.492188 75.574219 121.765625 81.683594 118.75 83.78125 C 120.339844 83.617188 122.109375 83.578125 123.941406 83.660156 C 120.253906 75.328125 121.667969 58.28125 122.359375 46.101562 C 122.582031 42.691406 122.40625 36.414062 124.914062 36.015625 C 128.214844 35.503906 128.8125 42.152344 129.148438 44.714844 C 130.503906 54.179688 130.691406 64.480469 131.183594 74.785156 C 131.34375 76.855469 131.683594 79.238281 131.234375 80.875 C 131.039062 81.851562 130.425781 82.210938 130.050781 82.996094 C 130.230469 83.367188 130.351562 83.730469 130.402344 84.21875 C 135.394531 85.191406 139.773438 86.824219 143.964844 88.519531 C 144.820312 88.347656 145.132812 87.617188 145.867188 87.320312 C 145.328125 86.707031 145.277344 85.792969 144.921875 84.933594 C 144.683594 84.199219 144.078125 83.707031 143.90625 82.910156 C 143.558594 81.203125 143.519531 79.128906 143.363281 77.179688 C 143.199219 75.226562 142.980469 73.210938 143.003906 71.261719 C 143.050781 66.9375 143.171875 61.878906 143.402344 57.738281 C 143.554688 54.875 143.402344 46.953125 145.910156 46.492188 C 149.089844 45.859375 149.207031 51.769531 149.484375 54.210938 C 149.871094 57.628906 150.082031 60.554688 150.539062 63.425781 C 151.445312 69.652344 152.964844 75.398438 152.769531 81.550781 C 153.996094 81.074219 155.292969 79.75 156.585938 78.910156 C 155.921875 77.992188 155.992188 77.320312 155.890625 75.675781 C 155.691406 71.652344 155.128906 67.378906 155.183594 62.808594 C 155.230469 58.542969 155.097656 54.03125 155.152344 49.402344 C 155.230469 42.820312 155.246094 35.996094 156.113281 29.609375 C 156.382812 27.234375 156.71875 24.738281 158.972656 25.007812 C 161.839844 25.285156 162.617188 31.996094 163.132812 34.804688 C 163.820312 38.589844 164.320312 43.105469 164.761719 47.074219 C 165.699219 55.980469 166.890625 63.671875 166.847656 72.816406 C 169.050781 72.046875 171.148438 70.242188 173.417969 69.234375 C 173.421875 63.445312 172.695312 57.585938 172.585938 51.550781 C 172.472656 50.574219 170.753906 51.285156 170.339844 50.367188 C 169.679688 49.082031 171.835938 47.335938 172.582031 46.554688 C 173.011719 46.070312 173.507812 45.527344 174.0625 44.925781 C 174.4375 44.441406 175.296875 43.722656 175.421875 43.234375 C 175.679688 42.324219 175.332031 40.675781 175.347656 39.332031 C 175.320312 36.46875 175.226562 33.90625 175.257812 31.105469 C 175.273438 29.828125 174.863281 28.480469 175.605469 27.453125 C 176.773438 26.917969 176.746094 29.292969 176.789062 30.511719 C 177.058594 33.929688 177.191406 38.074219 177.40625 41.003906 C 178.695312 40.222656 179.683594 38.894531 180.859375 37.628906 C 181.351562 37.085938 182.03125 36.421875 182.648438 35.882812 C 183.945312 34.679688 184.808594 33.777344 187.308594 33.863281 C 186.976562 31.054688 187.011719 28.007812 187.046875 24.902344 C 186.132812 24.648438 184.730469 24.816406 183.628906 24.742188 C 183.964844 27.425781 184.511719 32.980469 180.867188 31.65625 C 179.042969 31.027344 179.699219 26.890625 179.355469 24.9375 C 177.710938 24.675781 175.6875 25.441406 174.597656 24.761719 C 174.914062 23.96875 175.410156 23.308594 175.84375 22.582031 C 178.707031 17.675781 181.636719 12.46875 184.5625 7.507812 C 185.167969 7.695312 185.230469 7.695312 185.722656 7.398438 Z M 176.441406 23.804688 C 177.601562 23.636719 178.699219 23.894531 179.796875 23.78125 C 180.285156 23.726562 180.777344 23.371094 181.265625 23.375 C 181.632812 23.378906 182.058594 23.6875 182.484375 23.691406 C 183.949219 23.832031 185.476562 23.484375 187.183594 23.5625 C 186.511719 18.679688 185.460938 14.160156 184.414062 9.699219 C 181.976562 14.546875 179 18.960938 176.441406 23.804688 Z M 239.984375 38.488281 C 238.199219 40.171875 236.769531 42.109375 235.164062 43.855469 C 234.363281 44.703125 233.3125 45.847656 232.089844 45.773438 C 231.859375 44.550781 233.09375 43.46875 233.835938 42.5625 C 235.816406 40.085938 237.917969 37.671875 239.839844 35.378906 C 240.269531 34.894531 240.890625 34.355469 240.832031 34.046875 C 238.753906 34.027344 236.679688 34 234.667969 33.980469 C 233.230469 36.765625 231.140625 38.203125 228.851562 40.738281 C 228.113281 41.582031 227.304688 42.730469 226.5 43.636719 C 225.945312 44.359375 224.519531 46.175781 223.667969 45.980469 C 222.207031 45.660156 224.0625 43.304688 224.4375 42.757812 C 226.730469 39.679688 229.203125 36.902344 231.429688 34.125 C 229.355469 34.101562 227.34375 34.078125 225.507812 34.300781 C 223.832031 36.839844 222.101562 38.589844 219.875 41.183594 C 219.195312 41.96875 218.207031 42.992188 217.464844 43.835938 C 216.847656 44.5625 215.605469 46.496094 214.632812 46.183594 C 213.597656 45.863281 214.46875 44.410156 214.78125 43.929688 C 216.957031 40.417969 220.167969 37.289062 222.152344 34.261719 C 220.503906 34.425781 218.492188 34.28125 216.660156 34.261719 C 215.847656 35.894531 214.679688 36.675781 213.445312 38.003906 C 211.960938 39.570312 210.597656 41.503906 209.175781 43.253906 C 208.617188 43.859375 207.375 45.671875 206.585938 45.480469 C 205.550781 45.226562 206.484375 43.773438 206.730469 43.410156 C 208.964844 40.203125 211.683594 37.066406 213.730469 34.347656 C 212.140625 34.390625 210.554688 34.433594 208.90625 34.476562 C 206.796875 37.621094 203.839844 40.085938 201.546875 43.046875 C 200.804688 43.953125 200.179688 45.34375 198.890625 45.695312 C 197.867188 44.832031 199.160156 43.503906 199.660156 42.71875 C 201.273438 40.117188 203.375 38.191406 205.046875 36.015625 C 205.355469 35.652344 205.910156 35.171875 205.792969 34.683594 C 204.023438 34.664062 202.433594 34.828125 200.785156 34.933594 C 200.09375 36.628906 198.984375 37.53125 197.8125 38.859375 C 196.265625 40.609375 194.78125 42.238281 193.238281 43.863281 C 192.496094 44.648438 191.683594 46.164062 190.414062 45.539062 C 190.300781 44.378906 191.289062 43.539062 191.96875 42.753906 C 193.703125 40.582031 195.4375 38.464844 197.046875 36.351562 C 197.296875 35.988281 197.972656 35.632812 197.792969 35.082031 C 196.386719 35.246094 194.921875 35.292969 193.394531 35.273438 C 191.167969 38.050781 188.515625 40.398438 186.230469 42.992188 C 185.488281 43.835938 184.742188 44.988281 183.519531 45.214844 C 182.921875 44.234375 183.96875 43.210938 184.464844 42.546875 C 186.265625 40.007812 188.671875 37.78125 190.402344 35.421875 C 188.453125 35.519531 186.25 35.863281 184.542969 35.902344 C 181.4375 40.378906 177.550781 44.050781 174.328125 48.339844 C 194.042969 48.140625 215.835938 47.660156 235.839844 48.921875 C 239.425781 44.941406 242.648438 40.285156 245.871094 36.058594 C 246.308594 35.511719 246.984375 34.851562 247.054688 34.121094 C 246.386719 33.871094 245.289062 34.039062 244.433594 33.96875 C 243.25 35.902344 241.589844 37.042969 239.984375 38.488281 Z M 115.007812 80.324219 C 116.550781 78.761719 115.972656 75.890625 115.816406 73.570312 C 115.355469 65.949219 115.632812 57.726562 115.292969 50.347656 C 114.453125 59.660156 113.460938 71.472656 115.007812 80.324219 Z M 195.523438 68.207031 C 196.125 68.703125 195.085938 68.992188 195.023438 69.054688 C 189.183594 72.644531 183.277344 76.65625 178.101562 81.046875 C 176.257812 82.609375 163.105469 95.808594 161.886719 95.609375 C 155.917969 94.6875 171.617188 82.558594 171.863281 82.378906 C 176.476562 79.019531 181.765625 75.605469 186.925781 72.617188 C 189.753906 71.003906 192.640625 69.269531 195.523438 68.207031 Z M 292.949219 71.515625 C 294.050781 71.160156 294.46875 71.714844 294.523438 72.386719 C 294.613281 75.066406 290.433594 72.398438 292.949219 71.515625 Z M 219.527344 71.648438 C 219.578125 72.5625 218.597656 73.101562 218.039062 73.703125 C 213.960938 78.109375 209.816406 82.933594 206.039062 87.886719 C 201.640625 93.628906 198.628906 100.296875 194.773438 106.710938 C 195.84375 109.285156 188.378906 110.839844 189.285156 106.464844 C 189.480469 105.371094 190.230469 103.917969 190.417969 103.492188 C 195.675781 91.972656 205.289062 83.675781 213.746094 75.421875 C 215.167969 74.039062 216.894531 72.351562 218.429688 71.636719 C 218.554688 71.515625 219.230469 71.097656 219.527344 71.648438 Z M 208.722656 71.828125 C 207.734375 72.914062 206.503906 73.753906 205.332031 74.714844 C 198.679688 80.066406 192.261719 86.332031 186.9375 93.214844 C 186.007812 94.363281 185.261719 95.632812 184.269531 96.71875 C 183.714844 97.320312 182.914062 97.742188 182.054688 98.523438 C 181.5 99.0625 180.871094 100.335938 179.957031 100.386719 C 179.039062 100.4375 178.5625 99.820312 178.378906 99.453125 C 177.90625 98.109375 179.15625 95.867188 180.148438 94.355469 C 181.144531 92.78125 182.4375 91.703125 183.425781 90.675781 C 187.75 86.03125 193.058594 80.976562 197.917969 77.316406 C 200.503906 75.332031 203.277344 73.046875 206.222656 71.800781 C 207.019531 71.445312 208.058594 71.214844 208.722656 71.828125 Z M 232.132812 74.046875 C 232.121094 75.023438 231.078125 75.5 230.523438 76.042969 C 223.976562 82.671875 219.046875 92.300781 214.914062 101.515625 C 214.160156 103.277344 213.40625 105.035156 212.777344 106.917969 C 211.828125 109.769531 211.25 112.445312 209.695312 114.863281 C 209.199219 115.589844 208.761719 116.621094 207.785156 116.613281 C 205.464844 116.523438 206.992188 111.117188 207.371094 110.085938 C 209.210938 103.765625 212.695312 98.082031 215.867188 92.875 C 217.859375 89.609375 220.460938 85.859375 222.820312 82.777344 C 225.296875 79.636719 227.898438 75.949219 231.15625 74.039062 C 231.339844 73.917969 231.894531 73.679688 232.132812 74.046875 Z M 295.554688 78.125 C 295.890625 81.117188 291.925781 80.828125 292.257812 78.515625 C 292.457031 76.992188 294.773438 76.957031 295.554688 78.125 Z M 241.226562 79.269531 C 243.367188 78.929688 241.570312 81.347656 241.074219 82.132812 C 237.523438 88.367188 234.960938 93.640625 232.007812 100.859375 C 230.5 104.621094 229.179688 108.261719 228.148438 112.882812 C 227.378906 116.101562 226.554688 118.65625 225.539062 122.238281 C 225.160156 123.453125 224.960938 124.730469 223.925781 124.777344 C 221.601562 124.996094 221.957031 120.730469 222.101562 118.542969 C 222.679688 110.929688 225.375 104.621094 227.875 99.410156 C 230.4375 93.894531 233.738281 88.507812 237.085938 83.671875 C 237.957031 82.464844 239.757812 79.433594 241.226562 79.269531 Z M 255.078125 84.914062 C 257.21875 84.574219 255.601562 86.871094 255.292969 87.414062 C 251.804688 93.652344 249.460938 100.9375 246.820312 107.792969 C 244.492188 113.859375 242.773438 120.117188 240.867188 126.679688 C 240.675781 127.285156 235.164062 144.957031 234.4375 133.855469 C 234.335938 132.027344 234.835938 130.875 235.03125 129.839844 C 236.527344 121.875 238.441406 114.828125 241.257812 108.402344 C 243.953125 102.277344 247.140625 95.792969 250.683594 90.105469 C 251.617188 88.53125 253.363281 85.261719 255.078125 84.914062 Z M 267.925781 92.738281 C 267.902344 94.8125 266.664062 96.441406 265.847656 98.261719 C 263.589844 103.78125 261.875 109.429688 259.554688 115.007812 C 256.980469 121.253906 253.859375 127.128906 251.945312 134.359375 C 251.566406 135.636719 251.433594 136.730469 250.636719 136.84375 C 248.679688 137.125 249.144531 134.082031 249.34375 132.6875 C 249.800781 129.886719 250.628906 126.910156 251.328125 124.664062 C 252.53125 120.535156 253.742188 116.34375 255.308594 112.765625 C 257.6875 107.433594 260.25 101.914062 263.179688 96.890625 C 264.171875 95.253906 265.800781 91.679688 267.925781 92.738281 Z M 117.046875 94.183594 C 109.609375 98.726562 96.667969 109.671875 90.667969 116.734375 C 89.429688 118.183594 88.191406 119.8125 86.953125 121.261719 C 85.40625 123.074219 79.378906 132.816406 75.785156 131.738281 C 73.78125 131.105469 74.363281 128.125 75.117188 126.308594 C 75.492188 125.515625 76.359375 124.492188 77.039062 123.523438 C 81.75 117.242188 86.757812 111.691406 92.972656 107.011719 C 96.609375 104.1875 100.175781 101.730469 103.867188 99.335938 C 106.695312 97.476562 116.523438 91.679688 117.046875 94.183594 Z M 132.09375 96.425781 C 131.777344 97.460938 116.667969 110.9375 115.6875 111.71875 C 110.386719 116.167969 105.871094 121.355469 101.292969 126.605469 C 100.179688 127.871094 99.070312 129.203125 98.074219 130.773438 C 97.140625 132.226562 96.265625 134.105469 95.15625 135.066406 C 94.355469 135.730469 92.082031 136.921875 90.929688 136.480469 C 89.410156 135.855469 90.503906 131.113281 91.125 129.839844 C 92.753906 126.324219 96.277344 122.585938 99.179688 119.515625 C 100.722656 117.886719 102.144531 116.378906 103.808594 114.996094 C 107.75 111.75 126.285156 97.335938 130.328125 96.101562 C 130.757812 95.984375 131.980469 95.816406 132.09375 96.425781 Z M 146.507812 100.734375 C 146.554688 101.957031 145.390625 102.429688 144.714844 102.96875 C 134.722656 111.875 121.617188 132.203125 115.703125 136.765625 C 115.210938 137.183594 114.652344 137.789062 114.164062 138.089844 C 112.871094 138.863281 110.417969 139.871094 109.585938 137.914062 C 108.992188 136.625 109.8125 134.199219 110.25 133.167969 C 111.753906 129.894531 132.0625 109.957031 135.203125 107.371094 C 138.097656 105.027344 141.558594 101.53125 145.109375 100.414062 C 145.476562 100.296875 146.269531 100.125 146.507812 100.734375 Z M 157.1875 106.28125 C 157.855469 106.226562 158.347656 106.230469 158.460938 106.785156 C 158.632812 107.757812 157.035156 108.59375 156.851562 108.777344 C 152.476562 112.441406 148.335938 116.90625 144.628906 120.886719 C 141.230469 124.566406 132.851562 136.777344 130.824219 138.15625 C 129.472656 139.054688 126.902344 139.574219 126.4375 137.3125 C 125.222656 131.390625 146.417969 114.019531 148.699219 111.972656 C 150.792969 110.167969 153.941406 107.21875 156.878906 106.277344 C 156.941406 106.214844 157.125 106.28125 157.1875 106.28125 Z M 274.210938 108.777344 C 274.417969 112.007812 272.808594 114.003906 271.5 116.300781 C 270.9375 117.332031 270.4375 118.421875 269.691406 119.695312 C 269.128906 120.664062 268.5 122.546875 267.402344 122.59375 C 266.605469 122.644531 265.699219 121.902344 265.589844 120.929688 C 265.371094 118.792969 266.859375 116.613281 267.980469 114.375 C 269.355469 111.707031 270.363281 109.160156 272.75 108.335938 C 273.242188 108.097656 273.910156 108.347656 274.210938 108.777344 Z M 164.335938 121.292969 C 163.097656 122.863281 161.679688 124.003906 160.625 125.515625 C 159.507812 127.089844 158.515625 128.722656 157.460938 130.296875 C 156.34375 131.867188 155.589844 133.808594 154.476562 135.136719 C 153.484375 136.34375 151.828125 137.054688 149.757812 136.542969 C 148.601562 136.226562 147.75 136.15625 147.582031 134.75 C 147.421875 132.679688 149.21875 130.503906 150.273438 129.175781 C 152.625 126.21875 155.644531 123.449219 158.484375 120.921875 C 161.136719 118.574219 173.195312 110.179688 164.335938 121.292969 Z M 178.9375 125.542969 C 179.730469 125.371094 180.28125 125.5 180.519531 125.988281 C 180.578125 126.109375 177.066406 134.054688 176.570312 134.960938 C 175.820312 136.234375 174.085938 138.589844 171.835938 138.015625 C 169.765625 137.503906 170.226562 134.460938 171.164062 132.707031 C 171.539062 131.980469 178.320312 125.660156 178.9375 125.542969 Z M 175.027344 51.273438 C 174.90625 51.332031 174.78125 51.390625 174.777344 51.574219 C 175.453125 56.761719 175.816406 62.3125 176.304688 67.679688 C 181.273438 65.300781 186.671875 63.046875 192.914062 61.535156 C 205.519531 58.570312 223.757812 59.386719 236.164062 63.003906 C 236.085938 59.46875 235.941406 56.054688 235.796875 52.578125 C 231.09375 52.949219 226.707031 52.414062 221.945312 52.296875 C 222.652344 54.804688 221.460938 57.167969 219.210938 56.777344 C 217.503906 56.453125 217.464844 54.441406 217.554688 52.1875 C 213.042969 51.953125 208.527344 51.78125 203.824219 51.726562 C 203.496094 53.792969 203.160156 56.535156 201.089844 56.449219 C 199.257812 56.367188 198.980469 53.800781 199.25 51.671875 C 195.53125 51.386719 191.382812 51.519531 187.476562 51.414062 C 188.304688 53.558594 188.429688 58.800781 185.332031 57.425781 C 183.8125 56.738281 184.335938 53.636719 184.179688 51.378906 C 181.132812 51.34375 178.078125 51.308594 175.027344 51.273438 " fill-opacity="1" fill-rule="evenodd"/></g><path fill="#c43302" d="M 183.328125 139.847656 C 191.34375 127.054688 197.757812 115.175781 205.734375 104.457031 C 219.511719 85.949219 237.835938 74.070312 261.007812 70.113281 C 293.085938 64.636719 314.816406 82.527344 318.40625 114.859375 C 324.011719 165.355469 310.019531 196.300781 285.6875 236.800781 C 257.414062 283.867188 220.304688 334.464844 186.726562 359.761719 C 176.289062 367.628906 148.371094 334.523438 117.808594 297.988281 C 74.773438 246.546875 49.066406 177.097656 61.035156 125.820312 C 68.507812 93.816406 99.210938 81.253906 126.515625 86.882812 C 149.160156 91.554688 164.984375 106.625 176.28125 126.445312 C 178.636719 130.582031 180.722656 134.875 183.328125 139.847656 Z M 183.328125 139.847656 " fill-opacity="1" fill-rule="nonzero"/><path fill="#ff914d" d="M 184.121094 159.289062 C 190.109375 149.726562 194.894531 140.84375 200.851562 132.832031 C 211.136719 118.996094 224.820312 110.117188 242.121094 107.160156 C 266.070312 103.066406 282.296875 116.441406 284.976562 140.609375 C 289.160156 178.355469 278.714844 201.488281 260.550781 231.765625 C 239.4375 266.949219 211.730469 304.769531 186.660156 323.679688 C 178.867188 329.5625 158.023438 304.8125 135.203125 277.503906 C 103.074219 239.050781 83.875 187.136719 92.816406 148.800781 C 98.394531 124.878906 121.316406 115.488281 141.703125 119.699219 C 158.613281 123.1875 170.425781 134.453125 178.859375 149.269531 C 180.621094 152.363281 182.175781 155.570312 184.121094 159.289062 Z M 184.121094 159.289062 " fill-opacity="1" fill-rule="nonzero"/><path fill="#ffb82a" d="M 185.410156 177.589844 C 189.453125 171.128906 192.6875 165.128906 196.707031 159.71875 C 203.652344 150.371094 212.890625 144.371094 224.574219 142.375 C 240.746094 139.609375 251.699219 148.644531 253.507812 164.96875 C 256.335938 190.46875 249.28125 206.09375 237.015625 226.546875 C 222.761719 250.3125 204.054688 275.859375 187.125 288.632812 C 181.863281 292.605469 167.789062 275.886719 152.382812 257.441406 C 130.6875 231.464844 117.726562 196.398438 123.761719 170.503906 C 127.527344 154.34375 143.007812 148 156.773438 150.84375 C 168.1875 153.203125 176.164062 160.8125 181.859375 170.820312 C 183.046875 172.910156 184.097656 175.074219 185.410156 177.589844 Z M 185.410156 177.589844 " fill-opacity="1" fill-rule="nonzero"/><g fill="#c43302" fill-opacity="1"><g transform="translate(1.321703, 181.427676)"><g><path d="M 22.28125 2.796875 C 23.375 3.328125 24.519531 3.675781 25.71875 3.84375 C 26.914062 4.019531 27.828125 4.066406 28.453125 3.984375 L 29.40625 3.859375 L 29.5 11.46875 C 29.363281 11.5 29.171875 11.53125 28.921875 11.5625 C 28.679688 11.601562 28.148438 11.640625 27.328125 11.671875 C 26.515625 11.703125 25.675781 11.660156 24.8125 11.546875 C 23.945312 11.441406 22.863281 11.203125 21.5625 10.828125 C 20.269531 10.453125 18.988281 9.953125 17.71875 9.328125 C 14.78125 7.898438 12.347656 5.828125 10.421875 3.109375 C 8.492188 0.390625 7.34375 -2.625 6.96875 -5.9375 C 6.59375 -9.25 7.117188 -12.367188 8.546875 -15.296875 C 9.628906 -17.515625 11.132812 -19.414062 13.0625 -21 C 15 -22.582031 17.109375 -23.71875 19.390625 -24.40625 C 21.679688 -25.101562 24.082031 -25.375 26.59375 -25.21875 C 29.101562 -25.070312 31.457031 -24.46875 33.65625 -23.40625 C 35.695312 -22.40625 37.457031 -21.242188 38.9375 -19.921875 C 40.425781 -18.597656 41.410156 -17.523438 41.890625 -16.703125 L 42.59375 -15.453125 L 36.546875 -10.8125 C 36.441406 -11.039062 36.265625 -11.351562 36.015625 -11.75 C 35.773438 -12.15625 35.203125 -12.796875 34.296875 -13.671875 C 33.398438 -14.546875 32.40625 -15.25 31.3125 -15.78125 C 29.570312 -16.625 27.875 -17.097656 26.21875 -17.203125 C 24.570312 -17.316406 23.125 -17.109375 21.875 -16.578125 C 20.632812 -16.054688 19.546875 -15.367188 18.609375 -14.515625 C 17.671875 -13.660156 16.929688 -12.679688 16.390625 -11.578125 C 15.222656 -9.171875 15.078125 -6.578125 15.953125 -3.796875 C 16.828125 -1.023438 18.9375 1.171875 22.28125 2.796875 Z M 22.28125 2.796875 "/></g></g></g><g fill="#c43302" fill-opacity="1"><g transform="translate(31.065777, 196.137108)"><g><path d="M 36.84375 -16.328125 L 34.421875 -9.78125 L 45.265625 -5.75 L 42.828125 0.84375 L 31.984375 -3.1875 L 29.515625 3.4375 L 40.828125 7.640625 L 38.390625 14.234375 L 17.515625 6.5 C 12.921875 4.789062 9.582031 1.78125 7.5 -2.53125 C 5.425781 -6.84375 5.265625 -11.367188 7.015625 -16.109375 C 8.773438 -20.847656 11.851562 -24.179688 16.25 -26.109375 C 20.644531 -28.035156 25.140625 -28.144531 29.734375 -26.4375 L 50.609375 -18.703125 L 48.15625 -12.125 Z M 29.28125 -18.96875 L 28.125 -19.390625 C 25.351562 -20.421875 22.753906 -20.328125 20.328125 -19.109375 C 17.898438 -17.898438 16.171875 -15.910156 15.140625 -13.140625 C 14.109375 -10.347656 14.113281 -7.695312 15.15625 -5.1875 C 16.207031 -2.675781 18.117188 -0.90625 20.890625 0.125 L 22.046875 0.546875 Z M 29.28125 -18.96875 "/></g></g></g><g fill="#c43302" fill-opacity="1"><g transform="translate(72.520911, 211.15982)"><g><path d="M 37.515625 -26.4375 L 31.734375 -4.53125 C 30.640625 -0.351562 28.6875 2.503906 25.875 4.046875 C 23.0625 5.597656 19.488281 5.800781 15.15625 4.65625 C 10.820312 3.519531 7.8125 1.585938 6.125 -1.140625 C 4.4375 -3.878906 4.140625 -7.335938 5.234375 -11.515625 L 11.015625 -33.421875 L 18.765625 -31.390625 L 13.59375 -11.75 C 12.863281 -9.007812 12.785156 -6.988281 13.359375 -5.6875 C 13.941406 -4.382812 15.207031 -3.472656 17.15625 -2.953125 C 19.101562 -2.441406 20.648438 -2.609375 21.796875 -3.453125 C 22.941406 -4.296875 23.878906 -6.085938 24.609375 -8.828125 L 29.78125 -28.46875 Z M 37.515625 -26.4375 "/></g></g></g><g fill="#c43302" fill-opacity="1"><g transform="translate(104.046259, 219.409872)"><g><path d="M 8.6875 -34.125 L 21.046875 -31.921875 C 24.378906 -31.328125 26.929688 -29.953125 28.703125 -27.796875 C 30.484375 -25.648438 31.078125 -22.929688 30.484375 -19.640625 C 30.035156 -17.097656 29.019531 -15.078125 27.4375 -13.578125 C 25.851562 -12.085938 23.914062 -11.1875 21.625 -10.875 L 30.984375 5.53125 L 20.96875 3.75 L 12.828125 -11.796875 L 10.390625 1.859375 L 2.515625 0.453125 Z M 13.828125 -17.375 L 14.765625 -17.21875 C 15.484375 -17.082031 16.097656 -16.984375 16.609375 -16.921875 C 17.117188 -16.859375 17.707031 -16.851562 18.375 -16.90625 C 19.050781 -16.96875 19.609375 -17.113281 20.046875 -17.34375 C 20.492188 -17.582031 20.910156 -17.96875 21.296875 -18.5 C 21.679688 -19.039062 21.945312 -19.734375 22.09375 -20.578125 C 22.25 -21.421875 22.238281 -22.15625 22.0625 -22.78125 C 21.882812 -23.414062 21.628906 -23.921875 21.296875 -24.296875 C 20.960938 -24.679688 20.488281 -25.015625 19.875 -25.296875 C 19.269531 -25.578125 18.71875 -25.773438 18.21875 -25.890625 C 17.71875 -26.003906 17.109375 -26.128906 16.390625 -26.265625 L 15.453125 -26.421875 Z M 13.828125 -17.375 "/></g></g></g><g fill="#c43302" fill-opacity="1"><g transform="translate(134.698676, 224.608601)"><g/></g></g><g fill="#c43302" fill-opacity="1"><g transform="translate(146.832151, 226.358066)"><g><path d="M 4.875 -34.875 L 15.015625 -34.203125 C 19.878906 -33.878906 23.929688 -31.941406 27.171875 -28.390625 C 30.410156 -24.835938 31.863281 -20.554688 31.53125 -15.546875 C 31.195312 -10.503906 29.195312 -6.429688 25.53125 -3.328125 C 21.875 -0.222656 17.597656 1.164062 12.703125 0.84375 L 2.5625 0.171875 Z M 11.015625 -6.4375 L 12.234375 -6.359375 C 15.160156 -6.171875 17.613281 -7 19.59375 -8.84375 C 21.570312 -10.6875 22.675781 -13.097656 22.90625 -16.078125 C 23.101562 -19.046875 22.335938 -21.582031 20.609375 -23.6875 C 18.890625 -25.789062 16.554688 -26.9375 13.609375 -27.125 L 12.390625 -27.203125 Z M 11.015625 -6.4375 "/></g></g></g><g fill="#c43302" fill-opacity="1"><g transform="translate(179.008825, 228.329888)"><g><path d="M 22.40625 -35.28125 L 22.453125 -28.265625 L 10.359375 -28.1875 L 10.40625 -21.203125 L 21.984375 -21.28125 L 22.046875 -14.25 L 10.46875 -14.171875 L 10.515625 -7.109375 L 22.609375 -7.1875 L 22.65625 -0.15625 L 2.5625 -0.015625 L 2.3125 -35.140625 Z M 22.40625 -35.28125 "/></g></g></g><g fill="#c43302" fill-opacity="1"><g transform="translate(204.223788, 227.982544)"><g/></g></g><g fill="#c43302" fill-opacity="1"><g transform="translate(216.425634, 227.520645)"><g><path d="M -1.1875 -35.1875 L 9.640625 -36.359375 C 12.910156 -36.703125 15.59375 -36.28125 17.6875 -35.09375 C 19.789062 -33.90625 21.007812 -31.742188 21.34375 -28.609375 C 21.71875 -25.109375 20.535156 -22.457031 17.796875 -20.65625 C 22.847656 -20.3125 25.640625 -17.640625 26.171875 -12.640625 C 26.492188 -9.703125 25.734375 -7.238281 23.890625 -5.25 C 22.046875 -3.257812 19.34375 -2.070312 15.78125 -1.6875 L 2.546875 -0.265625 Z M 8.234375 -22.375 L 8.875 -22.4375 C 10.644531 -22.625 11.929688 -23.078125 12.734375 -23.796875 C 13.546875 -24.515625 13.875 -25.578125 13.71875 -26.984375 C 13.46875 -29.347656 11.582031 -30.34375 8.0625 -29.96875 L 7.421875 -29.90625 Z M 9.84375 -7.265625 L 12.34375 -7.53125 C 16.238281 -7.945312 18.046875 -9.453125 17.765625 -12.046875 C 17.597656 -13.597656 16.988281 -14.660156 15.9375 -15.234375 C 14.894531 -15.816406 13.398438 -16.003906 11.453125 -15.796875 L 8.953125 -15.53125 Z M 9.84375 -7.265625 "/></g></g></g><g fill="#c43302" fill-opacity="1"><g transform="translate(245.604249, 224.551511)"><g><path d="M -2.390625 -17.4375 C -3.359375 -22.425781 -2.476562 -26.976562 0.25 -31.09375 C 2.976562 -35.21875 6.734375 -37.742188 11.515625 -38.671875 C 16.335938 -39.609375 20.765625 -38.679688 24.796875 -35.890625 C 28.835938 -33.109375 31.347656 -29.207031 32.328125 -24.1875 C 33.304688 -19.144531 32.472656 -14.582031 29.828125 -10.5 C 27.191406 -6.425781 23.40625 -3.90625 18.46875 -2.9375 C 13.425781 -1.957031 8.9375 -2.851562 5 -5.625 C 1.0625 -8.40625 -1.398438 -12.34375 -2.390625 -17.4375 Z M 6.09375 -19.09375 C 6.445312 -17.289062 7.046875 -15.695312 7.890625 -14.3125 C 8.742188 -12.925781 9.960938 -11.851562 11.546875 -11.09375 C 13.140625 -10.332031 14.953125 -10.148438 16.984375 -10.546875 C 19.910156 -11.117188 21.921875 -12.550781 23.015625 -14.84375 C 24.117188 -17.132812 24.394531 -19.703125 23.84375 -22.546875 C 23.300781 -25.367188 22.070312 -27.640625 20.15625 -29.359375 C 18.25 -31.085938 15.859375 -31.671875 12.984375 -31.109375 C 10.140625 -30.554688 8.144531 -29.117188 7 -26.796875 C 5.851562 -24.484375 5.550781 -21.914062 6.09375 -19.09375 Z M 6.09375 -19.09375 "/></g></g></g><g fill="#c43302" fill-opacity="1"><g transform="translate(283.215269, 217.060245)"><g><path d="M 18.59375 -41.953125 L 24.90625 -20.1875 C 26.101562 -16.050781 25.890625 -12.597656 24.265625 -9.828125 C 22.648438 -7.054688 19.6875 -5.046875 15.375 -3.796875 C 11.070312 -2.546875 7.492188 -2.660156 4.640625 -4.140625 C 1.796875 -5.617188 -0.222656 -8.425781 -1.421875 -12.5625 L -7.734375 -34.328125 L -0.046875 -36.5625 L 5.609375 -17.0625 C 6.398438 -14.332031 7.378906 -12.554688 8.546875 -11.734375 C 9.710938 -10.921875 11.257812 -10.796875 13.1875 -11.359375 C 15.125 -11.921875 16.367188 -12.859375 16.921875 -14.171875 C 17.484375 -15.484375 17.367188 -17.503906 16.578125 -20.234375 L 10.921875 -39.734375 Z M 18.59375 -41.953125 "/></g></g></g><g fill="#c43302" fill-opacity="1"><g transform="translate(314.498017, 207.933347)"><g><path d="M -10.078125 -33.75 L 1.65625 -38.203125 C 4.820312 -39.410156 7.71875 -39.546875 10.34375 -38.609375 C 12.96875 -37.679688 14.875 -35.65625 16.0625 -32.53125 C 16.976562 -30.113281 17.140625 -27.859375 16.546875 -25.765625 C 15.960938 -23.671875 14.765625 -21.894531 12.953125 -20.4375 L 29.421875 -11.171875 L 19.90625 -7.5625 L 4.953125 -16.71875 L 9.875 -3.75 L 2.390625 -0.90625 Z M 2.9375 -22.015625 L 3.8125 -22.34375 C 4.5 -22.613281 5.078125 -22.847656 5.546875 -23.046875 C 6.015625 -23.253906 6.519531 -23.554688 7.0625 -23.953125 C 7.613281 -24.347656 8.019531 -24.757812 8.28125 -25.1875 C 8.539062 -25.625 8.695312 -26.171875 8.75 -26.828125 C 8.8125 -27.484375 8.6875 -28.207031 8.375 -29 C 8.070312 -29.800781 7.679688 -30.429688 7.203125 -30.890625 C 6.734375 -31.347656 6.257812 -31.648438 5.78125 -31.796875 C 5.300781 -31.953125 4.722656 -31.992188 4.046875 -31.921875 C 3.378906 -31.847656 2.800781 -31.734375 2.3125 -31.578125 C 1.820312 -31.421875 1.234375 -31.207031 0.546875 -30.9375 L -0.328125 -30.609375 Z M 2.9375 -22.015625 "/></g></g></g><g fill="#c43302" fill-opacity="1"><g transform="translate(343.925707, 196.822704)"><g><path d="M 22.390625 -32.609375 L 25.703125 -25.75 C 26.679688 -21.59375 26.253906 -17.882812 24.421875 -14.625 C 22.597656 -11.363281 19.984375 -8.910156 16.578125 -7.265625 C 12.304688 -5.210938 7.898438 -5.0625 3.359375 -6.8125 C -1.179688 -8.5625 -4.539062 -11.703125 -6.71875 -16.234375 C -8.9375 -20.828125 -9.335938 -25.414062 -7.921875 -30 C -6.515625 -34.59375 -3.613281 -37.945312 0.78125 -40.0625 C 5.925781 -42.539062 10.867188 -42.695312 15.609375 -40.53125 L 13.375 -33.09375 C 10.382812 -34.988281 7.375 -35.207031 4.34375 -33.75 C 2.125 -32.675781 0.691406 -30.796875 0.046875 -28.109375 C -0.585938 -25.421875 -0.25 -22.710938 1.0625 -19.984375 C 2.351562 -17.296875 4.242188 -15.375 6.734375 -14.21875 C 9.222656 -13.070312 11.578125 -13.035156 13.796875 -14.109375 C 15.640625 -14.992188 16.976562 -16.320312 17.8125 -18.09375 C 18.644531 -19.875 18.617188 -21.679688 17.734375 -23.515625 L 10.4375 -20 L 7.765625 -25.5625 Z M 22.390625 -32.609375 "/></g></g></g><g fill="#f1aa1d" fill-opacity="1"><g transform="translate(-1.060771, 176.268194)"><g><path d="M 22.28125 2.796875 C 23.375 3.328125 24.519531 3.675781 25.71875 3.84375 C 26.914062 4.019531 27.828125 4.066406 28.453125 3.984375 L 29.40625 3.859375 L 29.5 11.46875 C 29.363281 11.5 29.171875 11.53125 28.921875 11.5625 C 28.679688 11.601562 28.148438 11.640625 27.328125 11.671875 C 26.515625 11.703125 25.675781 11.660156 24.8125 11.546875 C 23.945312 11.441406 22.863281 11.203125 21.5625 10.828125 C 20.269531 10.453125 18.988281 9.953125 17.71875 9.328125 C 14.78125 7.898438 12.347656 5.828125 10.421875 3.109375 C 8.492188 0.390625 7.34375 -2.625 6.96875 -5.9375 C 6.59375 -9.25 7.117188 -12.367188 8.546875 -15.296875 C 9.628906 -17.515625 11.132812 -19.414062 13.0625 -21 C 14.988281 -22.582031 17.097656 -23.71875 19.390625 -24.40625 C 21.679688 -25.101562 24.082031 -25.375 26.59375 -25.21875 C 29.101562 -25.070312 31.457031 -24.46875 33.65625 -23.40625 C 35.695312 -22.40625 37.457031 -21.242188 38.9375 -19.921875 C 40.425781 -18.597656 41.410156 -17.523438 41.890625 -16.703125 L 42.59375 -15.453125 L 36.546875 -10.8125 C 36.441406 -11.039062 36.265625 -11.351562 36.015625 -11.75 C 35.773438 -12.15625 35.203125 -12.796875 34.296875 -13.671875 C 33.398438 -14.546875 32.40625 -15.25 31.3125 -15.78125 C 29.570312 -16.625 27.875 -17.097656 26.21875 -17.203125 C 24.5625 -17.316406 23.113281 -17.109375 21.875 -16.578125 C 20.632812 -16.054688 19.546875 -15.367188 18.609375 -14.515625 C 17.671875 -13.660156 16.929688 -12.679688 16.390625 -11.578125 C 15.222656 -9.171875 15.078125 -6.578125 15.953125 -3.796875 C 16.828125 -1.023438 18.9375 1.171875 22.28125 2.796875 Z M 22.28125 2.796875 "/></g></g></g><g fill="#f1aa1d" fill-opacity="1"><g transform="translate(28.703374, 190.986141)"><g><path d="M 36.84375 -16.328125 L 34.421875 -9.78125 L 45.265625 -5.75 L 42.828125 0.84375 L 31.984375 -3.1875 L 29.515625 3.4375 L 40.828125 7.640625 L 38.390625 14.234375 L 17.515625 6.5 C 12.921875 4.789062 9.582031 1.78125 7.5 -2.53125 C 5.425781 -6.84375 5.265625 -11.367188 7.015625 -16.109375 C 8.773438 -20.847656 11.851562 -24.179688 16.25 -26.109375 C 20.644531 -28.035156 25.140625 -28.144531 29.734375 -26.4375 L 50.609375 -18.703125 L 48.15625 -12.125 Z M 29.28125 -18.96875 L 28.125 -19.390625 C 25.351562 -20.421875 22.753906 -20.328125 20.328125 -19.109375 C 17.898438 -17.898438 16.171875 -15.910156 15.140625 -13.140625 C 14.109375 -10.347656 14.113281 -7.695312 15.15625 -5.1875 C 16.207031 -2.675781 18.117188 -0.90625 20.890625 0.125 L 22.046875 0.546875 Z M 29.28125 -18.96875 "/></g></g></g><g fill="#f1aa1d" fill-opacity="1"><g transform="translate(70.17887, 206.014408)"><g><path d="M 37.53125 -26.4375 L 31.75 -4.53125 C 30.65625 -0.351562 28.695312 2.503906 25.875 4.046875 C 23.0625 5.597656 19.488281 5.800781 15.15625 4.65625 C 10.820312 3.519531 7.8125 1.585938 6.125 -1.140625 C 4.4375 -3.878906 4.140625 -7.335938 5.234375 -11.515625 L 11.015625 -33.421875 L 18.765625 -31.390625 L 13.59375 -11.75 C 12.863281 -9.007812 12.785156 -6.988281 13.359375 -5.6875 C 13.941406 -4.382812 15.207031 -3.472656 17.15625 -2.953125 C 19.101562 -2.441406 20.648438 -2.609375 21.796875 -3.453125 C 22.941406 -4.296875 23.878906 -6.085938 24.609375 -8.828125 L 29.78125 -28.46875 Z M 37.53125 -26.4375 "/></g></g></g><g fill="#f1aa1d" fill-opacity="1"><g transform="translate(101.721654, 214.267567)"><g><path d="M 8.6875 -34.125 L 21.046875 -31.921875 C 24.378906 -31.328125 26.929688 -29.953125 28.703125 -27.796875 C 30.484375 -25.648438 31.078125 -22.929688 30.484375 -19.640625 C 30.023438 -17.097656 29.003906 -15.078125 27.421875 -13.578125 C 25.847656 -12.085938 23.914062 -11.1875 21.625 -10.875 L 30.984375 5.53125 L 20.96875 3.75 L 12.828125 -11.796875 L 10.390625 1.859375 L 2.515625 0.453125 Z M 13.828125 -17.375 L 14.765625 -17.21875 C 15.484375 -17.082031 16.097656 -16.984375 16.609375 -16.921875 C 17.117188 -16.859375 17.707031 -16.851562 18.375 -16.90625 C 19.050781 -16.96875 19.609375 -17.113281 20.046875 -17.34375 C 20.492188 -17.582031 20.910156 -17.96875 21.296875 -18.5 C 21.679688 -19.039062 21.945312 -19.734375 22.09375 -20.578125 C 22.25 -21.421875 22.238281 -22.15625 22.0625 -22.78125 C 21.882812 -23.414062 21.628906 -23.921875 21.296875 -24.296875 C 20.960938 -24.679688 20.488281 -25.015625 19.875 -25.296875 C 19.269531 -25.578125 18.71875 -25.773438 18.21875 -25.890625 C 17.71875 -26.003906 17.109375 -26.128906 16.390625 -26.265625 L 15.453125 -26.421875 Z M 13.828125 -17.375 "/></g></g></g><g fill="#f1aa1d" fill-opacity="1"><g transform="translate(132.385605, 219.468078)"><g/></g></g><g fill="#f1aa1d" fill-opacity="1"><g transform="translate(144.531713, 221.218562)"><g><path d="M 4.875 -34.875 L 15.015625 -34.203125 C 19.878906 -33.878906 23.929688 -31.941406 27.171875 -28.390625 C 30.410156 -24.835938 31.863281 -20.554688 31.53125 -15.546875 C 31.195312 -10.503906 29.195312 -6.429688 25.53125 -3.328125 C 21.875 -0.222656 17.597656 1.164062 12.703125 0.84375 L 2.5625 0.171875 Z M 11.015625 -6.4375 L 12.234375 -6.359375 C 15.160156 -6.171875 17.613281 -7 19.59375 -8.84375 C 21.570312 -10.6875 22.675781 -13.097656 22.90625 -16.078125 C 23.101562 -19.046875 22.335938 -21.582031 20.609375 -23.6875 C 18.890625 -25.789062 16.554688 -26.9375 13.609375 -27.125 L 12.390625 -27.203125 Z M 11.015625 -6.4375 "/></g></g></g><g fill="#f1aa1d" fill-opacity="1"><g transform="translate(176.724259, 223.190831)"><g><path d="M 22.40625 -35.28125 L 22.453125 -28.265625 L 10.359375 -28.1875 L 10.40625 -21.203125 L 21.984375 -21.28125 L 22.046875 -14.25 L 10.46875 -14.171875 L 10.515625 -7.109375 L 22.609375 -7.1875 L 22.65625 -0.15625 L 2.5625 -0.015625 L 2.3125 -35.140625 Z M 22.40625 -35.28125 "/></g></g></g><g fill="#f1aa1d" fill-opacity="1"><g transform="translate(201.949344, 222.843186)"><g/></g></g><g fill="#f1aa1d" fill-opacity="1"><g transform="translate(214.162914, 222.38028)"><g><path d="M -1.1875 -35.1875 L 9.640625 -36.359375 C 12.910156 -36.703125 15.59375 -36.28125 17.6875 -35.09375 C 19.789062 -33.90625 21.007812 -31.742188 21.34375 -28.609375 C 21.71875 -25.109375 20.535156 -22.457031 17.796875 -20.65625 C 22.847656 -20.3125 25.640625 -17.640625 26.171875 -12.640625 C 26.492188 -9.703125 25.734375 -7.238281 23.890625 -5.25 C 22.046875 -3.257812 19.34375 -2.070312 15.78125 -1.6875 L 2.546875 -0.265625 Z M 8.234375 -22.375 L 8.875 -22.4375 C 10.644531 -22.625 11.929688 -23.078125 12.734375 -23.796875 C 13.546875 -24.515625 13.875 -25.578125 13.71875 -26.984375 C 13.46875 -29.347656 11.582031 -30.34375 8.0625 -29.96875 L 7.421875 -29.90625 Z M 9.84375 -7.265625 L 12.34375 -7.53125 C 16.238281 -7.945312 18.046875 -9.453125 17.765625 -12.046875 C 17.597656 -13.597656 16.988281 -14.660156 15.9375 -15.234375 C 14.894531 -15.816406 13.398438 -16.003906 11.453125 -15.796875 L 8.953125 -15.53125 Z M 9.84375 -7.265625 "/></g></g></g><g fill="#f1aa1d" fill-opacity="1"><g transform="translate(243.360279, 219.408757)"><g><path d="M -2.390625 -17.4375 C -3.359375 -22.425781 -2.476562 -26.976562 0.25 -31.09375 C 2.976562 -35.21875 6.734375 -37.742188 11.515625 -38.671875 C 16.335938 -39.609375 20.765625 -38.679688 24.796875 -35.890625 C 28.835938 -33.109375 31.347656 -29.207031 32.328125 -24.1875 C 33.304688 -19.144531 32.472656 -14.582031 29.828125 -10.5 C 27.191406 -6.425781 23.40625 -3.90625 18.46875 -2.9375 C 13.425781 -1.957031 8.9375 -2.851562 5 -5.625 C 1.0625 -8.40625 -1.398438 -12.34375 -2.390625 -17.4375 Z M 6.09375 -19.09375 C 6.445312 -17.289062 7.046875 -15.695312 7.890625 -14.3125 C 8.742188 -12.925781 9.960938 -11.851562 11.546875 -11.09375 C 13.140625 -10.332031 14.953125 -10.148438 16.984375 -10.546875 C 19.910156 -11.117188 21.921875 -12.550781 23.015625 -14.84375 C 24.117188 -17.132812 24.394531 -19.703125 23.84375 -22.546875 C 23.300781 -25.367188 22.070312 -27.640625 20.15625 -29.359375 C 18.25 -31.085938 15.859375 -31.671875 12.984375 -31.109375 C 10.140625 -30.554688 8.144531 -29.117188 7 -26.796875 C 5.851562 -24.484375 5.550781 -21.914062 6.09375 -19.09375 Z M 6.09375 -19.09375 "/></g></g></g><g fill="#f1aa1d" fill-opacity="1"><g transform="translate(280.990323, 211.912749)"><g><path d="M 18.59375 -41.953125 L 24.90625 -20.1875 C 26.101562 -16.050781 25.890625 -12.597656 24.265625 -9.828125 C 22.648438 -7.054688 19.6875 -5.046875 15.375 -3.796875 C 11.070312 -2.546875 7.492188 -2.660156 4.640625 -4.140625 C 1.796875 -5.617188 -0.222656 -8.425781 -1.421875 -12.5625 L -7.734375 -34.328125 L -0.046875 -36.5625 L 5.609375 -17.0625 C 6.398438 -14.332031 7.378906 -12.554688 8.546875 -11.734375 C 9.710938 -10.921875 11.257812 -10.796875 13.1875 -11.359375 C 15.125 -11.921875 16.367188 -12.859375 16.921875 -14.171875 C 17.484375 -15.484375 17.367188 -17.503906 16.578125 -20.234375 L 10.921875 -39.734375 Z M 18.59375 -41.953125 "/></g></g></g><g fill="#f1aa1d" fill-opacity="1"><g transform="translate(312.290087, 202.781185)"><g><path d="M -10.078125 -33.75 L 1.65625 -38.203125 C 4.820312 -39.410156 7.71875 -39.546875 10.34375 -38.609375 C 12.96875 -37.679688 14.875 -35.65625 16.0625 -32.53125 C 16.976562 -30.113281 17.140625 -27.851562 16.546875 -25.75 C 15.960938 -23.65625 14.765625 -21.882812 12.953125 -20.4375 L 29.421875 -11.171875 L 19.90625 -7.5625 L 4.953125 -16.71875 L 9.875 -3.75 L 2.390625 -0.90625 Z M 2.9375 -22.015625 L 3.8125 -22.34375 C 4.5 -22.613281 5.078125 -22.847656 5.546875 -23.046875 C 6.015625 -23.253906 6.519531 -23.554688 7.0625 -23.953125 C 7.613281 -24.347656 8.019531 -24.757812 8.28125 -25.1875 C 8.539062 -25.625 8.695312 -26.171875 8.75 -26.828125 C 8.8125 -27.484375 8.6875 -28.207031 8.375 -29 C 8.070312 -29.800781 7.679688 -30.429688 7.203125 -30.890625 C 6.734375 -31.347656 6.257812 -31.648438 5.78125 -31.796875 C 5.300781 -31.953125 4.722656 -31.992188 4.046875 -31.921875 C 3.378906 -31.847656 2.800781 -31.734375 2.3125 -31.578125 C 1.820312 -31.421875 1.234375 -31.207031 0.546875 -30.9375 L -0.328125 -30.609375 Z M 2.9375 -22.015625 "/></g></g></g><g fill="#f1aa1d" fill-opacity="1"><g transform="translate(341.735162, 191.663042)"><g><path d="M 22.390625 -32.59375 L 25.703125 -25.734375 C 26.679688 -21.585938 26.253906 -17.882812 24.421875 -14.625 C 22.597656 -11.363281 19.984375 -8.910156 16.578125 -7.265625 C 12.304688 -5.210938 7.898438 -5.0625 3.359375 -6.8125 C -1.179688 -8.5625 -4.539062 -11.703125 -6.71875 -16.234375 C -8.9375 -20.828125 -9.335938 -25.414062 -7.921875 -30 C -6.515625 -34.59375 -3.613281 -37.945312 0.78125 -40.0625 C 5.925781 -42.539062 10.867188 -42.695312 15.609375 -40.53125 L 13.375 -33.09375 C 10.382812 -34.988281 7.375 -35.207031 4.34375 -33.75 C 2.125 -32.675781 0.691406 -30.796875 0.046875 -28.109375 C -0.585938 -25.421875 -0.25 -22.710938 1.0625 -19.984375 C 2.351562 -17.296875 4.242188 -15.375 6.734375 -14.21875 C 9.222656 -13.070312 11.578125 -13.035156 13.796875 -14.109375 C 15.640625 -14.992188 16.976562 -16.320312 17.8125 -18.09375 C 18.644531 -19.875 18.617188 -21.679688 17.734375 -23.515625 L 10.4375 -20 L 7.765625 -25.5625 Z M 22.390625 -32.59375 "/></g></g></g><path stroke-linecap="butt" transform="matrix(0.435814, 0.212057, -0.212057, 0.435814, 15.055545, 143.146323)" fill="none" stroke-linejoin="miter" d="M 43.83976 61.071343 C 46.359354 61.073315 48.800176 60.692348 51.173001 59.932165 C 53.549547 59.161208 55.291251 58.430257 56.409082 57.725011 L 58.061436 56.589379 L 65.093733 70.636733 C 64.864763 70.810886 64.541384 71.048903 64.130843 71.347257 C 63.713249 71.631116 62.759357 72.175925 61.276414 72.978158 C 59.793666 73.76237 58.192992 74.451589 56.496133 75.035236 C 54.792027 75.622409 52.562373 76.14263 49.799923 76.599425 C 47.055299 77.074435 44.219573 77.306954 41.289025 77.307754 C 34.548432 77.307068 28.171663 75.659404 22.133644 72.350072 C 16.099152 69.047988 11.235143 64.504141 7.548865 58.715004 C 3.862782 52.907847 2.012836 46.637498 2.017048 39.904153 C 2.014523 34.796408 3.094637 29.905816 5.257391 25.232374 C 7.431114 20.544633 10.318473 16.531447 13.922995 13.200065 C 17.520464 9.854188 21.726971 7.188947 26.531742 5.200621 C 31.336707 3.194274 36.256923 2.198459 41.285337 2.198682 C 45.974879 2.202455 50.294446 2.753737 54.243842 3.870549 C 58.200486 4.983835 60.99635 6.106215 62.628104 7.212422 L 65.093561 8.889948 L 58.060756 22.93323 C 57.657219 22.582831 57.045458 22.154488 56.210782 21.673273 C 55.401569 21.170706 53.764951 20.515022 51.304649 19.695446 C 48.840822 18.868623 46.354498 18.456086 43.834904 18.454115 C 39.848176 18.45793 36.279893 19.100672 33.115559 20.389395 C 29.958472 21.674591 27.45291 23.377746 25.613366 25.491808 C 23.76677 27.591374 22.350924 29.857799 21.38385 32.291275 C 20.424022 34.721226 19.943123 37.195998 19.948398 39.712065 C 19.946643 45.216269 22.009217 50.155212 26.121626 54.535946 C 30.255971 58.88808 36.15836 61.071313 43.83976 61.071343 Z M 43.83976 61.071343 " stroke="#c43302" stroke-width="3.294743" stroke-opacity="1" stroke-miterlimit="4"/><path stroke-linecap="butt" transform="matrix(0.454432, 0.168503, -0.168503, 0.454432, 41.509612, 156.449287)" fill="none" stroke-linejoin="miter" d="M 59.560918 18.023132 L 59.561589 32.420999 L 83.45586 32.414788 L 83.452371 46.917349 L 59.562854 46.9132 L 59.557159 61.502538 L 84.502265 61.502089 L 84.506333 76.001847 L 38.561082 76.001257 C 28.442124 75.996954 19.81583 72.576742 12.694512 65.727459 C 5.573193 58.878176 2.018547 50.242195 2.012657 39.817564 C 2.019078 29.379773 5.573361 20.720957 12.693423 13.84307 C 19.813484 6.965183 28.44055 3.525589 38.559508 3.529891 L 84.504759 3.530482 L 84.506025 18.022683 Z M 43.042449 18.28577 L 40.497384 18.283931 C 34.402608 18.28315 29.439779 20.33826 25.606093 24.441705 C 21.774361 28.527235 19.863284 33.619765 19.8597 39.706983 C 19.86342 45.860261 21.78115 50.985778 25.605332 55.086336 C 29.439873 59.191648 34.404531 61.244695 40.49175 61.248278 L 43.044372 61.247315 Z M 43.042449 18.28577 " stroke="#c43302" stroke-width="3.294743" stroke-opacity="1" stroke-miterlimit="4"/><path stroke-linecap="butt" transform="matrix(0.468649, 0.123574, -0.123574, 0.468649, 79.570494, 170.397118)" fill="none" stroke-linejoin="miter" d="M 60.976395 3.528703 L 60.980003 50.262867 C 60.974924 59.157798 58.574708 65.892011 53.771563 70.467562 C 48.964307 75.027526 41.938253 77.305259 32.687662 77.31061 C 23.435015 77.308168 16.407138 75.027061 11.604032 70.467291 C 6.796815 65.891935 4.395746 59.156791 4.393032 50.263915 L 4.397218 3.527696 L 20.908399 3.524943 L 20.906771 45.434443 C 20.907586 51.285494 21.829714 55.351612 23.675211 57.640589 C 25.520707 59.929567 28.522479 61.071806 32.690375 61.073047 C 36.848423 61.068549 39.848256 59.927472 41.695614 57.639969 C 43.542972 55.352465 44.462347 51.284214 44.461532 45.433163 L 44.463159 3.523663 Z M 60.976395 3.528703 " stroke="#c43302" stroke-width="3.294743" stroke-opacity="1" stroke-miterlimit="4"/><path stroke-linecap="butt" transform="matrix(0.477108, 0.0852664, -0.0852664, 0.477108, 108.201897, 178.007391)" fill="none" stroke-linejoin="miter" d="M 5.275381 3.52839 L 31.188885 3.531298 C 38.164137 3.529193 43.842697 5.38811 48.232501 9.106631 C 52.622304 12.825153 54.82307 18.130243 54.821766 25.040605 C 54.816558 30.371505 53.486794 34.842018 50.807253 38.448463 C 48.151515 42.050654 44.542395 44.57875 39.981312 46.040686 L 64.920255 76.003366 L 43.926774 75.997223 L 21.788772 47.36794 L 21.78851 75.999174 L 5.275276 76.002891 Z M 21.787144 35.676686 L 23.719109 35.675283 C 25.233682 35.674789 26.522694 35.649107 27.584729 35.590303 C 28.63883 35.532917 29.839692 35.334679 31.185899 34.987656 C 32.530689 34.632699 33.612781 34.13638 34.422825 33.492184 C 35.255252 32.835801 35.962393 31.890688 36.544248 30.656847 C 37.135455 29.429521 37.426828 27.944661 37.426302 26.200848 C 37.42294 24.441167 37.131151 22.945904 36.550937 21.715058 C 35.962788 20.48563 35.254818 19.547798 34.419092 18.902982 C 33.608586 18.261845 32.528055 17.759027 31.18685 17.401044 C 29.837711 17.044478 28.638776 16.841191 27.580692 16.784666 C 26.522609 16.728141 25.239539 16.695449 23.724966 16.695944 L 21.793001 16.697346 Z M 21.787144 35.676686 " stroke="#c43302" stroke-width="3.294743" stroke-opacity="1" stroke-miterlimit="4"/><path stroke-linecap="butt" transform="matrix(0.483614, 0.0319342, -0.0319342, 0.483614, 146.958715, 184.463923)" fill="none" stroke-linejoin="miter" d="M 5.277901 3.530452 L 26.270245 3.525478 C 36.342877 3.530765 44.94598 6.968978 52.096168 13.847095 C 59.246356 20.725213 62.820057 29.341856 62.818334 39.71311 C 62.819798 50.132616 59.264139 58.791937 52.142786 65.683561 C 45.020371 72.559101 36.395231 76.004128 26.274346 76.002028 L 5.273428 75.999491 Z M 21.79419 61.241941 L 24.34666 61.243016 C 30.364079 61.241454 35.286412 59.212129 39.121701 55.154508 C 42.96397 51.080272 44.919754 45.95941 44.972971 39.792984 C 44.978996 33.645828 43.058089 28.53056 39.225801 24.438075 C 35.392983 20.337549 30.435164 18.282149 24.344834 18.280448 L 21.792895 18.287415 Z M 21.79419 61.241941 " stroke="#c43302" stroke-width="3.294743" stroke-opacity="1" stroke-miterlimit="4"/><path stroke-linecap="butt" transform="matrix(0.484655, -0.00346717, 0.00346717, 0.484655, 176.460754, 186.357089)" fill="none" stroke-linejoin="miter" d="M 46.738459 3.530787 L 46.731448 18.030434 L 21.794232 18.029353 L 21.788029 32.416168 L 45.685517 32.417871 L 45.686566 46.917576 L 21.789078 46.915873 L 21.789492 61.504232 L 46.734825 61.497312 L 46.735873 75.997017 L 5.275915 75.998631 L 5.278558 3.524342 Z M 46.738459 3.530787 " stroke="#c43302" stroke-width="3.294743" stroke-opacity="1" stroke-miterlimit="4"/><path stroke-linecap="butt" transform="matrix(0.481919, -0.0515341, 0.0515341, 0.481919, 210.246319, 185.754408)" fill="none" stroke-linejoin="miter" d="M 5.279744 3.530203 L 27.756999 3.526447 C 34.540962 3.530492 39.962875 4.977585 44.013013 7.882898 C 48.05685 10.771326 50.083301 15.470427 50.077194 21.970473 C 50.078685 29.233258 47.059696 34.422236 41.029953 37.522235 C 51.340642 39.338104 56.492473 45.433253 56.495172 55.79251 C 56.491844 61.887572 54.388369 66.777276 50.167861 70.467921 C 45.947354 74.158567 40.149181 76.002643 32.773344 76.000151 L 5.278881 76.002361 Z M 21.787971 31.906228 L 23.10166 31.900806 C 26.78915 31.90606 29.541183 31.260098 31.356901 29.970936 C 33.171762 28.689787 34.078889 26.57396 34.083726 23.648352 C 34.083003 18.72817 30.422771 16.269832 23.095874 16.264468 L 21.790199 16.270746 Z M 21.790974 63.259045 L 26.96216 63.260845 C 35.051797 63.258612 39.10107 60.562857 39.101967 55.172722 C 39.097586 51.954327 38.087661 49.649711 36.057022 48.249145 C 34.036111 46.833408 31.007896 46.120516 26.962649 46.12564 L 21.791463 46.123839 Z M 21.790974 63.259045 " stroke="#c43302" stroke-width="3.294743" stroke-opacity="1" stroke-miterlimit="4"/><path stroke-linecap="butt" transform="matrix(0.475752, -0.0925322, 0.0925322, 0.475752, 236.327831, 183.251618)" fill="none" stroke-linejoin="miter" d="M 2.01512 39.70952 C 2.016528 29.232955 5.59077 20.354471 12.742679 13.091429 C 19.886678 5.826848 28.499392 2.197889 38.564999 2.201474 C 48.696974 2.201545 57.305367 5.813573 64.3871 13.053379 C 71.478282 20.286812 75.02174 29.17027 75.023845 39.713204 C 75.021552 50.320967 71.537631 59.24165 64.55472 66.480087 C 57.592249 73.697868 48.925694 77.308144 38.564505 77.304545 C 27.964653 77.30379 19.226818 73.724061 12.335177 66.562281 C 5.454525 59.386217 2.015019 50.432659 2.01512 39.70952 Z M 19.857498 39.706684 C 19.86192 43.525514 20.449392 47.006158 21.622991 50.132792 C 22.795051 53.267338 24.833883 55.913613 27.752232 58.090517 C 30.68157 60.253138 34.289593 61.332578 38.560477 61.325762 C 44.709239 61.331126 49.348333 59.220093 52.484131 55.002111 C 55.612018 50.78259 57.17831 45.684596 57.183006 39.708128 C 57.181766 33.804402 55.582144 28.731081 52.39359 24.481793 C 49.205036 20.232505 44.600439 18.113533 38.565514 18.113888 C 32.589047 18.109191 27.972148 20.232753 24.732181 24.479738 C 21.482763 28.733096 19.864169 33.804497 19.857498 39.706684 Z M 19.857498 39.706684 " stroke="#c43302" stroke-width="3.294743" stroke-opacity="1" stroke-miterlimit="4"/><path stroke-linecap="butt" transform="matrix(0.465524, -0.134868, 0.134868, 0.465524, 270.740348, 176.532922)" fill="none" stroke-linejoin="miter" d="M 60.974329 3.530847 L 60.978909 50.262105 C 60.978173 59.156438 58.573057 65.894144 53.765806 70.467483 C 48.96304 75.025338 41.940094 77.312111 32.685971 77.307831 C 23.439589 77.305795 16.405833 75.024687 11.600185 70.468994 C 6.801264 65.890076 4.396059 59.160071 4.396796 50.265738 L 4.394458 3.526738 L 20.907761 3.52793 L 20.909126 45.433386 C 20.909671 51.282127 21.836774 55.351881 23.674953 57.63816 C 25.520873 59.926682 28.52791 61.074763 32.682824 61.070178 C 36.845479 61.067835 39.853224 59.925356 41.698318 57.640499 C 43.53567 55.3534 44.462937 51.283851 44.462391 45.43511 L 44.461027 3.529654 Z M 60.974329 3.530847 " stroke="#c43302" stroke-width="3.294743" stroke-opacity="1" stroke-miterlimit="4"/><path stroke-linecap="butt" transform="matrix(0.453091, -0.172076, 0.172076, 0.453091, 299.212281, 168.346249)" fill="none" stroke-linejoin="miter" d="M 5.27931 3.525453 L 31.185701 3.527323 C 38.159659 3.529165 43.842935 5.385831 48.232669 9.104855 C 52.622403 12.823878 54.821691 18.133602 54.820137 25.038698 C 54.819491 30.375057 53.484854 34.842693 50.805831 38.446279 C 48.152273 42.050914 44.538221 44.575201 39.983419 46.035256 L 64.924804 76.000478 L 43.923675 75.999335 L 21.794396 47.369366 L 21.79244 76.000065 L 5.273008 76.002593 Z M 21.794289 35.6788 L 23.717729 35.676477 C 25.235536 35.675285 26.522344 35.646713 27.578153 35.590761 C 28.641497 35.53767 29.838467 35.337038 31.184132 34.994587 C 32.527985 34.634205 33.607367 34.130275 34.426949 33.493192 C 35.255116 32.833505 35.959972 31.88559 36.546189 30.659842 C 37.135267 29.426559 37.42354 27.941093 37.428936 26.201634 C 37.424986 24.441382 37.13223 22.942164 36.544946 21.719049 C 35.960524 20.488399 35.256968 19.548737 34.423882 18.904734 C 33.608728 18.258921 32.52976 17.762933 31.182305 17.406377 C 29.845246 17.045147 28.63961 16.837286 27.583327 16.780981 C 26.527045 16.724675 25.234802 16.699455 23.719856 16.693113 L 21.788882 16.692575 Z M 21.794289 35.6788 " stroke="#c43302" stroke-width="3.294743" stroke-opacity="1" stroke-miterlimit="4"/><path stroke-linecap="butt" transform="matrix(0.436704, -0.210218, 0.210218, 0.436704, 325.758586, 158.47354)" fill="none" stroke-linejoin="miter" d="M 70.795778 35.418978 L 70.80118 51.146619 C 68.922475 59.75063 64.831439 66.261025 58.510053 70.678073 C 52.188666 75.095121 45.131228 77.30627 37.341235 77.304258 C 27.561519 77.310487 19.226307 73.646978 12.328607 66.328256 C 5.459684 59.005496 2.014149 50.164192 2.013516 39.79681 C 2.013945 29.259987 5.38774 20.355962 12.120649 13.095762 C 18.857054 5.8283 27.259409 2.1983 37.341967 2.194734 C 49.111677 2.198283 58.420007 6.330226 65.263461 14.597824 L 54.475659 26.45373 C 50.601102 20.250366 45.215829 17.148178 38.30182 17.147434 C 33.21186 17.148146 28.865213 19.358252 25.265374 23.770491 C 21.66204 28.189993 19.86051 33.530506 19.860785 39.792031 C 19.863204 45.956195 21.658125 51.221088 25.267064 55.579179 C 28.865245 59.941036 33.216577 62.125104 38.306537 62.124393 C 42.520513 62.122413 46.199967 60.85236 49.330373 58.307242 C 52.46051 55.744104 54.024723 52.364558 54.026509 48.161339 L 37.343543 48.163059 L 37.339746 35.42377 Z M 70.795778 35.418978 " stroke="#c43302" stroke-width="3.294743" stroke-opacity="1" stroke-miterlimit="4"/></svg>