<svg xmlns="http://www.w3.org/2000/svg" xmlns:xlink="http://www.w3.org/1999/xlink" width="500" zoomAndPan="magnify" viewBox="0 0 375 374.999991" height="500" preserveAspectRatio="xMidYMid meet" version="1.0"><defs><g/><clipPath id="4fe6e722a8"><path d="M 68.097656 0.167969 L 316.347656 0.167969 L 316.347656 131.820312 L 68.097656 131.820312 Z M 68.097656 0.167969 " clip-rule="nonzero"/></clipPath><clipPath id="623c371b66"><path d="M 65.308594 0.167969 L 313.558594 0.167969 L 313.558594 131.820312 L 65.308594 131.820312 Z M 65.308594 0.167969 " clip-rule="nonzero"/></clipPath></defs><g clip-path="url(#4fe6e722a8)"><path fill="#bd2a2e" d="M 188.511719 0.167969 C 190.871094 2.207031 192.546875 4.96875 194.226562 7.546875 C 196.027344 10.125 197.703125 12.828125 199.382812 15.464844 C 199.191406 16.316406 198.574219 16.738281 198.503906 17.648438 C 198.558594 18.199219 198.019531 17.523438 198.015625 17.886719 C 197.867188 20.144531 198.570312 22.585938 198.539062 25.148438 C 206.902344 24.691406 216.066406 24.25 226.011719 24.304688 C 232.542969 24.378906 240.292969 24.46875 247.128906 24.359375 C 249.203125 24.324219 252.378906 24.117188 254.023438 24.625 C 254.082031 24.683594 265.703125 38.410156 266.726562 39.515625 C 267.210938 40.128906 268.171875 41.175781 268.042969 41.96875 C 267.84375 43.125 265.832031 43.160156 264.792969 43.394531 L 265.011719 66.859375 C 265.25 67.347656 265.980469 67.417969 266.464844 67.726562 C 266.167969 61.933594 267.199219 56.648438 268.597656 52.273438 C 271.65625 51.332031 272.417969 54.207031 272.941406 56.46875 C 273.808594 55.257812 274.988281 53.625 276.527344 52.121094 C 277.949219 50.675781 280.234375 48.628906 282.601562 49.628906 C 285.640625 50.824219 285.871094 57.285156 284.125 60.738281 C 286.992188 60.648438 291.125 62.097656 288.765625 65.664062 C 290.832031 66.605469 293.878906 66.640625 294.339844 68.960938 C 294.800781 71.585938 292.339844 73.019531 291.648438 75.085938 C 295.730469 75.558594 295.171875 81.765625 293.3125 84.304688 C 299.585938 90.59375 307.871094 96.964844 314.453125 103.320312 C 315.238281 104.058594 316.265625 104.921875 316.371094 106.140625 C 282.3125 90.640625 252.621094 50.933594 203.792969 56.710938 C 191.628906 58.21875 180.769531 63.335938 172.597656 68.179688 C 165.039062 72.785156 157.597656 77.757812 151.003906 83.53125 C 162.824219 90.128906 170.886719 94.972656 180.886719 101.179688 C 190.339844 107.078125 199.835938 114.316406 209.414062 120.09375 C 211.535156 121.335938 213.65625 122.582031 215.589844 124.125 C 216.199219 124.558594 217.046875 124.9375 217.222656 125.789062 C 213.996094 124.960938 211.085938 123.160156 208.117188 121.601562 C 187.429688 110.886719 139.371094 81.144531 120.492188 83 C 112.734375 83.703125 104.835938 85.929688 98.703125 88.355469 C 95.269531 89.660156 92.449219 91.148438 89.683594 93.007812 C 82.542969 97.980469 75.519531 104.179688 70.007812 110.882812 C 69.570312 111.425781 69.015625 112.332031 68.101562 112.140625 C 68.054688 110.796875 69.164062 109.714844 69.910156 108.808594 C 73.804688 104.097656 78.25 99.824219 82.996094 95.734375 C 84.84375 94.171875 86.515625 92.242188 88.363281 90.738281 C 95.882812 84.421875 104.730469 79.042969 116.289062 77.101562 C 116.171875 76.492188 115.261719 75.871094 114.96875 75.136719 C 114.078125 72.8125 114 69.09375 114.039062 65.617188 C 114.117188 58.855469 115.226562 52.652344 115.304688 45.828125 C 115.339844 42.660156 115.386719 38.699219 116.328125 36.332031 C 116.765625 35.363281 117.882812 33.488281 118.800781 33.375 C 121.613281 33.042969 121.539062 39.683594 121.691406 42.125 C 122.21875 49.625 122.566406 56.332031 123.03125 63.894531 C 123.285156 68.34375 124.554688 74.453125 121.542969 76.554688 C 123.132812 76.386719 124.902344 76.347656 126.730469 76.429688 C 123.042969 68.101562 124.460938 51.050781 125.148438 38.871094 C 125.371094 35.460938 125.199219 29.183594 127.703125 28.785156 C 131.007812 28.273438 131.601562 34.925781 131.9375 37.484375 C 133.292969 46.949219 133.484375 57.25 133.976562 67.554688 C 134.132812 69.628906 134.472656 72.007812 134.027344 73.644531 C 133.828125 74.621094 133.214844 74.980469 132.839844 75.765625 C 133.023438 76.136719 133.140625 76.5 133.195312 76.992188 C 138.1875 77.960938 142.5625 79.597656 146.757812 81.289062 C 147.609375 81.117188 147.925781 80.386719 148.660156 80.09375 C 148.117188 79.476562 148.066406 78.5625 147.710938 77.707031 C 147.472656 76.96875 146.871094 76.476562 146.695312 75.679688 C 146.351562 73.972656 146.3125 71.902344 146.152344 69.949219 C 145.992188 67.996094 145.769531 65.980469 145.792969 64.03125 C 145.84375 59.707031 145.960938 54.652344 146.191406 50.507812 C 146.347656 47.644531 146.191406 39.722656 148.699219 39.265625 C 151.882812 38.628906 151.996094 44.542969 152.273438 46.980469 C 152.660156 50.398438 152.875 53.328125 153.328125 56.195312 C 154.234375 62.421875 155.753906 68.167969 155.558594 74.324219 C 156.789062 73.847656 158.082031 72.523438 159.375 71.683594 C 158.714844 70.761719 158.78125 70.09375 158.679688 68.445312 C 158.484375 64.421875 157.921875 60.148438 157.972656 55.578125 C 158.023438 51.3125 157.890625 46.804688 157.945312 42.171875 C 158.019531 35.59375 158.035156 28.765625 158.902344 22.378906 C 159.171875 20.003906 159.507812 17.507812 161.761719 17.78125 C 164.628906 18.058594 165.40625 24.769531 165.925781 27.578125 C 166.613281 31.363281 167.109375 35.878906 167.554688 39.84375 C 168.488281 48.753906 169.679688 56.441406 169.640625 65.585938 C 171.84375 64.820312 173.9375 63.015625 176.207031 62.003906 C 176.214844 56.214844 175.488281 50.355469 175.375 44.320312 C 175.261719 43.347656 173.546875 44.054688 173.128906 43.136719 C 172.472656 41.851562 174.628906 40.109375 175.371094 39.324219 C 175.804688 38.839844 176.296875 38.300781 176.855469 37.695312 C 177.226562 37.210938 178.085938 36.492188 178.214844 36.003906 C 178.46875 35.09375 178.121094 33.445312 178.140625 32.101562 C 178.109375 29.238281 178.015625 26.679688 178.050781 23.875 C 178.0625 22.597656 177.652344 21.25 178.394531 20.222656 C 179.5625 19.6875 179.535156 22.066406 179.582031 23.285156 C 179.847656 26.703125 179.984375 30.847656 180.195312 33.773438 C 181.484375 32.996094 182.476562 31.667969 183.648438 30.398438 C 184.144531 29.855469 184.824219 29.195312 185.4375 28.65625 C 186.738281 27.449219 187.597656 26.546875 190.101562 26.632812 C 189.769531 23.828125 189.800781 20.78125 189.839844 17.675781 C 188.921875 17.417969 187.519531 17.585938 186.421875 17.511719 C 186.757812 20.199219 187.304688 25.75 183.660156 24.429688 C 181.832031 23.796875 182.492188 19.660156 182.148438 17.707031 C 180.503906 17.445312 178.480469 18.214844 177.386719 17.53125 C 177.703125 16.742188 178.199219 16.078125 178.632812 15.351562 C 181.5 10.449219 184.425781 5.242188 187.351562 0.277344 C 187.960938 0.46875 188.019531 0.46875 188.511719 0.167969 Z M 179.230469 16.574219 C 180.394531 16.40625 181.488281 16.664062 182.585938 16.554688 C 183.078125 16.5 183.570312 16.140625 184.054688 16.144531 C 184.421875 16.148438 184.847656 16.457031 185.273438 16.460938 C 186.738281 16.601562 188.269531 16.253906 189.976562 16.332031 C 189.300781 11.453125 188.253906 6.929688 187.207031 2.46875 C 184.769531 7.316406 181.789062 11.730469 179.230469 16.574219 Z M 242.777344 31.257812 C 240.988281 32.945312 239.5625 34.878906 237.953125 36.625 C 237.152344 37.472656 236.101562 38.617188 234.882812 38.542969 C 234.652344 37.320312 235.882812 36.238281 236.628906 35.332031 C 238.605469 32.855469 240.710938 30.441406 242.628906 28.148438 C 243.0625 27.667969 243.679688 27.125 243.621094 26.820312 C 241.546875 26.796875 239.472656 26.773438 237.457031 26.75 C 236.023438 29.535156 233.929688 30.972656 231.644531 33.507812 C 230.902344 34.355469 230.097656 35.5 229.292969 36.40625 C 228.734375 37.132812 227.308594 38.945312 226.457031 38.75 C 224.996094 38.429688 226.851562 36.074219 227.226562 35.527344 C 229.519531 32.449219 231.992188 29.671875 234.222656 26.894531 C 232.148438 26.871094 230.136719 26.847656 228.300781 27.070312 C 226.621094 29.613281 224.894531 31.359375 222.664062 33.953125 C 221.988281 34.738281 221 35.761719 220.257812 36.609375 C 219.640625 37.332031 218.394531 39.269531 217.421875 38.953125 C 216.390625 38.636719 217.261719 37.183594 217.570312 36.699219 C 219.746094 33.1875 222.957031 30.058594 224.941406 27.035156 C 223.292969 27.199219 221.28125 27.050781 219.449219 27.03125 C 218.640625 28.667969 217.46875 29.445312 216.234375 30.773438 C 214.753906 32.339844 213.386719 34.273438 211.964844 36.027344 C 211.40625 36.628906 210.164062 38.441406 209.375 38.25 C 208.339844 37.996094 209.273438 36.542969 209.519531 36.179688 C 211.757812 32.976562 214.476562 29.839844 216.523438 27.117188 C 214.933594 27.160156 213.347656 27.203125 211.699219 27.246094 C 209.585938 30.390625 206.628906 32.855469 204.335938 35.816406 C 203.59375 36.722656 202.96875 38.117188 201.683594 38.464844 C 200.65625 37.601562 201.953125 36.277344 202.449219 35.488281 C 204.066406 32.886719 206.164062 30.960938 207.835938 28.785156 C 208.144531 28.425781 208.699219 27.945312 208.582031 27.453125 C 206.8125 27.433594 205.226562 27.597656 203.574219 27.703125 C 202.886719 29.398438 201.777344 30.300781 200.601562 31.628906 C 199.054688 33.378906 197.570312 35.007812 196.027344 36.636719 C 195.285156 37.417969 194.476562 38.933594 193.203125 38.308594 C 193.089844 37.148438 194.078125 36.308594 194.757812 35.523438 C 196.492188 33.351562 198.226562 31.238281 199.835938 29.125 C 200.085938 28.761719 200.761719 28.402344 200.585938 27.851562 C 199.175781 28.015625 197.710938 28.0625 196.1875 28.046875 C 193.960938 30.820312 191.308594 33.167969 189.019531 35.761719 C 188.277344 36.609375 187.53125 37.757812 186.308594 37.988281 C 185.710938 37.003906 186.757812 35.980469 187.257812 35.316406 C 189.054688 32.777344 191.460938 30.550781 193.195312 28.191406 C 191.242188 28.292969 189.039062 28.632812 187.332031 28.675781 C 184.226562 33.148438 180.339844 36.824219 177.117188 41.113281 C 196.832031 40.914062 218.628906 40.429688 238.628906 41.695312 C 242.214844 37.710938 245.441406 33.054688 248.664062 28.828125 C 249.097656 28.285156 249.773438 27.621094 249.84375 26.890625 C 249.175781 26.640625 248.078125 26.8125 247.222656 26.738281 C 246.042969 28.675781 244.378906 29.8125 242.777344 31.257812 Z M 117.796875 73.097656 C 119.339844 71.53125 118.765625 68.660156 118.609375 66.34375 C 118.148438 58.71875 118.421875 50.496094 118.082031 43.117188 C 117.246094 52.433594 116.253906 64.246094 117.796875 73.097656 Z M 198.3125 60.976562 C 198.917969 61.472656 197.875 61.761719 197.816406 61.824219 C 191.976562 65.414062 186.070312 69.429688 180.890625 73.816406 C 179.046875 75.382812 165.894531 88.578125 164.675781 88.378906 C 158.707031 87.457031 174.40625 75.328125 174.65625 75.148438 C 179.269531 71.789062 184.558594 68.378906 189.714844 65.386719 C 192.542969 63.777344 195.433594 62.039062 198.3125 60.976562 Z M 295.738281 64.285156 C 296.839844 63.929688 297.257812 64.484375 297.3125 65.15625 C 297.40625 67.835938 293.226562 65.167969 295.738281 64.285156 Z M 222.316406 64.417969 C 222.367188 65.332031 221.386719 65.871094 220.828125 66.472656 C 216.753906 70.878906 212.609375 75.707031 208.828125 80.660156 C 204.429688 86.398438 201.421875 93.066406 197.566406 99.484375 C 198.632812 102.054688 191.171875 103.613281 192.078125 99.234375 C 192.269531 98.140625 193.019531 96.6875 193.207031 96.261719 C 198.46875 84.746094 208.082031 76.445312 216.539062 68.195312 C 217.957031 66.808594 219.6875 65.121094 221.21875 64.40625 C 221.34375 64.285156 222.019531 63.867188 222.316406 64.417969 Z M 211.515625 64.601562 C 210.523438 65.6875 209.292969 66.527344 208.125 67.488281 C 201.46875 72.835938 195.054688 79.101562 189.726562 85.988281 C 188.796875 87.132812 188.050781 88.40625 187.0625 89.488281 C 186.507812 90.089844 185.707031 90.511719 184.84375 91.292969 C 184.289062 91.832031 183.664062 93.109375 182.746094 93.15625 C 181.832031 93.207031 181.351562 92.59375 181.167969 92.222656 C 180.699219 90.878906 181.945312 88.640625 182.941406 87.125 C 183.933594 85.554688 185.230469 84.472656 186.214844 83.449219 C 190.539062 78.804688 195.847656 73.746094 200.710938 70.085938 C 203.296875 68.105469 206.066406 65.820312 209.011719 64.570312 C 209.8125 64.214844 210.847656 63.984375 211.515625 64.601562 Z M 234.925781 66.820312 C 234.914062 67.792969 233.871094 68.269531 233.3125 68.8125 C 226.769531 75.441406 221.835938 85.074219 217.703125 94.289062 C 216.949219 96.046875 216.199219 97.808594 215.566406 99.6875 C 214.617188 102.539062 214.039062 105.214844 212.484375 107.636719 C 211.988281 108.359375 211.550781 109.394531 210.574219 109.382812 C 208.257812 109.296875 209.78125 103.886719 210.160156 102.855469 C 212 96.539062 215.484375 90.851562 218.65625 85.644531 C 220.648438 82.378906 223.253906 78.628906 225.609375 75.546875 C 228.085938 72.40625 230.691406 68.722656 233.949219 66.808594 C 234.132812 66.6875 234.683594 66.449219 234.925781 66.820312 Z M 298.347656 70.894531 C 298.679688 73.886719 294.714844 73.597656 295.046875 71.285156 C 295.25 69.765625 297.566406 69.730469 298.347656 70.894531 Z M 244.019531 72.042969 C 246.160156 71.699219 244.359375 74.117188 243.863281 74.902344 C 240.3125 81.140625 237.75 86.414062 234.796875 93.632812 C 233.292969 97.390625 231.96875 101.035156 230.9375 105.652344 C 230.167969 108.875 229.347656 111.425781 228.328125 115.007812 C 227.949219 116.222656 227.75 117.5 226.714844 117.546875 C 224.394531 117.765625 224.746094 113.503906 224.894531 111.3125 C 225.46875 103.703125 228.164062 97.394531 230.664062 92.179688 C 233.230469 86.664062 236.527344 81.277344 239.878906 76.441406 C 240.746094 75.234375 242.550781 72.207031 244.019531 72.042969 Z M 257.867188 77.683594 C 260.007812 77.34375 258.394531 79.640625 258.082031 80.1875 C 254.59375 86.421875 252.253906 93.710938 249.613281 100.566406 C 247.285156 106.628906 245.566406 112.886719 243.65625 119.449219 C 243.46875 120.054688 237.957031 137.726562 237.226562 126.625 C 237.125 124.796875 237.628906 123.648438 237.824219 122.613281 C 239.320312 114.644531 241.230469 107.597656 244.050781 101.171875 C 246.742188 95.046875 249.933594 88.5625 253.476562 82.875 C 254.410156 81.300781 256.15625 78.03125 257.867188 77.683594 Z M 270.71875 85.511719 C 270.691406 87.582031 269.453125 89.214844 268.640625 91.03125 C 266.378906 96.550781 264.664062 102.199219 262.34375 107.78125 C 259.769531 114.027344 256.652344 119.902344 254.738281 127.132812 C 254.359375 128.410156 254.222656 129.503906 253.425781 129.613281 C 251.472656 129.898438 251.933594 126.855469 252.132812 125.457031 C 252.59375 122.660156 253.417969 119.683594 254.117188 117.4375 C 255.324219 113.304688 256.53125 109.113281 258.097656 105.535156 C 260.476562 100.203125 263.042969 94.683594 265.972656 89.660156 C 266.964844 88.027344 268.59375 84.453125 270.71875 85.511719 Z M 119.835938 86.953125 C 112.402344 91.5 99.460938 102.441406 93.457031 109.503906 C 92.222656 110.953125 90.980469 112.585938 89.742188 114.03125 C 88.199219 115.84375 82.167969 125.585938 78.574219 124.507812 C 76.570312 123.875 77.152344 120.898438 77.90625 119.078125 C 78.28125 118.289062 79.148438 117.261719 79.828125 116.296875 C 84.542969 110.015625 89.550781 104.460938 95.765625 99.78125 C 99.398438 96.957031 102.96875 94.5 106.65625 92.105469 C 109.484375 90.25 119.316406 84.449219 119.835938 86.953125 Z M 134.882812 89.199219 C 134.570312 90.230469 119.460938 103.707031 118.476562 104.488281 C 113.175781 108.9375 108.664062 114.125 104.085938 119.378906 C 102.972656 120.640625 101.859375 121.972656 100.863281 123.542969 C 99.933594 124.996094 99.058594 126.875 97.945312 127.835938 C 97.144531 128.5 94.875 129.691406 93.71875 129.25 C 92.199219 128.625 93.292969 123.886719 93.917969 122.613281 C 95.542969 119.097656 99.066406 115.359375 101.96875 112.285156 C 103.515625 110.65625 104.933594 109.148438 106.597656 107.765625 C 110.542969 104.519531 129.078125 90.109375 133.121094 88.875 C 133.546875 88.753906 134.769531 88.585938 134.882812 89.199219 Z M 149.296875 93.503906 C 149.347656 94.726562 148.179688 95.199219 147.503906 95.738281 C 137.515625 104.644531 124.40625 124.972656 118.492188 129.535156 C 118 129.953125 117.445312 130.558594 116.953125 130.859375 C 115.664062 131.636719 113.210938 132.644531 112.378906 130.6875 C 111.78125 129.398438 112.605469 126.96875 113.042969 125.941406 C 114.546875 122.664062 134.855469 102.726562 137.996094 100.140625 C 140.890625 97.796875 144.347656 94.300781 147.898438 93.1875 C 148.265625 93.066406 149.0625 92.894531 149.296875 93.503906 Z M 159.976562 99.054688 C 160.648438 99 161.136719 99.003906 161.253906 99.554688 C 161.425781 100.53125 159.828125 101.367188 159.644531 101.550781 C 155.269531 105.214844 151.128906 109.675781 147.421875 113.65625 C 144.019531 117.335938 135.644531 129.550781 133.613281 130.929688 C 132.261719 131.828125 129.691406 132.34375 129.226562 130.085938 C 128.015625 124.160156 149.207031 106.789062 151.492188 104.746094 C 153.582031 102.941406 156.730469 99.992188 159.671875 99.050781 C 159.734375 98.988281 159.914062 99.054688 159.976562 99.054688 Z M 277.003906 101.550781 C 277.207031 104.78125 275.597656 106.773438 274.289062 109.074219 C 273.726562 110.105469 273.230469 111.191406 272.480469 112.464844 C 271.921875 113.433594 271.289062 115.316406 270.191406 115.363281 C 269.394531 115.414062 268.488281 114.675781 268.378906 113.699219 C 268.160156 111.5625 269.648438 109.382812 270.773438 107.144531 C 272.148438 104.476562 273.152344 101.929688 275.542969 101.105469 C 276.03125 100.867188 276.703125 101.117188 277.003906 101.550781 Z M 167.128906 114.0625 C 165.890625 115.636719 164.472656 116.773438 163.417969 118.289062 C 162.300781 119.859375 161.304688 121.492188 160.25 123.066406 C 159.132812 124.636719 158.382812 126.578125 157.265625 127.90625 C 156.277344 129.117188 154.621094 129.828125 152.550781 129.316406 C 151.394531 128.996094 150.539062 128.929688 150.371094 127.523438 C 150.214844 125.449219 152.007812 123.277344 153.0625 121.949219 C 155.414062 118.988281 158.4375 116.21875 161.273438 113.691406 C 163.925781 111.347656 175.984375 102.953125 167.128906 114.0625 Z M 181.726562 118.3125 C 182.519531 118.140625 183.070312 118.269531 183.308594 118.757812 C 183.367188 118.878906 179.859375 126.824219 179.359375 127.734375 C 178.613281 129.003906 176.878906 131.363281 174.625 130.785156 C 172.558594 130.273438 173.019531 127.234375 173.957031 125.476562 C 174.332031 124.75 181.113281 118.429688 181.726562 118.3125 Z M 177.820312 44.046875 C 177.695312 44.105469 177.570312 44.164062 177.570312 44.347656 C 178.242188 49.535156 178.605469 55.085938 179.09375 60.453125 C 184.0625 58.070312 189.460938 55.816406 195.703125 54.304688 C 208.308594 51.339844 226.546875 52.15625 238.957031 55.773438 C 238.875 52.238281 238.730469 48.824219 238.589844 45.347656 C 233.882812 45.722656 229.496094 45.183594 224.734375 45.070312 C 225.441406 47.574219 224.253906 49.9375 222 49.546875 C 220.292969 49.222656 220.257812 47.210938 220.34375 44.957031 C 215.832031 44.722656 211.316406 44.550781 206.617188 44.496094 C 206.289062 46.566406 205.953125 49.304688 203.878906 49.21875 C 202.050781 49.136719 201.773438 46.574219 202.039062 44.445312 C 198.324219 44.15625 194.171875 44.292969 190.265625 44.183594 C 191.09375 46.328125 191.21875 51.570312 188.125 50.195312 C 186.605469 49.507812 187.128906 46.40625 186.972656 44.148438 C 183.921875 44.113281 180.867188 44.078125 177.820312 44.046875 " fill-opacity="1" fill-rule="evenodd"/></g><g clip-path="url(#623c371b66)"><path fill="#229999" d="M 185.722656 0.167969 C 188.078125 2.207031 189.753906 4.96875 191.4375 7.546875 C 193.238281 10.125 194.914062 12.828125 196.59375 15.464844 C 196.398438 16.316406 195.785156 16.738281 195.714844 17.648438 C 195.769531 18.199219 195.226562 17.523438 195.222656 17.886719 C 195.074219 20.144531 195.777344 22.585938 195.75 25.148438 C 204.113281 24.691406 213.277344 24.25 223.222656 24.304688 C 229.753906 24.378906 237.5 24.46875 244.335938 24.359375 C 246.414062 24.324219 249.585938 24.117188 251.230469 24.625 C 251.289062 24.683594 262.910156 38.410156 263.9375 39.515625 C 264.417969 40.128906 265.382812 41.175781 265.25 41.96875 C 265.054688 43.125 263.039062 43.160156 262 43.394531 L 262.21875 66.859375 C 262.457031 67.347656 263.191406 67.417969 263.675781 67.726562 C 263.375 61.933594 264.410156 56.648438 265.804688 52.273438 C 268.867188 51.332031 269.625 54.207031 270.152344 56.46875 C 271.019531 55.257812 272.199219 53.625 273.738281 52.121094 C 275.160156 50.675781 277.441406 48.628906 279.8125 49.628906 C 282.847656 50.824219 283.078125 57.285156 281.332031 60.738281 C 284.199219 60.648438 288.335938 62.097656 285.972656 65.664062 C 288.039062 66.605469 291.089844 66.640625 291.550781 68.960938 C 292.007812 71.585938 289.550781 73.019531 288.859375 75.085938 C 292.9375 75.558594 292.378906 81.765625 290.519531 84.304688 C 296.792969 90.59375 305.082031 96.964844 311.664062 103.320312 C 312.445312 104.058594 313.472656 104.921875 313.582031 106.140625 C 279.523438 90.640625 249.832031 50.933594 201.003906 56.710938 C 188.839844 58.21875 177.980469 63.335938 169.808594 68.179688 C 162.25 72.785156 154.804688 77.757812 148.210938 83.53125 C 160.035156 90.128906 168.097656 94.972656 178.097656 101.179688 C 187.546875 107.078125 197.046875 114.316406 206.621094 120.09375 C 208.742188 121.335938 210.867188 122.582031 212.800781 124.125 C 213.40625 124.558594 214.253906 124.9375 214.429688 125.789062 C 211.207031 124.960938 208.296875 123.160156 205.324219 121.601562 C 184.636719 110.886719 136.578125 81.144531 117.699219 83 C 109.945312 83.703125 102.042969 85.929688 95.914062 88.355469 C 92.480469 89.660156 89.65625 91.148438 86.890625 93.007812 C 79.753906 97.980469 72.726562 104.179688 67.214844 110.882812 C 66.78125 111.425781 66.222656 112.332031 65.3125 112.140625 C 65.261719 110.796875 66.375 109.714844 67.117188 108.808594 C 71.015625 104.097656 75.457031 99.824219 80.207031 95.734375 C 82.054688 94.171875 83.722656 92.242188 85.574219 90.738281 C 93.089844 84.421875 101.941406 79.042969 113.496094 77.101562 C 113.382812 76.492188 112.472656 75.871094 112.179688 75.136719 C 111.289062 72.8125 111.207031 69.09375 111.25 65.617188 C 111.328125 58.855469 112.4375 52.652344 112.515625 45.828125 C 112.550781 42.660156 112.59375 38.699219 113.539062 36.332031 C 113.976562 35.363281 115.09375 33.488281 116.011719 33.375 C 118.824219 33.042969 118.746094 39.683594 118.902344 42.125 C 119.425781 49.625 119.777344 56.332031 120.242188 63.894531 C 120.492188 68.34375 121.765625 74.453125 118.75 76.554688 C 120.339844 76.386719 122.109375 76.347656 123.941406 76.429688 C 120.253906 68.101562 121.667969 51.050781 122.359375 38.871094 C 122.582031 35.460938 122.40625 29.183594 124.914062 28.785156 C 128.214844 28.273438 128.8125 34.925781 129.148438 37.484375 C 130.503906 46.949219 130.691406 57.25 131.183594 67.554688 C 131.34375 69.628906 131.683594 72.007812 131.234375 73.644531 C 131.039062 74.621094 130.425781 74.980469 130.050781 75.765625 C 130.230469 76.136719 130.351562 76.5 130.402344 76.992188 C 135.394531 77.960938 139.773438 79.597656 143.964844 81.289062 C 144.820312 81.117188 145.132812 80.386719 145.867188 80.09375 C 145.328125 79.476562 145.277344 78.5625 144.921875 77.707031 C 144.683594 76.96875 144.078125 76.476562 143.90625 75.679688 C 143.558594 73.972656 143.519531 71.902344 143.363281 69.949219 C 143.199219 67.996094 142.980469 65.980469 143.003906 64.03125 C 143.050781 59.707031 143.171875 54.652344 143.402344 50.507812 C 143.554688 47.644531 143.402344 39.722656 145.910156 39.265625 C 149.089844 38.628906 149.207031 44.542969 149.484375 46.980469 C 149.871094 50.398438 150.082031 53.328125 150.539062 56.195312 C 151.445312 62.421875 152.964844 68.167969 152.769531 74.324219 C 153.996094 73.847656 155.292969 72.523438 156.585938 71.683594 C 155.921875 70.761719 155.992188 70.09375 155.890625 68.445312 C 155.691406 64.421875 155.128906 60.148438 155.183594 55.578125 C 155.230469 51.3125 155.097656 46.804688 155.152344 42.171875 C 155.230469 35.59375 155.246094 28.765625 156.113281 22.378906 C 156.382812 20.003906 156.71875 17.507812 158.972656 17.78125 C 161.839844 18.058594 162.617188 24.769531 163.132812 27.578125 C 163.820312 31.363281 164.320312 35.878906 164.761719 39.84375 C 165.699219 48.753906 166.890625 56.441406 166.847656 65.585938 C 169.050781 64.820312 171.148438 63.015625 173.417969 62.003906 C 173.421875 56.214844 172.695312 50.355469 172.585938 44.320312 C 172.472656 43.347656 170.753906 44.054688 170.339844 43.136719 C 169.679688 41.851562 171.835938 40.109375 172.582031 39.324219 C 173.011719 38.839844 173.507812 38.300781 174.0625 37.695312 C 174.4375 37.210938 175.296875 36.492188 175.421875 36.003906 C 175.679688 35.09375 175.332031 33.445312 175.347656 32.101562 C 175.320312 29.238281 175.226562 26.679688 175.257812 23.875 C 175.273438 22.597656 174.863281 21.25 175.605469 20.222656 C 176.773438 19.6875 176.746094 22.066406 176.789062 23.285156 C 177.058594 26.703125 177.191406 30.847656 177.40625 33.773438 C 178.695312 32.996094 179.683594 31.667969 180.859375 30.398438 C 181.351562 29.855469 182.03125 29.195312 182.648438 28.65625 C 183.945312 27.449219 184.808594 26.546875 187.308594 26.632812 C 186.976562 23.828125 187.011719 20.78125 187.046875 17.675781 C 186.132812 17.417969 184.730469 17.585938 183.628906 17.511719 C 183.964844 20.199219 184.511719 25.75 180.867188 24.429688 C 179.042969 23.796875 179.699219 19.660156 179.355469 17.707031 C 177.710938 17.445312 175.6875 18.214844 174.597656 17.53125 C 174.914062 16.742188 175.410156 16.078125 175.84375 15.351562 C 178.707031 10.449219 181.636719 5.242188 184.5625 0.277344 C 185.167969 0.46875 185.230469 0.46875 185.722656 0.167969 Z M 176.441406 16.574219 C 177.601562 16.40625 178.699219 16.664062 179.796875 16.554688 C 180.285156 16.5 180.777344 16.140625 181.265625 16.144531 C 181.632812 16.148438 182.058594 16.457031 182.484375 16.460938 C 183.949219 16.601562 185.476562 16.253906 187.183594 16.332031 C 186.511719 11.453125 185.460938 6.929688 184.414062 2.46875 C 181.976562 7.316406 179 11.730469 176.441406 16.574219 Z M 239.984375 31.257812 C 238.199219 32.945312 236.769531 34.878906 235.164062 36.625 C 234.363281 37.472656 233.3125 38.617188 232.089844 38.542969 C 231.859375 37.320312 233.09375 36.238281 233.835938 35.332031 C 235.816406 32.855469 237.917969 30.441406 239.839844 28.148438 C 240.269531 27.667969 240.890625 27.125 240.832031 26.820312 C 238.753906 26.796875 236.679688 26.773438 234.667969 26.75 C 233.230469 29.535156 231.140625 30.972656 228.851562 33.507812 C 228.113281 34.355469 227.304688 35.5 226.5 36.40625 C 225.945312 37.132812 224.519531 38.945312 223.667969 38.75 C 222.207031 38.429688 224.0625 36.074219 224.4375 35.527344 C 226.730469 32.449219 229.203125 29.671875 231.429688 26.894531 C 229.355469 26.871094 227.34375 26.847656 225.507812 27.070312 C 223.832031 29.613281 222.101562 31.359375 219.875 33.953125 C 219.195312 34.738281 218.207031 35.761719 217.464844 36.609375 C 216.847656 37.332031 215.605469 39.269531 214.632812 38.953125 C 213.597656 38.636719 214.46875 37.183594 214.78125 36.699219 C 216.957031 33.1875 220.167969 30.058594 222.152344 27.035156 C 220.503906 27.199219 218.492188 27.050781 216.660156 27.03125 C 215.847656 28.667969 214.679688 29.445312 213.445312 30.773438 C 211.960938 32.339844 210.597656 34.273438 209.175781 36.027344 C 208.617188 36.628906 207.375 38.441406 206.585938 38.25 C 205.550781 37.996094 206.484375 36.542969 206.730469 36.179688 C 208.964844 32.976562 211.683594 29.839844 213.730469 27.117188 C 212.140625 27.160156 210.554688 27.203125 208.90625 27.246094 C 206.796875 30.390625 203.839844 32.855469 201.546875 35.816406 C 200.804688 36.722656 200.179688 38.117188 198.890625 38.464844 C 197.867188 37.601562 199.160156 36.277344 199.660156 35.488281 C 201.273438 32.886719 203.375 30.960938 205.046875 28.785156 C 205.355469 28.425781 205.910156 27.945312 205.792969 27.453125 C 204.023438 27.433594 202.433594 27.597656 200.785156 27.703125 C 200.09375 29.398438 198.984375 30.300781 197.8125 31.628906 C 196.265625 33.378906 194.78125 35.007812 193.238281 36.636719 C 192.496094 37.417969 191.683594 38.933594 190.414062 38.308594 C 190.300781 37.148438 191.289062 36.308594 191.96875 35.523438 C 193.703125 33.351562 195.4375 31.238281 197.046875 29.125 C 197.296875 28.761719 197.972656 28.402344 197.792969 27.851562 C 196.386719 28.015625 194.921875 28.0625 193.394531 28.046875 C 191.167969 30.820312 188.515625 33.167969 186.230469 35.761719 C 185.488281 36.609375 184.742188 37.757812 183.519531 37.988281 C 182.921875 37.003906 183.96875 35.980469 184.464844 35.316406 C 186.265625 32.777344 188.671875 30.550781 190.402344 28.191406 C 188.453125 28.292969 186.25 28.632812 184.542969 28.675781 C 181.4375 33.148438 177.550781 36.824219 174.328125 41.113281 C 194.042969 40.914062 215.835938 40.429688 235.839844 41.695312 C 239.425781 37.710938 242.648438 33.054688 245.871094 28.828125 C 246.308594 28.285156 246.984375 27.621094 247.054688 26.890625 C 246.386719 26.640625 245.289062 26.8125 244.433594 26.738281 C 243.25 28.675781 241.589844 29.8125 239.984375 31.257812 Z M 115.007812 73.097656 C 116.550781 71.53125 115.972656 68.660156 115.816406 66.34375 C 115.355469 58.71875 115.632812 50.496094 115.292969 43.117188 C 114.453125 52.433594 113.460938 64.246094 115.007812 73.097656 Z M 195.523438 60.976562 C 196.125 61.472656 195.085938 61.761719 195.023438 61.824219 C 189.183594 65.414062 183.277344 69.429688 178.101562 73.816406 C 176.257812 75.382812 163.105469 88.578125 161.886719 88.378906 C 155.917969 87.457031 171.617188 75.328125 171.863281 75.148438 C 176.476562 71.789062 181.765625 68.378906 186.925781 65.386719 C 189.753906 63.777344 192.640625 62.039062 195.523438 60.976562 Z M 292.949219 64.285156 C 294.050781 63.929688 294.46875 64.484375 294.523438 65.15625 C 294.613281 67.835938 290.433594 65.167969 292.949219 64.285156 Z M 219.527344 64.417969 C 219.578125 65.332031 218.597656 65.871094 218.039062 66.472656 C 213.960938 70.878906 209.816406 75.707031 206.039062 80.660156 C 201.640625 86.398438 198.628906 93.066406 194.773438 99.484375 C 195.84375 102.054688 188.378906 103.613281 189.285156 99.234375 C 189.480469 98.140625 190.230469 96.6875 190.417969 96.261719 C 195.675781 84.746094 205.289062 76.445312 213.746094 68.195312 C 215.167969 66.808594 216.894531 65.121094 218.429688 64.40625 C 218.554688 64.285156 219.230469 63.867188 219.527344 64.417969 Z M 208.722656 64.601562 C 207.734375 65.6875 206.503906 66.527344 205.332031 67.488281 C 198.679688 72.835938 192.261719 79.101562 186.9375 85.988281 C 186.007812 87.132812 185.261719 88.40625 184.269531 89.488281 C 183.714844 90.089844 182.914062 90.511719 182.054688 91.292969 C 181.5 91.832031 180.871094 93.109375 179.957031 93.15625 C 179.039062 93.207031 178.5625 92.59375 178.378906 92.222656 C 177.90625 90.878906 179.15625 88.640625 180.148438 87.125 C 181.144531 85.554688 182.4375 84.472656 183.425781 83.449219 C 187.75 78.804688 193.058594 73.746094 197.917969 70.085938 C 200.503906 68.105469 203.277344 65.820312 206.222656 64.570312 C 207.019531 64.214844 208.058594 63.984375 208.722656 64.601562 Z M 232.132812 66.820312 C 232.121094 67.792969 231.078125 68.269531 230.523438 68.8125 C 223.976562 75.441406 219.046875 85.074219 214.914062 94.289062 C 214.160156 96.046875 213.40625 97.808594 212.777344 99.6875 C 211.828125 102.539062 211.25 105.214844 209.695312 107.636719 C 209.199219 108.359375 208.761719 109.394531 207.785156 109.382812 C 205.464844 109.296875 206.992188 103.886719 207.371094 102.855469 C 209.210938 96.539062 212.695312 90.851562 215.867188 85.644531 C 217.859375 82.378906 220.460938 78.628906 222.820312 75.546875 C 225.296875 72.40625 227.898438 68.722656 231.15625 66.808594 C 231.339844 66.6875 231.894531 66.449219 232.132812 66.820312 Z M 295.554688 70.894531 C 295.890625 73.886719 291.925781 73.597656 292.257812 71.285156 C 292.457031 69.765625 294.773438 69.730469 295.554688 70.894531 Z M 241.226562 72.042969 C 243.367188 71.699219 241.570312 74.117188 241.074219 74.902344 C 237.523438 81.140625 234.960938 86.414062 232.007812 93.632812 C 230.5 97.390625 229.179688 101.035156 228.148438 105.652344 C 227.378906 108.875 226.554688 111.425781 225.539062 115.007812 C 225.160156 116.222656 224.960938 117.5 223.925781 117.546875 C 221.601562 117.765625 221.957031 113.503906 222.101562 111.3125 C 222.679688 103.703125 225.375 97.394531 227.875 92.179688 C 230.4375 86.664062 233.738281 81.277344 237.085938 76.441406 C 237.957031 75.234375 239.757812 72.207031 241.226562 72.042969 Z M 255.078125 77.683594 C 257.21875 77.34375 255.601562 79.640625 255.292969 80.1875 C 251.804688 86.421875 249.460938 93.710938 246.820312 100.566406 C 244.492188 106.628906 242.773438 112.886719 240.867188 119.449219 C 240.675781 120.054688 235.164062 137.726562 234.4375 126.625 C 234.335938 124.796875 234.835938 123.648438 235.03125 122.613281 C 236.527344 114.644531 238.441406 107.597656 241.257812 101.171875 C 243.953125 95.046875 247.140625 88.5625 250.683594 82.875 C 251.617188 81.300781 253.363281 78.03125 255.078125 77.683594 Z M 267.925781 85.511719 C 267.902344 87.582031 266.664062 89.214844 265.847656 91.03125 C 263.589844 96.550781 261.875 102.199219 259.554688 107.78125 C 256.980469 114.027344 253.859375 119.902344 251.945312 127.132812 C 251.566406 128.410156 251.433594 129.503906 250.636719 129.613281 C 248.679688 129.898438 249.144531 126.855469 249.34375 125.457031 C 249.800781 122.660156 250.628906 119.683594 251.328125 117.4375 C 252.53125 113.304688 253.742188 109.113281 255.308594 105.535156 C 257.6875 100.203125 260.25 94.683594 263.179688 89.660156 C 264.171875 88.027344 265.800781 84.453125 267.925781 85.511719 Z M 117.046875 86.953125 C 109.609375 91.5 96.667969 102.441406 90.667969 109.503906 C 89.429688 110.953125 88.191406 112.585938 86.953125 114.03125 C 85.40625 115.84375 79.378906 125.585938 75.785156 124.507812 C 73.78125 123.875 74.363281 120.898438 75.117188 119.078125 C 75.492188 118.289062 76.359375 117.261719 77.039062 116.296875 C 81.75 110.015625 86.757812 104.460938 92.972656 99.78125 C 96.609375 96.957031 100.175781 94.5 103.867188 92.105469 C 106.695312 90.25 116.523438 84.449219 117.046875 86.953125 Z M 132.09375 89.199219 C 131.777344 90.230469 116.667969 103.707031 115.6875 104.488281 C 110.386719 108.9375 105.871094 114.125 101.292969 119.378906 C 100.179688 120.640625 99.070312 121.972656 98.074219 123.542969 C 97.140625 124.996094 96.265625 126.875 95.15625 127.835938 C 94.355469 128.5 92.082031 129.691406 90.929688 129.25 C 89.410156 128.625 90.503906 123.886719 91.125 122.613281 C 92.753906 119.097656 96.277344 115.359375 99.179688 112.285156 C 100.722656 110.65625 102.144531 109.148438 103.808594 107.765625 C 107.75 104.519531 126.285156 90.109375 130.328125 88.875 C 130.757812 88.753906 131.980469 88.585938 132.09375 89.199219 Z M 146.507812 93.503906 C 146.554688 94.726562 145.390625 95.199219 144.714844 95.738281 C 134.722656 104.644531 121.617188 124.972656 115.703125 129.535156 C 115.210938 129.953125 114.652344 130.558594 114.164062 130.859375 C 112.871094 131.636719 110.417969 132.644531 109.585938 130.6875 C 108.992188 129.398438 109.8125 126.96875 110.25 125.941406 C 111.753906 122.664062 132.0625 102.726562 135.203125 100.140625 C 138.097656 97.796875 141.558594 94.300781 145.109375 93.1875 C 145.476562 93.066406 146.269531 92.894531 146.507812 93.503906 Z M 157.1875 99.054688 C 157.855469 99 158.347656 99.003906 158.460938 99.554688 C 158.632812 100.53125 157.035156 101.367188 156.851562 101.550781 C 152.476562 105.214844 148.335938 109.675781 144.628906 113.65625 C 141.230469 117.335938 132.851562 129.550781 130.824219 130.929688 C 129.472656 131.828125 126.902344 132.34375 126.4375 130.085938 C 125.222656 124.160156 146.417969 106.789062 148.699219 104.746094 C 150.792969 102.941406 153.941406 99.992188 156.878906 99.050781 C 156.941406 98.988281 157.125 99.054688 157.1875 99.054688 Z M 274.210938 101.550781 C 274.417969 104.78125 272.808594 106.773438 271.5 109.074219 C 270.9375 110.105469 270.4375 111.191406 269.691406 112.464844 C 269.128906 113.433594 268.5 115.316406 267.402344 115.363281 C 266.605469 115.414062 265.699219 114.675781 265.589844 113.699219 C 265.371094 111.5625 266.859375 109.382812 267.980469 107.144531 C 269.355469 104.476562 270.363281 101.929688 272.75 101.105469 C 273.242188 100.867188 273.910156 101.117188 274.210938 101.550781 Z M 164.335938 114.0625 C 163.097656 115.636719 161.679688 116.773438 160.625 118.289062 C 159.507812 119.859375 158.515625 121.492188 157.460938 123.066406 C 156.34375 124.636719 155.589844 126.578125 154.476562 127.90625 C 153.484375 129.117188 151.828125 129.828125 149.757812 129.316406 C 148.601562 128.996094 147.75 128.929688 147.582031 127.523438 C 147.421875 125.449219 149.21875 123.277344 150.273438 121.949219 C 152.625 118.988281 155.644531 116.21875 158.484375 113.691406 C 161.136719 111.347656 173.195312 102.953125 164.335938 114.0625 Z M 178.9375 118.3125 C 179.730469 118.140625 180.28125 118.269531 180.519531 118.757812 C 180.578125 118.878906 177.066406 126.824219 176.570312 127.734375 C 175.820312 129.003906 174.085938 131.363281 171.835938 130.785156 C 169.765625 130.273438 170.226562 127.234375 171.164062 125.476562 C 171.539062 124.75 178.320312 118.429688 178.9375 118.3125 Z M 175.027344 44.046875 C 174.90625 44.105469 174.78125 44.164062 174.777344 44.347656 C 175.453125 49.535156 175.816406 55.085938 176.304688 60.453125 C 181.273438 58.070312 186.671875 55.816406 192.914062 54.304688 C 205.519531 51.339844 223.757812 52.15625 236.164062 55.773438 C 236.085938 52.238281 235.941406 48.824219 235.796875 45.347656 C 231.09375 45.722656 226.707031 45.183594 221.945312 45.070312 C 222.652344 47.574219 221.460938 49.9375 219.210938 49.546875 C 217.503906 49.222656 217.464844 47.210938 217.554688 44.957031 C 213.042969 44.722656 208.527344 44.550781 203.824219 44.496094 C 203.496094 46.566406 203.160156 49.304688 201.089844 49.21875 C 199.257812 49.136719 198.980469 46.574219 199.25 44.445312 C 195.53125 44.15625 191.382812 44.292969 187.476562 44.183594 C 188.304688 46.328125 188.429688 51.570312 185.332031 50.195312 C 183.8125 49.507812 184.335938 46.40625 184.179688 44.148438 C 181.132812 44.113281 178.078125 44.078125 175.027344 44.046875 " fill-opacity="1" fill-rule="evenodd"/></g><path fill="#bd2a2e" d="M 183.328125 132.621094 C 191.34375 119.824219 197.757812 107.945312 205.734375 97.226562 C 219.511719 78.71875 237.835938 66.839844 261.007812 62.882812 C 293.085938 57.40625 314.816406 75.296875 318.40625 107.628906 C 324.011719 158.125 310.019531 189.070312 285.6875 229.574219 C 257.414062 276.640625 220.304688 327.234375 186.726562 352.535156 C 176.289062 360.398438 148.371094 327.292969 117.808594 290.757812 C 74.773438 239.316406 49.066406 169.871094 61.035156 118.589844 C 68.507812 86.585938 99.210938 74.023438 126.515625 79.65625 C 149.160156 84.324219 164.984375 99.394531 176.28125 119.214844 C 178.636719 123.351562 180.722656 127.644531 183.328125 132.621094 Z M 183.328125 132.621094 " fill-opacity="1" fill-rule="nonzero"/><path fill="#ffb82a" d="M 184.121094 152.0625 C 190.109375 142.496094 194.894531 133.617188 200.851562 125.605469 C 211.136719 111.769531 224.820312 102.890625 242.121094 99.933594 C 266.070312 95.839844 282.296875 109.210938 284.976562 133.378906 C 289.160156 171.128906 278.714844 194.261719 260.550781 224.535156 C 239.4375 259.71875 211.730469 297.539062 186.660156 316.453125 C 178.867188 322.332031 158.023438 297.582031 135.203125 270.273438 C 103.074219 231.820312 83.875 179.90625 92.816406 141.574219 C 98.394531 117.652344 121.316406 108.257812 141.703125 112.46875 C 158.613281 115.957031 170.425781 127.226562 178.859375 142.042969 C 180.621094 145.132812 182.175781 148.339844 184.121094 152.0625 Z M 184.121094 152.0625 " fill-opacity="1" fill-rule="nonzero"/><path fill="#46b4b4" d="M 185.410156 170.359375 C 189.453125 163.898438 192.6875 157.898438 196.707031 152.488281 C 203.652344 143.140625 212.890625 137.144531 224.574219 135.144531 C 240.746094 132.378906 251.699219 141.414062 253.507812 157.742188 C 256.335938 183.238281 249.28125 198.863281 237.015625 219.316406 C 222.761719 243.082031 204.054688 268.628906 187.125 281.40625 C 181.863281 285.375 167.789062 268.660156 152.382812 250.210938 C 130.6875 224.234375 117.726562 189.167969 123.761719 163.273438 C 127.527344 147.113281 143.007812 140.769531 156.773438 143.613281 C 168.1875 145.972656 176.164062 153.582031 181.859375 163.589844 C 183.046875 165.679688 184.097656 167.847656 185.410156 170.359375 Z M 185.410156 170.359375 " fill-opacity="1" fill-rule="nonzero"/><g fill="#a3021c" fill-opacity="1"><g transform="translate(1.321703, 174.198423)"><g><path d="M 22.28125 2.796875 C 23.375 3.328125 24.519531 3.675781 25.71875 3.84375 C 26.914062 4.019531 27.828125 4.066406 28.453125 3.984375 L 29.40625 3.859375 L 29.5 11.46875 C 29.363281 11.5 29.171875 11.53125 28.921875 11.5625 C 28.679688 11.601562 28.148438 11.640625 27.328125 11.671875 C 26.515625 11.703125 25.675781 11.660156 24.8125 11.546875 C 23.945312 11.441406 22.863281 11.203125 21.5625 10.828125 C 20.269531 10.453125 18.988281 9.953125 17.71875 9.328125 C 14.78125 7.898438 12.347656 5.828125 10.421875 3.109375 C 8.492188 0.390625 7.34375 -2.625 6.96875 -5.9375 C 6.59375 -9.25 7.117188 -12.367188 8.546875 -15.296875 C 9.628906 -17.515625 11.132812 -19.414062 13.0625 -21 C 15 -22.582031 17.109375 -23.71875 19.390625 -24.40625 C 21.679688 -25.101562 24.082031 -25.375 26.59375 -25.21875 C 29.101562 -25.070312 31.457031 -24.46875 33.65625 -23.40625 C 35.695312 -22.40625 37.457031 -21.242188 38.9375 -19.921875 C 40.425781 -18.597656 41.410156 -17.523438 41.890625 -16.703125 L 42.59375 -15.453125 L 36.546875 -10.8125 C 36.441406 -11.039062 36.265625 -11.351562 36.015625 -11.75 C 35.773438 -12.15625 35.203125 -12.796875 34.296875 -13.671875 C 33.398438 -14.546875 32.40625 -15.25 31.3125 -15.78125 C 29.570312 -16.625 27.875 -17.097656 26.21875 -17.203125 C 24.570312 -17.316406 23.125 -17.109375 21.875 -16.578125 C 20.632812 -16.054688 19.546875 -15.367188 18.609375 -14.515625 C 17.671875 -13.660156 16.929688 -12.679688 16.390625 -11.578125 C 15.222656 -9.171875 15.078125 -6.578125 15.953125 -3.796875 C 16.828125 -1.023438 18.9375 1.171875 22.28125 2.796875 Z M 22.28125 2.796875 "/></g></g></g><g fill="#a3021c" fill-opacity="1"><g transform="translate(31.065777, 188.907914)"><g><path d="M 36.84375 -16.328125 L 34.421875 -9.78125 L 45.265625 -5.75 L 42.828125 0.84375 L 31.984375 -3.1875 L 29.515625 3.4375 L 40.828125 7.640625 L 38.390625 14.234375 L 17.515625 6.5 C 12.921875 4.789062 9.582031 1.78125 7.5 -2.53125 C 5.425781 -6.84375 5.265625 -11.367188 7.015625 -16.109375 C 8.773438 -20.847656 11.851562 -24.179688 16.25 -26.109375 C 20.644531 -28.035156 25.140625 -28.144531 29.734375 -26.4375 L 50.609375 -18.703125 L 48.15625 -12.125 Z M 29.28125 -18.96875 L 28.125 -19.390625 C 25.351562 -20.421875 22.753906 -20.328125 20.328125 -19.109375 C 17.898438 -17.898438 16.171875 -15.910156 15.140625 -13.140625 C 14.109375 -10.347656 14.113281 -7.695312 15.15625 -5.1875 C 16.207031 -2.675781 18.117188 -0.90625 20.890625 0.125 L 22.046875 0.546875 Z M 29.28125 -18.96875 "/></g></g></g><g fill="#a3021c" fill-opacity="1"><g transform="translate(72.520911, 203.930584)"><g><path d="M 37.515625 -26.4375 L 31.734375 -4.53125 C 30.640625 -0.351562 28.6875 2.503906 25.875 4.046875 C 23.0625 5.597656 19.488281 5.800781 15.15625 4.65625 C 10.820312 3.519531 7.8125 1.585938 6.125 -1.140625 C 4.4375 -3.878906 4.140625 -7.335938 5.234375 -11.515625 L 11.015625 -33.421875 L 18.765625 -31.390625 L 13.59375 -11.75 C 12.863281 -9.007812 12.785156 -6.988281 13.359375 -5.6875 C 13.941406 -4.382812 15.207031 -3.472656 17.15625 -2.953125 C 19.101562 -2.441406 20.648438 -2.609375 21.796875 -3.453125 C 22.941406 -4.296875 23.878906 -6.085938 24.609375 -8.828125 L 29.78125 -28.46875 Z M 37.515625 -26.4375 "/></g></g></g><g fill="#a3021c" fill-opacity="1"><g transform="translate(104.046259, 212.180633)"><g><path d="M 8.6875 -34.125 L 21.046875 -31.921875 C 24.378906 -31.328125 26.929688 -29.953125 28.703125 -27.796875 C 30.484375 -25.648438 31.078125 -22.929688 30.484375 -19.640625 C 30.035156 -17.097656 29.019531 -15.078125 27.4375 -13.578125 C 25.851562 -12.085938 23.914062 -11.1875 21.625 -10.875 L 30.984375 5.53125 L 20.96875 3.75 L 12.828125 -11.796875 L 10.390625 1.859375 L 2.515625 0.453125 Z M 13.828125 -17.375 L 14.765625 -17.21875 C 15.484375 -17.082031 16.097656 -16.984375 16.609375 -16.921875 C 17.117188 -16.859375 17.707031 -16.851562 18.375 -16.90625 C 19.050781 -16.96875 19.609375 -17.113281 20.046875 -17.34375 C 20.492188 -17.582031 20.910156 -17.96875 21.296875 -18.5 C 21.679688 -19.039062 21.945312 -19.734375 22.09375 -20.578125 C 22.25 -21.421875 22.238281 -22.15625 22.0625 -22.78125 C 21.882812 -23.414062 21.628906 -23.921875 21.296875 -24.296875 C 20.960938 -24.679688 20.488281 -25.015625 19.875 -25.296875 C 19.269531 -25.578125 18.71875 -25.773438 18.21875 -25.890625 C 17.71875 -26.003906 17.109375 -26.128906 16.390625 -26.265625 L 15.453125 -26.421875 Z M 13.828125 -17.375 "/></g></g></g><g fill="#a3021c" fill-opacity="1"><g transform="translate(134.698676, 217.379391)"><g/></g></g><g fill="#a3021c" fill-opacity="1"><g transform="translate(146.832151, 219.128858)"><g><path d="M 4.875 -34.875 L 15.015625 -34.203125 C 19.878906 -33.878906 23.929688 -31.941406 27.171875 -28.390625 C 30.410156 -24.835938 31.863281 -20.554688 31.53125 -15.546875 C 31.195312 -10.503906 29.195312 -6.429688 25.53125 -3.328125 C 21.875 -0.222656 17.597656 1.164062 12.703125 0.84375 L 2.5625 0.171875 Z M 11.015625 -6.4375 L 12.234375 -6.359375 C 15.160156 -6.171875 17.613281 -7 19.59375 -8.84375 C 21.570312 -10.6875 22.675781 -13.097656 22.90625 -16.078125 C 23.101562 -19.046875 22.335938 -21.582031 20.609375 -23.6875 C 18.890625 -25.789062 16.554688 -26.9375 13.609375 -27.125 L 12.390625 -27.203125 Z M 11.015625 -6.4375 "/></g></g></g><g fill="#a3021c" fill-opacity="1"><g transform="translate(179.008825, 221.10062)"><g><path d="M 22.40625 -35.28125 L 22.453125 -28.265625 L 10.359375 -28.1875 L 10.40625 -21.203125 L 21.984375 -21.28125 L 22.046875 -14.25 L 10.46875 -14.171875 L 10.515625 -7.109375 L 22.609375 -7.1875 L 22.65625 -0.15625 L 2.5625 -0.015625 L 2.3125 -35.140625 Z M 22.40625 -35.28125 "/></g></g></g><g fill="#a3021c" fill-opacity="1"><g transform="translate(204.223788, 220.753276)"><g/></g></g><g fill="#a3021c" fill-opacity="1"><g transform="translate(216.425634, 220.291435)"><g><path d="M -1.1875 -35.1875 L 9.640625 -36.359375 C 12.910156 -36.703125 15.59375 -36.28125 17.6875 -35.09375 C 19.789062 -33.90625 21.007812 -31.742188 21.34375 -28.609375 C 21.71875 -25.109375 20.535156 -22.457031 17.796875 -20.65625 C 22.847656 -20.3125 25.640625 -17.640625 26.171875 -12.640625 C 26.492188 -9.703125 25.734375 -7.238281 23.890625 -5.25 C 22.046875 -3.257812 19.34375 -2.070312 15.78125 -1.6875 L 2.546875 -0.265625 Z M 8.234375 -22.375 L 8.875 -22.4375 C 10.644531 -22.625 11.929688 -23.078125 12.734375 -23.796875 C 13.546875 -24.515625 13.875 -25.578125 13.71875 -26.984375 C 13.46875 -29.347656 11.582031 -30.34375 8.0625 -29.96875 L 7.421875 -29.90625 Z M 9.84375 -7.265625 L 12.34375 -7.53125 C 16.238281 -7.945312 18.046875 -9.453125 17.765625 -12.046875 C 17.597656 -13.597656 16.988281 -14.660156 15.9375 -15.234375 C 14.894531 -15.816406 13.398438 -16.003906 11.453125 -15.796875 L 8.953125 -15.53125 Z M 9.84375 -7.265625 "/></g></g></g><g fill="#a3021c" fill-opacity="1"><g transform="translate(245.604249, 217.322274)"><g><path d="M -2.390625 -17.4375 C -3.359375 -22.425781 -2.476562 -26.976562 0.25 -31.09375 C 2.976562 -35.21875 6.734375 -37.742188 11.515625 -38.671875 C 16.335938 -39.609375 20.765625 -38.679688 24.796875 -35.890625 C 28.835938 -33.109375 31.347656 -29.207031 32.328125 -24.1875 C 33.304688 -19.144531 32.472656 -14.582031 29.828125 -10.5 C 27.191406 -6.425781 23.40625 -3.90625 18.46875 -2.9375 C 13.425781 -1.957031 8.9375 -2.851562 5 -5.625 C 1.0625 -8.40625 -1.398438 -12.34375 -2.390625 -17.4375 Z M 6.09375 -19.09375 C 6.445312 -17.289062 7.046875 -15.695312 7.890625 -14.3125 C 8.742188 -12.925781 9.960938 -11.851562 11.546875 -11.09375 C 13.140625 -10.332031 14.953125 -10.148438 16.984375 -10.546875 C 19.910156 -11.117188 21.921875 -12.550781 23.015625 -14.84375 C 24.117188 -17.132812 24.394531 -19.703125 23.84375 -22.546875 C 23.300781 -25.367188 22.070312 -27.640625 20.15625 -29.359375 C 18.25 -31.085938 15.859375 -31.671875 12.984375 -31.109375 C 10.140625 -30.554688 8.144531 -29.117188 7 -26.796875 C 5.851562 -24.484375 5.550781 -21.914062 6.09375 -19.09375 Z M 6.09375 -19.09375 "/></g></g></g><g fill="#a3021c" fill-opacity="1"><g transform="translate(283.215269, 209.831037)"><g><path d="M 18.59375 -41.953125 L 24.90625 -20.1875 C 26.101562 -16.050781 25.890625 -12.597656 24.265625 -9.828125 C 22.648438 -7.054688 19.6875 -5.046875 15.375 -3.796875 C 11.070312 -2.546875 7.492188 -2.660156 4.640625 -4.140625 C 1.796875 -5.617188 -0.222656 -8.425781 -1.421875 -12.5625 L -7.734375 -34.328125 L -0.046875 -36.5625 L 5.609375 -17.0625 C 6.398438 -14.332031 7.378906 -12.554688 8.546875 -11.734375 C 9.710938 -10.921875 11.257812 -10.796875 13.1875 -11.359375 C 15.125 -11.921875 16.367188 -12.859375 16.921875 -14.171875 C 17.484375 -15.484375 17.367188 -17.503906 16.578125 -20.234375 L 10.921875 -39.734375 Z M 18.59375 -41.953125 "/></g></g></g><g fill="#a3021c" fill-opacity="1"><g transform="translate(314.498017, 200.704108)"><g><path d="M -10.078125 -33.75 L 1.65625 -38.203125 C 4.820312 -39.410156 7.71875 -39.546875 10.34375 -38.609375 C 12.96875 -37.679688 14.875 -35.65625 16.0625 -32.53125 C 16.976562 -30.113281 17.140625 -27.859375 16.546875 -25.765625 C 15.960938 -23.671875 14.765625 -21.894531 12.953125 -20.4375 L 29.421875 -11.171875 L 19.90625 -7.5625 L 4.953125 -16.71875 L 9.875 -3.75 L 2.390625 -0.90625 Z M 2.9375 -22.015625 L 3.8125 -22.34375 C 4.5 -22.613281 5.078125 -22.847656 5.546875 -23.046875 C 6.015625 -23.253906 6.519531 -23.554688 7.0625 -23.953125 C 7.613281 -24.347656 8.019531 -24.757812 8.28125 -25.1875 C 8.539062 -25.625 8.695312 -26.171875 8.75 -26.828125 C 8.8125 -27.484375 8.6875 -28.207031 8.375 -29 C 8.070312 -29.800781 7.679688 -30.429688 7.203125 -30.890625 C 6.734375 -31.347656 6.257812 -31.648438 5.78125 -31.796875 C 5.300781 -31.953125 4.722656 -31.992188 4.046875 -31.921875 C 3.378906 -31.847656 2.800781 -31.734375 2.3125 -31.578125 C 1.820312 -31.421875 1.234375 -31.207031 0.546875 -30.9375 L -0.328125 -30.609375 Z M 2.9375 -22.015625 "/></g></g></g><g fill="#a3021c" fill-opacity="1"><g transform="translate(343.925707, 189.593451)"><g><path d="M 22.390625 -32.609375 L 25.703125 -25.75 C 26.679688 -21.59375 26.253906 -17.882812 24.421875 -14.625 C 22.597656 -11.363281 19.984375 -8.910156 16.578125 -7.265625 C 12.304688 -5.210938 7.898438 -5.0625 3.359375 -6.8125 C -1.179688 -8.5625 -4.539062 -11.703125 -6.71875 -16.234375 C -8.9375 -20.828125 -9.335938 -25.414062 -7.921875 -30 C -6.515625 -34.59375 -3.613281 -37.945312 0.78125 -40.0625 C 5.925781 -42.539062 10.867188 -42.695312 15.609375 -40.53125 L 13.375 -33.09375 C 10.382812 -34.988281 7.375 -35.207031 4.34375 -33.75 C 2.125 -32.675781 0.691406 -30.796875 0.046875 -28.109375 C -0.585938 -25.421875 -0.25 -22.710938 1.0625 -19.984375 C 2.351562 -17.296875 4.242188 -15.375 6.734375 -14.21875 C 9.222656 -13.070312 11.578125 -13.035156 13.796875 -14.109375 C 15.640625 -14.992188 16.976562 -16.320312 17.8125 -18.09375 C 18.644531 -19.875 18.617188 -21.679688 17.734375 -23.515625 L 10.4375 -20 L 7.765625 -25.5625 Z M 22.390625 -32.609375 "/></g></g></g><g fill="#229999" fill-opacity="1"><g transform="translate(-1.060771, 169.038972)"><g><path d="M 22.28125 2.796875 C 23.375 3.328125 24.519531 3.675781 25.71875 3.84375 C 26.914062 4.019531 27.828125 4.066406 28.453125 3.984375 L 29.40625 3.859375 L 29.5 11.46875 C 29.363281 11.5 29.171875 11.53125 28.921875 11.5625 C 28.679688 11.601562 28.148438 11.640625 27.328125 11.671875 C 26.515625 11.703125 25.675781 11.660156 24.8125 11.546875 C 23.945312 11.441406 22.863281 11.203125 21.5625 10.828125 C 20.269531 10.453125 18.988281 9.953125 17.71875 9.328125 C 14.78125 7.898438 12.347656 5.828125 10.421875 3.109375 C 8.492188 0.390625 7.34375 -2.625 6.96875 -5.9375 C 6.59375 -9.25 7.117188 -12.367188 8.546875 -15.296875 C 9.628906 -17.515625 11.132812 -19.414062 13.0625 -21 C 14.988281 -22.582031 17.097656 -23.71875 19.390625 -24.40625 C 21.679688 -25.101562 24.082031 -25.375 26.59375 -25.21875 C 29.101562 -25.070312 31.457031 -24.46875 33.65625 -23.40625 C 35.695312 -22.40625 37.457031 -21.242188 38.9375 -19.921875 C 40.425781 -18.597656 41.410156 -17.523438 41.890625 -16.703125 L 42.59375 -15.453125 L 36.546875 -10.8125 C 36.441406 -11.039062 36.265625 -11.351562 36.015625 -11.75 C 35.773438 -12.15625 35.203125 -12.796875 34.296875 -13.671875 C 33.398438 -14.546875 32.40625 -15.25 31.3125 -15.78125 C 29.570312 -16.625 27.875 -17.097656 26.21875 -17.203125 C 24.5625 -17.316406 23.113281 -17.109375 21.875 -16.578125 C 20.632812 -16.054688 19.546875 -15.367188 18.609375 -14.515625 C 17.671875 -13.660156 16.929688 -12.679688 16.390625 -11.578125 C 15.222656 -9.171875 15.078125 -6.578125 15.953125 -3.796875 C 16.828125 -1.023438 18.9375 1.171875 22.28125 2.796875 Z M 22.28125 2.796875 "/></g></g></g><g fill="#229999" fill-opacity="1"><g transform="translate(28.703374, 183.756902)"><g><path d="M 36.84375 -16.328125 L 34.421875 -9.78125 L 45.265625 -5.75 L 42.828125 0.84375 L 31.984375 -3.1875 L 29.515625 3.4375 L 40.828125 7.640625 L 38.390625 14.234375 L 17.515625 6.5 C 12.921875 4.789062 9.582031 1.78125 7.5 -2.53125 C 5.425781 -6.84375 5.265625 -11.367188 7.015625 -16.109375 C 8.773438 -20.847656 11.851562 -24.179688 16.25 -26.109375 C 20.644531 -28.035156 25.140625 -28.144531 29.734375 -26.4375 L 50.609375 -18.703125 L 48.15625 -12.125 Z M 29.28125 -18.96875 L 28.125 -19.390625 C 25.351562 -20.421875 22.753906 -20.328125 20.328125 -19.109375 C 17.898438 -17.898438 16.171875 -15.910156 15.140625 -13.140625 C 14.109375 -10.347656 14.113281 -7.695312 15.15625 -5.1875 C 16.207031 -2.675781 18.117188 -0.90625 20.890625 0.125 L 22.046875 0.546875 Z M 29.28125 -18.96875 "/></g></g></g><g fill="#229999" fill-opacity="1"><g transform="translate(70.17887, 198.785169)"><g><path d="M 37.53125 -26.4375 L 31.75 -4.53125 C 30.65625 -0.351562 28.695312 2.503906 25.875 4.046875 C 23.0625 5.597656 19.488281 5.800781 15.15625 4.65625 C 10.820312 3.519531 7.8125 1.585938 6.125 -1.140625 C 4.4375 -3.878906 4.140625 -7.335938 5.234375 -11.515625 L 11.015625 -33.421875 L 18.765625 -31.390625 L 13.59375 -11.75 C 12.863281 -9.007812 12.785156 -6.988281 13.359375 -5.6875 C 13.941406 -4.382812 15.207031 -3.472656 17.15625 -2.953125 C 19.101562 -2.441406 20.648438 -2.609375 21.796875 -3.453125 C 22.941406 -4.296875 23.878906 -6.085938 24.609375 -8.828125 L 29.78125 -28.46875 Z M 37.53125 -26.4375 "/></g></g></g><g fill="#229999" fill-opacity="1"><g transform="translate(101.721654, 207.038328)"><g><path d="M 8.6875 -34.125 L 21.046875 -31.921875 C 24.378906 -31.328125 26.929688 -29.953125 28.703125 -27.796875 C 30.484375 -25.648438 31.078125 -22.929688 30.484375 -19.640625 C 30.023438 -17.097656 29.003906 -15.078125 27.421875 -13.578125 C 25.847656 -12.085938 23.914062 -11.1875 21.625 -10.875 L 30.984375 5.53125 L 20.96875 3.75 L 12.828125 -11.796875 L 10.390625 1.859375 L 2.515625 0.453125 Z M 13.828125 -17.375 L 14.765625 -17.21875 C 15.484375 -17.082031 16.097656 -16.984375 16.609375 -16.921875 C 17.117188 -16.859375 17.707031 -16.851562 18.375 -16.90625 C 19.050781 -16.96875 19.609375 -17.113281 20.046875 -17.34375 C 20.492188 -17.582031 20.910156 -17.96875 21.296875 -18.5 C 21.679688 -19.039062 21.945312 -19.734375 22.09375 -20.578125 C 22.25 -21.421875 22.238281 -22.15625 22.0625 -22.78125 C 21.882812 -23.414062 21.628906 -23.921875 21.296875 -24.296875 C 20.960938 -24.679688 20.488281 -25.015625 19.875 -25.296875 C 19.269531 -25.578125 18.71875 -25.773438 18.21875 -25.890625 C 17.71875 -26.003906 17.109375 -26.128906 16.390625 -26.265625 L 15.453125 -26.421875 Z M 13.828125 -17.375 "/></g></g></g><g fill="#229999" fill-opacity="1"><g transform="translate(132.385605, 212.238827)"><g/></g></g><g fill="#229999" fill-opacity="1"><g transform="translate(144.531713, 213.989295)"><g><path d="M 4.875 -34.875 L 15.015625 -34.203125 C 19.878906 -33.878906 23.929688 -31.941406 27.171875 -28.390625 C 30.410156 -24.835938 31.863281 -20.554688 31.53125 -15.546875 C 31.195312 -10.503906 29.195312 -6.429688 25.53125 -3.328125 C 21.875 -0.222656 17.597656 1.164062 12.703125 0.84375 L 2.5625 0.171875 Z M 11.015625 -6.4375 L 12.234375 -6.359375 C 15.160156 -6.171875 17.613281 -7 19.59375 -8.84375 C 21.570312 -10.6875 22.675781 -13.097656 22.90625 -16.078125 C 23.101562 -19.046875 22.335938 -21.582031 20.609375 -23.6875 C 18.890625 -25.789062 16.554688 -26.9375 13.609375 -27.125 L 12.390625 -27.203125 Z M 11.015625 -6.4375 "/></g></g></g><g fill="#229999" fill-opacity="1"><g transform="translate(176.724259, 215.961621)"><g><path d="M 22.40625 -35.28125 L 22.453125 -28.265625 L 10.359375 -28.1875 L 10.40625 -21.203125 L 21.984375 -21.28125 L 22.046875 -14.25 L 10.46875 -14.171875 L 10.515625 -7.109375 L 22.609375 -7.1875 L 22.65625 -0.15625 L 2.5625 -0.015625 L 2.3125 -35.140625 Z M 22.40625 -35.28125 "/></g></g></g><g fill="#229999" fill-opacity="1"><g transform="translate(201.949344, 215.613933)"><g/></g></g><g fill="#229999" fill-opacity="1"><g transform="translate(214.162914, 215.151055)"><g><path d="M -1.1875 -35.1875 L 9.640625 -36.359375 C 12.910156 -36.703125 15.59375 -36.28125 17.6875 -35.09375 C 19.789062 -33.90625 21.007812 -31.742188 21.34375 -28.609375 C 21.71875 -25.109375 20.535156 -22.457031 17.796875 -20.65625 C 22.847656 -20.3125 25.640625 -17.640625 26.171875 -12.640625 C 26.492188 -9.703125 25.734375 -7.238281 23.890625 -5.25 C 22.046875 -3.257812 19.34375 -2.070312 15.78125 -1.6875 L 2.546875 -0.265625 Z M 8.234375 -22.375 L 8.875 -22.4375 C 10.644531 -22.625 11.929688 -23.078125 12.734375 -23.796875 C 13.546875 -24.515625 13.875 -25.578125 13.71875 -26.984375 C 13.46875 -29.347656 11.582031 -30.34375 8.0625 -29.96875 L 7.421875 -29.90625 Z M 9.84375 -7.265625 L 12.34375 -7.53125 C 16.238281 -7.945312 18.046875 -9.453125 17.765625 -12.046875 C 17.597656 -13.597656 16.988281 -14.660156 15.9375 -15.234375 C 14.894531 -15.816406 13.398438 -16.003906 11.453125 -15.796875 L 8.953125 -15.53125 Z M 9.84375 -7.265625 "/></g></g></g><g fill="#229999" fill-opacity="1"><g transform="translate(243.360279, 212.17955)"><g><path d="M -2.390625 -17.4375 C -3.359375 -22.425781 -2.476562 -26.976562 0.25 -31.09375 C 2.976562 -35.21875 6.734375 -37.742188 11.515625 -38.671875 C 16.335938 -39.609375 20.765625 -38.679688 24.796875 -35.890625 C 28.835938 -33.109375 31.347656 -29.207031 32.328125 -24.1875 C 33.304688 -19.144531 32.472656 -14.582031 29.828125 -10.5 C 27.191406 -6.425781 23.40625 -3.90625 18.46875 -2.9375 C 13.425781 -1.957031 8.9375 -2.851562 5 -5.625 C 1.0625 -8.40625 -1.398438 -12.34375 -2.390625 -17.4375 Z M 6.09375 -19.09375 C 6.445312 -17.289062 7.046875 -15.695312 7.890625 -14.3125 C 8.742188 -12.925781 9.960938 -11.851562 11.546875 -11.09375 C 13.140625 -10.332031 14.953125 -10.148438 16.984375 -10.546875 C 19.910156 -11.117188 21.921875 -12.550781 23.015625 -14.84375 C 24.117188 -17.132812 24.394531 -19.703125 23.84375 -22.546875 C 23.300781 -25.367188 22.070312 -27.640625 20.15625 -29.359375 C 18.25 -31.085938 15.859375 -31.671875 12.984375 -31.109375 C 10.140625 -30.554688 8.144531 -29.117188 7 -26.796875 C 5.851562 -24.484375 5.550781 -21.914062 6.09375 -19.09375 Z M 6.09375 -19.09375 "/></g></g></g><g fill="#229999" fill-opacity="1"><g transform="translate(280.990323, 204.683527)"><g><path d="M 18.59375 -41.953125 L 24.90625 -20.1875 C 26.101562 -16.050781 25.890625 -12.597656 24.265625 -9.828125 C 22.648438 -7.054688 19.6875 -5.046875 15.375 -3.796875 C 11.070312 -2.546875 7.492188 -2.660156 4.640625 -4.140625 C 1.796875 -5.617188 -0.222656 -8.425781 -1.421875 -12.5625 L -7.734375 -34.328125 L -0.046875 -36.5625 L 5.609375 -17.0625 C 6.398438 -14.332031 7.378906 -12.554688 8.546875 -11.734375 C 9.710938 -10.921875 11.257812 -10.796875 13.1875 -11.359375 C 15.125 -11.921875 16.367188 -12.859375 16.921875 -14.171875 C 17.484375 -15.484375 17.367188 -17.503906 16.578125 -20.234375 L 10.921875 -39.734375 Z M 18.59375 -41.953125 "/></g></g></g><g fill="#229999" fill-opacity="1"><g transform="translate(312.290087, 195.551918)"><g><path d="M -10.078125 -33.75 L 1.65625 -38.203125 C 4.820312 -39.410156 7.71875 -39.546875 10.34375 -38.609375 C 12.96875 -37.679688 14.875 -35.65625 16.0625 -32.53125 C 16.976562 -30.113281 17.140625 -27.851562 16.546875 -25.75 C 15.960938 -23.65625 14.765625 -21.882812 12.953125 -20.4375 L 29.421875 -11.171875 L 19.90625 -7.5625 L 4.953125 -16.71875 L 9.875 -3.75 L 2.390625 -0.90625 Z M 2.9375 -22.015625 L 3.8125 -22.34375 C 4.5 -22.613281 5.078125 -22.847656 5.546875 -23.046875 C 6.015625 -23.253906 6.519531 -23.554688 7.0625 -23.953125 C 7.613281 -24.347656 8.019531 -24.757812 8.28125 -25.1875 C 8.539062 -25.625 8.695312 -26.171875 8.75 -26.828125 C 8.8125 -27.484375 8.6875 -28.207031 8.375 -29 C 8.070312 -29.800781 7.679688 -30.429688 7.203125 -30.890625 C 6.734375 -31.347656 6.257812 -31.648438 5.78125 -31.796875 C 5.300781 -31.953125 4.722656 -31.992188 4.046875 -31.921875 C 3.378906 -31.847656 2.800781 -31.734375 2.3125 -31.578125 C 1.820312 -31.421875 1.234375 -31.207031 0.546875 -30.9375 L -0.328125 -30.609375 Z M 2.9375 -22.015625 "/></g></g></g><g fill="#229999" fill-opacity="1"><g transform="translate(341.735162, 184.433789)"><g><path d="M 22.390625 -32.59375 L 25.703125 -25.734375 C 26.679688 -21.585938 26.253906 -17.882812 24.421875 -14.625 C 22.597656 -11.363281 19.984375 -8.910156 16.578125 -7.265625 C 12.304688 -5.210938 7.898438 -5.0625 3.359375 -6.8125 C -1.179688 -8.5625 -4.539062 -11.703125 -6.71875 -16.234375 C -8.9375 -20.828125 -9.335938 -25.414062 -7.921875 -30 C -6.515625 -34.59375 -3.613281 -37.945312 0.78125 -40.0625 C 5.925781 -42.539062 10.867188 -42.695312 15.609375 -40.53125 L 13.375 -33.09375 C 10.382812 -34.988281 7.375 -35.207031 4.34375 -33.75 C 2.125 -32.675781 0.691406 -30.796875 0.046875 -28.109375 C -0.585938 -25.421875 -0.25 -22.710938 1.0625 -19.984375 C 2.351562 -17.296875 4.242188 -15.375 6.734375 -14.21875 C 9.222656 -13.070312 11.578125 -13.035156 13.796875 -14.109375 C 15.640625 -14.992188 16.976562 -16.320312 17.8125 -18.09375 C 18.644531 -19.875 18.617188 -21.679688 17.734375 -23.515625 L 10.4375 -20 L 7.765625 -25.5625 Z M 22.390625 -32.59375 "/></g></g></g><path stroke-linecap="butt" transform="matrix(0.435814, 0.212057, -0.212057, 0.435814, 15.055545, 135.917101)" fill="none" stroke-linejoin="miter" d="M 43.838635 61.06903 C 46.358228 61.071001 48.799051 60.690035 51.175402 59.937099 C 53.548421 59.158895 55.290125 58.427943 56.407956 57.722697 L 58.06031 56.587066 L 65.092608 70.63442 C 64.863637 70.808573 64.540258 71.04659 64.129717 71.344943 C 63.712124 71.628803 62.758232 72.173612 61.275289 72.975844 C 59.792541 73.760056 58.191866 74.449275 56.495008 75.032922 C 54.790902 75.620096 52.561247 76.140317 49.802323 76.604359 C 47.054173 77.072122 44.218448 77.30464 41.2879 77.305441 C 34.550833 77.312002 28.170538 75.65709 22.136045 72.355006 C 16.101553 69.052922 11.234018 64.501827 7.54774 58.712691 C 3.861656 52.905534 2.015237 46.642433 2.015923 39.90184 C 2.016924 34.801343 3.097038 29.91075 5.256266 25.230061 C 7.429988 20.542319 10.317347 16.529134 13.921869 13.197752 C 17.522865 9.859122 21.725845 7.186634 26.530616 5.198308 C 31.339108 3.199208 36.255798 2.196146 41.284211 2.196368 C 45.973754 2.200141 50.296847 2.758671 54.242717 3.868236 C 58.202887 4.988769 60.995225 6.103902 62.630505 7.217356 L 65.092435 8.887635 L 58.063157 22.938164 C 57.656094 22.580518 57.047859 22.159422 56.209656 21.67096 C 55.400443 21.168393 53.763825 20.512708 51.30705 19.70038 C 48.843222 18.873557 46.353372 18.453773 43.837305 18.459049 C 39.847051 18.455616 36.278767 19.098359 33.114433 20.387082 C 29.957346 21.672278 27.451784 23.375433 25.612241 25.489494 C 23.765644 27.589061 22.353325 29.862733 21.382724 32.288962 C 20.422897 34.718913 19.941997 37.193685 19.947273 39.709752 C 19.945518 45.213956 22.008092 50.152898 26.1205 54.533633 C 30.258372 58.893014 36.160761 61.076247 43.838635 61.06903 Z M 43.838635 61.06903 " stroke="#a3021c" stroke-width="3.294743" stroke-opacity="1" stroke-miterlimit="4"/><path stroke-linecap="butt" transform="matrix(0.454432, 0.168503, -0.168503, 0.454432, 41.509612, 149.220048)" fill="none" stroke-linejoin="miter" d="M 59.562838 18.028309 L 59.560706 32.418619 L 83.45778 32.419966 L 83.451489 46.914969 L 59.564774 46.918378 L 59.556276 61.500158 L 84.501383 61.49971 L 84.505451 75.999468 L 38.560199 75.998877 C 28.444044 76.002132 19.814948 72.574363 12.693629 65.725079 C 5.572311 58.875796 2.017665 50.239815 2.011774 39.815185 C 2.018196 29.377393 5.575281 20.726135 12.695342 13.848248 C 19.815404 6.970361 28.44247 3.530766 38.558626 3.527512 L 84.503877 3.528102 L 84.507945 18.027861 Z M 43.041567 18.283391 L 40.496501 18.281551 C 34.401726 18.28077 29.438896 20.335881 25.605211 24.439326 C 21.776281 28.532412 19.862401 33.617385 19.86162 39.712161 C 19.862538 45.857882 21.780267 50.983398 25.607252 55.091513 C 29.438991 59.189269 34.403649 61.242315 40.490868 61.245898 L 43.04349 61.244936 Z M 43.041567 18.283391 " stroke="#a3021c" stroke-width="3.294743" stroke-opacity="1" stroke-miterlimit="4"/><path stroke-linecap="butt" transform="matrix(0.468649, 0.123574, -0.123574, 0.468649, 79.570494, 163.16788)" fill="none" stroke-linejoin="miter" d="M 60.975748 3.526249 L 60.979356 50.260413 C 60.974277 59.155344 58.574061 65.889557 53.770916 70.465108 C 48.96366 75.025072 41.939661 77.310598 32.687015 77.308156 C 23.434368 77.305714 16.406491 75.024607 11.603385 70.464837 C 6.796168 65.889481 4.395099 59.154337 4.392384 50.261461 L 4.39657 3.525242 L 20.909807 3.530282 L 20.908179 45.439782 C 20.906939 51.28304 21.831122 55.356952 23.674564 57.638135 C 25.52006 59.927113 28.521832 61.069352 32.689728 61.070593 C 36.849831 61.073888 39.847609 59.925018 41.694967 57.637515 C 43.542324 55.350011 44.461699 51.28176 44.46294 45.438502 L 44.464567 3.529002 Z M 60.975748 3.526249 " stroke="#a3021c" stroke-width="3.294743" stroke-opacity="1" stroke-miterlimit="4"/><path stroke-linecap="butt" transform="matrix(0.477108, 0.0852664, -0.0852664, 0.477108, 108.201897, 170.778152)" fill="none" stroke-linejoin="miter" d="M 5.274935 3.525892 L 31.188438 3.528799 C 38.16369 3.526694 43.842251 5.385612 48.232054 9.104133 C 52.621858 12.822655 54.824042 18.135679 54.821319 25.038107 C 54.817529 30.376941 53.486347 34.83952 50.806807 38.445964 C 48.151068 42.048155 44.541948 44.576252 39.980865 46.038188 L 64.919808 76.000868 L 43.927746 76.002659 L 21.788326 47.365442 L 21.788064 75.996675 L 5.27483 76.000393 Z M 21.788115 35.682122 L 23.720081 35.680719 C 25.234653 35.680225 26.522248 35.646609 27.5857 35.595739 C 28.639801 35.538352 29.839246 35.332181 31.186871 34.993091 C 32.530242 34.6302 33.612334 34.133882 34.422378 33.489686 C 35.254806 32.833302 35.961947 31.88819 36.54522 30.662282 C 37.135008 29.427023 37.426382 27.942163 37.425855 26.19835 C 37.422493 24.438669 37.130705 22.943405 36.55049 21.712559 C 35.962342 20.483131 35.254372 19.5453 34.420064 18.908417 C 33.608139 18.259347 32.529026 17.764463 31.187821 17.406479 C 29.838683 17.049914 28.63833 16.838693 27.580246 16.782168 C 26.522162 16.725642 25.239092 16.692951 23.72452 16.693445 L 21.792554 16.694848 Z M 21.788115 35.682122 " stroke="#a3021c" stroke-width="3.294743" stroke-opacity="1" stroke-miterlimit="4"/><path stroke-linecap="butt" transform="matrix(0.483614, 0.0319342, -0.0319342, 0.483614, 146.958715, 177.234656)" fill="none" stroke-linejoin="miter" d="M 5.277737 3.527979 L 26.270613 3.531047 C 36.342714 3.528292 44.945816 6.966504 52.096004 13.844622 C 59.246192 20.72274 62.820425 29.347425 62.818171 39.710637 C 62.819634 50.130143 59.263976 58.789464 52.142623 65.681088 C 45.020738 72.56467 36.395067 76.001655 26.274182 75.999554 L 5.273264 75.997018 Z M 21.794558 61.24751 L 24.346497 61.240543 C 30.364447 61.247023 35.28678 59.217698 39.121538 55.152035 C 42.963806 51.077799 44.919591 45.956937 44.973338 39.798553 C 44.979364 33.651397 43.057925 28.528086 39.226169 24.443644 C 35.39282 20.335076 30.435532 18.287718 24.345202 18.286017 L 21.792732 18.284942 Z M 21.794558 61.24751 " stroke="#a3021c" stroke-width="3.294743" stroke-opacity="1" stroke-miterlimit="4"/><path stroke-linecap="butt" transform="matrix(0.484655, -0.00346717, 0.00346717, 0.484655, 176.460754, 179.127879)" fill="none" stroke-linejoin="miter" d="M 46.738477 3.52819 L 46.731466 18.027837 L 21.794251 18.026756 L 21.78799 32.42163 L 45.685536 32.415274 L 45.686584 46.914979 L 21.789096 46.913276 L 21.789511 61.501635 L 46.734786 61.502774 L 46.735834 76.002479 L 5.275933 75.996034 L 5.278519 3.529804 Z M 46.738477 3.52819 " stroke="#a3021c" stroke-width="3.294743" stroke-opacity="1" stroke-miterlimit="4"/><path stroke-linecap="butt" transform="matrix(0.481919, -0.0515341, 0.0515341, 0.481919, 210.246319, 178.525183)" fill="none" stroke-linejoin="miter" d="M 5.280017 3.52765 L 27.756415 3.531907 C 34.541235 3.527939 39.962291 4.983046 44.013286 7.880345 C 48.057123 10.768773 50.083574 15.467874 50.07661 21.975933 C 50.078101 29.238719 47.059969 34.419683 41.030226 37.519682 C 51.340916 39.335551 56.492746 45.4307 56.494588 55.797971 C 56.492117 61.885019 54.388642 66.774723 50.168134 70.465368 C 45.947627 74.156014 40.149454 76.00009 32.773617 75.997598 L 5.279154 75.999808 Z M 21.788244 31.903675 L 23.101076 31.906267 C 26.789423 31.903507 29.541456 31.257545 31.356317 29.976397 C 33.172035 28.687234 34.078305 26.579421 34.083999 23.645799 C 34.083276 18.725617 30.423044 16.267279 23.09529 16.269929 L 21.790472 16.268193 Z M 21.791247 63.256492 L 26.962433 63.258292 C 35.05207 63.256059 39.100486 60.568318 39.101383 55.178183 C 39.097002 51.959788 38.087934 49.647158 36.057295 48.246592 C 34.036384 46.830855 31.007312 46.125977 26.962922 46.123087 L 21.791736 46.121286 Z M 21.791247 63.256492 " stroke="#a3021c" stroke-width="3.294743" stroke-opacity="1" stroke-miterlimit="4"/><path stroke-linecap="butt" transform="matrix(0.475752, -0.0925322, 0.0925322, 0.475752, 236.327831, 176.022411)" fill="none" stroke-linejoin="miter" d="M 2.015617 39.706965 C 2.017025 29.230401 5.589728 20.359828 12.741638 13.096786 C 19.885636 5.832205 28.499889 2.195335 38.565495 2.198919 C 48.697471 2.198991 57.304325 5.81893 64.387596 13.050824 C 71.478779 20.284258 75.020698 29.175627 75.024342 39.710649 C 75.022049 50.318413 71.538127 59.239096 64.555217 66.477533 C 57.592746 73.695313 48.926191 77.30559 38.563463 77.309902 C 27.963611 77.309147 19.225776 73.729418 12.335674 66.559727 C 5.455021 59.383662 2.015515 50.430105 2.015617 39.706965 Z M 19.856456 39.712041 C 19.860878 43.530871 20.449889 47.003604 21.621949 50.138149 C 22.795548 53.264784 24.832841 55.91897 27.752729 58.087963 C 30.682067 60.250584 34.29009 61.330024 38.559435 61.331119 C 44.709736 61.328572 49.34883 59.217538 52.484628 54.999556 C 55.610976 50.787947 57.177268 45.689953 57.181964 39.713485 C 57.182263 33.801847 55.582641 28.728527 52.394087 24.479239 C 49.203995 20.237862 44.600936 18.110979 38.566011 18.111334 C 32.588005 18.114548 27.971106 20.23811 24.731139 24.485095 C 21.48326 28.730542 19.864665 33.801942 19.856456 39.712041 Z M 19.856456 39.712041 " stroke="#a3021c" stroke-width="3.294743" stroke-opacity="1" stroke-miterlimit="4"/><path stroke-linecap="butt" transform="matrix(0.465524, -0.134868, 0.134868, 0.465524, 270.740348, 169.3037)" fill="none" stroke-linejoin="miter" d="M 60.975045 3.528376 L 60.979625 50.259634 C 60.978889 59.153967 58.573773 65.891673 53.766522 70.465012 C 48.961513 75.030609 41.94081 77.30964 32.686687 77.305361 C 23.438062 77.311065 16.404306 75.029958 11.6009 70.466523 C 6.799738 65.895347 4.396775 59.1576 4.397512 50.263267 L 4.395174 3.524267 L 20.908477 3.52546 L 20.907599 45.438656 C 20.908144 51.287398 21.835248 55.357151 23.673426 57.64343 C 25.521589 59.924211 28.528626 61.072292 32.68354 61.067707 C 36.843952 61.073105 39.851697 59.930627 41.699034 57.638028 C 43.536386 55.350929 44.46141 51.289122 44.460864 45.44038 L 44.461742 3.527184 Z M 60.975045 3.528376 " stroke="#a3021c" stroke-width="3.294743" stroke-opacity="1" stroke-miterlimit="4"/><path stroke-linecap="butt" transform="matrix(0.453091, -0.172076, 0.172076, 0.453091, 299.212281, 161.116981)" fill="none" stroke-linejoin="miter" d="M 5.277329 3.530671 L 31.186581 3.525006 C 38.160539 3.526848 43.843815 5.383514 48.233549 9.102538 C 52.623283 12.821561 54.822571 18.131285 54.821017 25.036381 C 54.820371 30.37274 53.485734 34.840376 50.806711 38.443962 C 48.153153 42.048597 44.53624 44.580418 39.981437 46.040474 L 64.925684 75.998161 L 43.924554 75.997018 L 21.795276 47.367049 L 21.79332 75.997748 L 5.273888 76.000276 Z M 21.795169 35.676483 L 23.718609 35.67416 C 25.233554 35.680502 26.520362 35.65193 27.579033 35.588444 C 28.642377 35.535353 29.839347 35.334721 31.185012 34.99227 C 32.528865 34.631888 33.605385 34.135493 34.427829 33.490875 C 35.255996 32.831188 35.95799 31.890807 36.547069 30.657525 C 37.133286 29.431776 37.424419 27.938776 37.429816 26.199317 C 37.425866 24.439065 37.130249 22.947381 36.545826 21.716732 C 35.961403 20.486082 35.254986 19.553954 34.424762 18.902418 C 33.606746 18.264138 32.53064 17.760616 31.183185 17.40406 C 29.843264 17.050365 28.637628 16.842503 27.581346 16.786198 C 26.525063 16.729893 25.235682 16.697138 23.717875 16.69833 L 21.786901 16.697792 Z M 21.795169 35.676483 " stroke="#a3021c" stroke-width="3.294743" stroke-opacity="1" stroke-miterlimit="4"/><path stroke-linecap="butt" transform="matrix(0.436704, -0.210218, 0.210218, 0.436704, 325.758586, 151.244287)" fill="none" stroke-linejoin="miter" d="M 70.796866 35.416718 L 70.802268 51.144359 C 68.923563 59.74837 64.829032 66.266027 58.507645 70.683075 C 52.186258 75.100123 45.132316 77.30401 37.338827 77.30926 C 27.562607 77.308227 19.223899 73.65198 12.329694 66.325996 C 5.457276 59.010498 2.015236 50.161932 2.014604 39.79455 C 2.015033 29.257727 5.385333 20.360964 12.121737 13.093502 C 18.854646 5.833302 27.260497 2.19604 37.339559 2.199736 C 49.112765 2.196023 58.417599 6.335228 65.264549 14.595564 L 54.476746 26.45147 C 50.602189 20.248106 45.216917 17.145918 38.302908 17.145174 C 33.212948 17.145886 28.866301 19.355992 25.262966 23.775493 C 21.659632 28.194995 19.858102 33.535508 19.858378 39.797033 C 19.860796 45.961197 21.659213 51.218828 25.264656 55.584181 C 28.866332 59.938776 33.217665 62.122845 38.307625 62.122133 C 42.521601 62.120153 46.201055 60.8501 49.331461 58.304982 C 52.458102 55.749106 54.025811 52.362298 54.027597 48.15908 L 37.344631 48.160799 L 37.340834 35.42151 Z M 70.796866 35.416718 " stroke="#a3021c" stroke-width="3.294743" stroke-opacity="1" stroke-miterlimit="4"/></svg>