<svg xmlns="http://www.w3.org/2000/svg" xmlns:xlink="http://www.w3.org/1999/xlink" width="500" zoomAndPan="magnify" viewBox="0 0 375 374.999991" height="500" preserveAspectRatio="xMidYMid meet" version="1.0"><defs><g/><clipPath id="5a7f388d0f"><path d="M 122 148 L 258 148 L 258 294 L 122 294 Z M 122 148 " clip-rule="nonzero"/></clipPath><clipPath id="f00d91cfb7"><path d="M 131.449219 131.726562 L 266.046875 165.410156 L 228.902344 313.835938 L 94.304688 280.148438 Z M 131.449219 131.726562 " clip-rule="nonzero"/></clipPath><clipPath id="443c7f2351"><path d="M 131.449219 131.726562 L 266.046875 165.410156 L 228.902344 313.835938 L 94.304688 280.148438 Z M 131.449219 131.726562 " clip-rule="nonzero"/></clipPath><clipPath id="7f1f46f9f7"><path d="M 137 167 L 238 167 L 238 276 L 137 276 Z M 137 167 " clip-rule="nonzero"/></clipPath><clipPath id="5a2a072625"><path d="M 143.789062 154.769531 L 244.191406 179.898438 L 216.511719 290.488281 L 116.109375 265.359375 Z M 143.789062 154.769531 " clip-rule="nonzero"/></clipPath><clipPath id="b10e62b066"><path d="M 143.789062 154.769531 L 244.191406 179.898438 L 216.511719 290.488281 L 116.109375 265.359375 Z M 143.789062 154.769531 " clip-rule="nonzero"/></clipPath><clipPath id="80593e2ae2"><path d="M 151 185 L 220 185 L 220 259 L 151 259 Z M 151 185 " clip-rule="nonzero"/></clipPath><clipPath id="9c8cd02b25"><path d="M 155.882812 176.773438 L 223.546875 193.707031 L 204.792969 268.644531 L 137.128906 251.710938 Z M 155.882812 176.773438 " clip-rule="nonzero"/></clipPath><clipPath id="cf6f8c29d2"><path d="M 155.882812 176.773438 L 223.546875 193.707031 L 204.792969 268.644531 L 137.128906 251.710938 Z M 155.882812 176.773438 " clip-rule="nonzero"/></clipPath></defs><path fill="#ddaa66" d="M 254.675781 119.242188 C 255.648438 125.253906 260.902344 122.925781 262.457031 119.242188 C 264.011719 115.554688 275.488281 69.964844 270.820312 52.695312 C 266.152344 35.234375 257.398438 33.878906 246.898438 28.832031 C 236.394531 23.789062 211.308594 8.464844 199.25 10.015625 C 187.191406 11.375 164.4375 34.460938 161.328125 42.609375 C 158.214844 50.757812 161.328125 100.230469 164.4375 104.109375 C 167.742188 108.183594 170.855469 105.078125 169.882812 98.289062 C 168.714844 91.5 166.382812 53.667969 168.328125 45.710938 C 170.078125 37.757812 195.945312 19.328125 200.417969 18.550781 C 204.890625 17.777344 249.621094 37.5625 257.984375 47.070312 C 269.847656 60.652344 253.703125 114.003906 254.675781 119.242188 Z M 254.675781 119.242188 " fill-opacity="1" fill-rule="nonzero"/><path fill="#ba8347" d="M 128.847656 85.289062 C 128.847656 85.289062 139.542969 84.320312 160.355469 90.527344 C 181.359375 96.929688 179.996094 99.257812 215.976562 102.75 C 251.953125 106.4375 302.519531 120.015625 302.519531 120.015625 L 254.484375 176.863281 L 119.707031 139.03125 L 122.820312 120.015625 L 130.402344 97.511719 Z M 128.847656 85.289062 " fill-opacity="1" fill-rule="nonzero"/><path fill="#cc9656" d="M 262.652344 358.066406 C 262.652344 358.066406 278.015625 336.917969 279.570312 334.589844 C 281.125 332.457031 291.628906 327.023438 291.628906 327.023438 C 291.628906 327.023438 284.042969 250.777344 284.042969 243.792969 C 284.042969 236.808594 304.269531 122.34375 302.519531 120.210938 C 300.964844 118.078125 262.652344 133.792969 262.652344 133.792969 L 251.761719 201.890625 C 251.761719 201.890625 246.3125 320.425781 248.453125 331.875 C 250.789062 343.320312 262.652344 358.066406 262.652344 358.066406 Z M 262.652344 358.066406 " fill-opacity="1" fill-rule="nonzero"/><path fill="#ddaa66" d="M 279.570312 159.402344 L 262.652344 133.792969 L 254.675781 157.265625 Z M 279.570312 159.402344 " fill-opacity="1" fill-rule="nonzero"/><path fill="#cc9656" d="M 128.847656 85.289062 C 126.515625 89.945312 124.570312 109.734375 124.570312 109.734375 L 136.628906 104.691406 Z M 128.847656 85.289062 " fill-opacity="1" fill-rule="nonzero"/><path fill="#ddaa66" d="M 102.789062 112.0625 C 111.539062 107.214844 136.433594 104.886719 136.433594 104.886719 L 133.710938 129.136719 Z M 102.789062 112.0625 " fill-opacity="1" fill-rule="nonzero"/><path fill="#f4cf97" d="M 102.789062 112.0625 C 102.789062 112.0625 99.480469 210.8125 99.480469 217.992188 C 99.480469 217.992188 71.085938 294.234375 71.671875 295.980469 C 72.253906 297.535156 178.636719 366.214844 262.652344 358.066406 C 262.652344 358.066406 256.621094 312.277344 259.929688 280.269531 C 263.234375 248.257812 279.570312 159.402344 279.570312 159.402344 Z M 102.789062 112.0625 " fill-opacity="1" fill-rule="nonzero"/><path fill="#809150" d="M 147.519531 220.707031 C 138.378906 241.855469 156.269531 246.703125 156.269531 246.703125 L 150.824219 259.898438 C 150.824219 259.898438 119.511719 248.257812 133.710938 215.082031 L 126.707031 211.78125 L 147.128906 203.828125 L 156.269531 223.617188 Z M 147.519531 220.707031 " fill-opacity="1" fill-rule="nonzero"/><path fill="#809150" d="M 147.710938 193.160156 L 157.824219 206.15625 C 157.824219 206.15625 177.078125 189.277344 191.277344 206.15625 L 184.46875 211.78125 L 206.445312 219.929688 L 211.113281 196.261719 L 203.527344 199.367188 C 203.527344 199.367188 181.746094 166.386719 147.710938 193.160156 Z M 147.710938 193.160156 " fill-opacity="1" fill-rule="nonzero"/><path fill="#809150" d="M 199.832031 230.796875 C 199.640625 256.015625 182.136719 252.332031 182.136719 252.332031 L 179.414062 240.691406 L 158.796875 256.40625 L 184.664062 273.476562 L 184.46875 265.71875 C 184.46875 265.71875 220.644531 265.71875 212.667969 227.304688 Z M 199.832031 230.796875 " fill-opacity="1" fill-rule="nonzero"/><path fill="#cc9656" d="M 231.339844 155.910156 C 237.953125 133.792969 236.007812 84.515625 231.339844 73.261719 C 226.671875 62.007812 198.472656 36.207031 179.609375 36.59375 C 160.742188 37.175781 130.597656 62.203125 130.402344 70.15625 C 130.210938 78.113281 148.296875 139.03125 148.296875 139.03125 L 152.769531 139.03125 C 152.769531 139.03125 146.351562 87.230469 139.542969 76.171875 C 139.542969 76.171875 154.910156 55.21875 164.4375 49.59375 C 173.773438 43.964844 176.105469 44.160156 182.914062 47.070312 C 189.71875 49.980469 216.753906 62.785156 222.394531 77.722656 C 228.035156 92.664062 228.421875 139.417969 225.699219 154.355469 L 227.253906 158.429688 Z M 231.339844 155.910156 " fill-opacity="1" fill-rule="nonzero"/><g clip-path="url(#5a7f388d0f)"><g clip-path="url(#f00d91cfb7)"><g clip-path="url(#443c7f2351)"><path fill="#bd2a2e" d="M 187.976562 185.019531 C 193.46875 179.734375 198.058594 174.699219 203.273438 170.425781 C 212.28125 163.042969 222.695312 159.46875 234.511719 160.367188 C 250.871094 161.609375 259.304688 173.035156 257.09375 189.308594 C 253.644531 214.730469 243.011719 228.175781 226.148438 245.039062 C 206.550781 264.632812 182.199219 284.875 162.679688 293.160156 C 156.609375 295.734375 147.019531 276.101562 136.550781 254.464844 C 121.8125 224 117.757812 186.835938 129.898438 163.179688 C 137.472656 148.417969 154.027344 146.023438 166.691406 152.121094 C 177.191406 157.179688 183.082031 166.5 186.175781 177.589844 C 186.820312 179.90625 187.3125 182.261719 187.976562 185.019531 Z M 187.976562 185.019531 " fill-opacity="1" fill-rule="nonzero"/></g></g></g><g clip-path="url(#7f1f46f9f7)"><g clip-path="url(#5a2a072625)"><g clip-path="url(#b10e62b066)"><path fill="#ffb82a" d="M 185.960938 194.492188 C 190.054688 190.554688 193.480469 186.804688 197.367188 183.621094 C 204.085938 178.125 211.855469 175.460938 220.667969 176.132812 C 232.871094 177.0625 239.164062 185.578125 237.519531 197.703125 C 234.953125 216.644531 227.019531 226.664062 214.445312 239.222656 C 199.832031 253.820312 181.671875 268.898438 167.113281 275.066406 C 162.585938 276.984375 155.429688 262.351562 147.617188 246.230469 C 136.617188 223.523438 133.582031 195.832031 142.632812 178.207031 C 148.28125 167.210938 160.628906 165.425781 170.078125 169.976562 C 177.910156 173.746094 182.304688 180.691406 184.617188 188.957031 C 185.097656 190.683594 185.464844 192.4375 185.960938 194.492188 Z M 185.960938 194.492188 " fill-opacity="1" fill-rule="nonzero"/></g></g></g><g clip-path="url(#80593e2ae2)"><g clip-path="url(#9c8cd02b25)"><g clip-path="url(#cf6f8c29d2)"><path fill="#46b4b4" d="M 184.28125 203.644531 C 187.042969 200.972656 189.355469 198.429688 191.980469 196.269531 C 196.511719 192.539062 201.753906 190.730469 207.695312 191.175781 C 215.917969 191.796875 220.152344 197.558594 219.035156 205.773438 C 217.289062 218.609375 211.933594 225.402344 203.445312 233.921875 C 193.578125 243.820312 181.324219 254.050781 171.503906 258.242188 C 168.449219 259.546875 163.636719 249.640625 158.382812 238.722656 C 150.988281 223.355469 148.964844 204.597656 155.085938 192.648438 C 158.902344 185.195312 167.226562 183.976562 173.59375 187.050781 C 178.871094 189.597656 181.828125 194.296875 183.378906 199.894531 C 183.699219 201.0625 183.949219 202.253906 184.28125 203.644531 Z M 184.28125 203.644531 " fill-opacity="1" fill-rule="nonzero"/></g></g></g><g fill="#a3021c" fill-opacity="1"><g transform="translate(84.813043, 264.218951)"><g><path d="M 9.421875 5.03125 C 9.828125 5.457031 10.28125 5.8125 10.78125 6.09375 C 11.28125 6.382812 11.675781 6.566406 11.96875 6.640625 L 12.4375 6.734375 L 11.171875 10.140625 C 11.097656 10.128906 11 10.109375 10.875 10.078125 C 10.757812 10.054688 10.519531 9.984375 10.15625 9.859375 C 9.789062 9.734375 9.425781 9.570312 9.0625 9.375 C 8.695312 9.175781 8.257812 8.878906 7.75 8.484375 C 7.238281 8.097656 6.75 7.660156 6.28125 7.171875 C 5.226562 6.035156 4.503906 4.695312 4.109375 3.15625 C 3.710938 1.613281 3.710938 0.078125 4.109375 -1.453125 C 4.503906 -2.984375 5.265625 -4.28125 6.390625 -5.34375 C 7.253906 -6.144531 8.253906 -6.734375 9.390625 -7.109375 C 10.523438 -7.484375 11.65625 -7.628906 12.78125 -7.546875 C 13.914062 -7.460938 15.023438 -7.171875 16.109375 -6.671875 C 17.203125 -6.179688 18.144531 -5.507812 18.9375 -4.65625 C 19.675781 -3.863281 20.265625 -3.046875 20.703125 -2.203125 C 21.148438 -1.367188 21.40625 -0.726562 21.46875 -0.28125 L 21.59375 0.40625 L 18.109375 1.4375 C 18.109375 1.300781 18.082031 1.125 18.03125 0.90625 C 17.988281 0.695312 17.84375 0.320312 17.59375 -0.21875 C 17.34375 -0.757812 17.015625 -1.242188 16.609375 -1.671875 C 15.984375 -2.347656 15.3125 -2.847656 14.59375 -3.171875 C 13.875 -3.503906 13.191406 -3.660156 12.546875 -3.640625 C 11.898438 -3.628906 11.296875 -3.507812 10.734375 -3.28125 C 10.179688 -3.050781 9.691406 -2.738281 9.265625 -2.34375 C 8.328125 -1.476562 7.816406 -0.359375 7.734375 1.015625 C 7.648438 2.398438 8.210938 3.738281 9.421875 5.03125 Z M 9.421875 5.03125 "/></g></g></g><g fill="#a3021c" fill-opacity="1"><g transform="translate(95.530723, 275.83708)"><g><path d="M 19.171875 -0.96875 L 16.96875 1.515625 L 21.109375 5.15625 L 18.90625 7.671875 L 14.765625 4.03125 L 12.53125 6.5625 L 16.859375 10.375 L 14.65625 12.890625 L 6.6875 5.875 C 4.925781 4.332031 3.953125 2.425781 3.765625 0.15625 C 3.585938 -2.113281 4.289062 -4.148438 5.875 -5.953125 C 7.46875 -7.765625 9.398438 -8.722656 11.671875 -8.828125 C 13.953125 -8.941406 15.972656 -8.226562 17.734375 -6.6875 L 25.703125 0.328125 L 23.5 2.84375 Z M 16.265625 -3.4375 L 15.8125 -3.828125 C 14.757812 -4.753906 13.585938 -5.15625 12.296875 -5.03125 C 11.003906 -4.90625 9.894531 -4.3125 8.96875 -3.25 C 8.03125 -2.1875 7.582031 -1.007812 7.625 0.28125 C 7.664062 1.570312 8.210938 2.679688 9.265625 3.609375 L 9.71875 4 Z M 16.265625 -3.4375 "/></g></g></g><g fill="#a3021c" fill-opacity="1"><g transform="translate(111.403208, 289.593029)"><g><path d="M 21.203125 -5.34375 L 14.890625 3.421875 C 13.691406 5.085938 12.332031 6.019531 10.8125 6.21875 C 9.300781 6.414062 7.679688 5.890625 5.953125 4.640625 C 4.222656 3.390625 3.210938 2.015625 2.921875 0.515625 C 2.640625 -0.972656 3.097656 -2.550781 4.296875 -4.21875 L 10.609375 -12.984375 L 13.703125 -10.75 L 8.046875 -2.90625 C 7.253906 -1.800781 6.875 -0.910156 6.90625 -0.234375 C 6.945312 0.441406 7.359375 1.054688 8.140625 1.609375 C 8.921875 2.171875 9.632812 2.363281 10.28125 2.1875 C 10.9375 2.007812 11.660156 1.367188 12.453125 0.265625 L 18.109375 -7.578125 Z M 21.203125 -5.34375 "/></g></g></g><g fill="#a3021c" fill-opacity="1"><g transform="translate(124.015484, 298.642483)"><g><path d="M 9.703125 -13.703125 L 14.828125 -10.609375 C 16.191406 -9.773438 17.082031 -8.726562 17.5 -7.46875 C 17.925781 -6.207031 17.726562 -4.894531 16.90625 -3.53125 C 16.269531 -2.476562 15.472656 -1.753906 14.515625 -1.359375 C 13.566406 -0.960938 12.554688 -0.890625 11.484375 -1.140625 L 12.828125 7.75 L 8.6875 5.234375 L 7.734375 -3.0625 L 4.3125 2.59375 L 1.046875 0.625 Z M 9.125 -5.375 L 9.5 -5.140625 C 9.800781 -4.953125 10.054688 -4.800781 10.265625 -4.6875 C 10.484375 -4.570312 10.742188 -4.46875 11.046875 -4.375 C 11.359375 -4.289062 11.632812 -4.265625 11.875 -4.296875 C 12.113281 -4.328125 12.363281 -4.425781 12.625 -4.59375 C 12.882812 -4.769531 13.117188 -5.03125 13.328125 -5.375 C 13.546875 -5.71875 13.671875 -6.046875 13.703125 -6.359375 C 13.734375 -6.679688 13.707031 -6.953125 13.625 -7.171875 C 13.539062 -7.390625 13.382812 -7.613281 13.15625 -7.84375 C 12.9375 -8.082031 12.722656 -8.269531 12.515625 -8.40625 C 12.316406 -8.539062 12.066406 -8.703125 11.765625 -8.890625 L 11.390625 -9.125 Z M 9.125 -5.375 "/></g></g></g><g fill="#a3021c" fill-opacity="1"><g transform="translate(136.760286, 306.185877)"><g/></g></g><g fill="#a3021c" fill-opacity="1"><g transform="translate(141.857833, 309.034628)"><g><path d="M 8.125 -14.671875 L 12.515625 -12.640625 C 14.628906 -11.671875 16.101562 -10.117188 16.9375 -7.984375 C 17.769531 -5.859375 17.6875 -3.707031 16.6875 -1.53125 C 15.675781 0.65625 14.09375 2.125 11.9375 2.875 C 9.78125 3.632812 7.632812 3.523438 5.5 2.546875 L 1.109375 0.515625 Z M 5.984375 -0.984375 L 6.53125 -0.734375 C 7.789062 -0.148438 9.019531 -0.0976562 10.21875 -0.578125 C 11.414062 -1.054688 12.320312 -1.941406 12.9375 -3.234375 C 13.53125 -4.515625 13.617188 -5.773438 13.203125 -7.015625 C 12.796875 -8.253906 11.957031 -9.164062 10.6875 -9.75 L 10.140625 -10 Z M 5.984375 -0.984375 "/></g></g></g><g fill="#a3021c" fill-opacity="1"><g transform="translate(155.831264, 315.403121)"><g><path d="M 16 -11.875 L 14.8125 -8.734375 L 9.40625 -10.765625 L 8.234375 -7.65625 L 13.40625 -5.71875 L 12.234375 -2.59375 L 7.0625 -4.53125 L 5.875 -1.359375 L 11.28125 0.671875 L 10.109375 3.796875 L 1.140625 0.421875 L 7.03125 -15.25 Z M 16 -11.875 "/></g></g></g><g fill="#a3021c" fill-opacity="1"><g transform="translate(167.104398, 319.551969)"><g/></g></g><g fill="#a3021c" fill-opacity="1"><g transform="translate(172.609768, 321.429044)"><g><path d="M 5.46875 -15.859375 L 10.484375 -14.53125 C 12.003906 -14.125 13.128906 -13.472656 13.859375 -12.578125 C 14.585938 -11.691406 14.757812 -10.523438 14.375 -9.078125 C 13.945312 -7.460938 12.96875 -6.488281 11.4375 -6.15625 C 13.632812 -5.125 14.425781 -3.457031 13.8125 -1.15625 C 13.445312 0.207031 12.679688 1.175781 11.515625 1.75 C 10.359375 2.320312 8.957031 2.382812 7.3125 1.9375 L 1.171875 0.3125 Z M 7.484375 -8.546875 L 7.78125 -8.46875 C 8.601562 -8.25 9.253906 -8.226562 9.734375 -8.40625 C 10.210938 -8.582031 10.539062 -9 10.71875 -9.65625 C 11.007812 -10.75 10.335938 -11.515625 8.703125 -11.953125 L 8.40625 -12.03125 Z M 5.609375 -1.546875 L 6.765625 -1.25 C 8.578125 -0.757812 9.644531 -1.117188 9.96875 -2.328125 C 10.15625 -3.035156 10.0625 -3.609375 9.6875 -4.046875 C 9.320312 -4.484375 8.6875 -4.820312 7.78125 -5.0625 L 6.625 -5.359375 Z M 5.609375 -1.546875 "/></g></g></g><g fill="#a3021c" fill-opacity="1"><g transform="translate(186.093118, 325.088363)"><g><path d="M 1.921875 -8.171875 C 2.335938 -10.546875 3.503906 -12.414062 5.421875 -13.78125 C 7.335938 -15.144531 9.4375 -15.625 11.71875 -15.21875 C 14.019531 -14.8125 15.832031 -13.644531 17.15625 -11.71875 C 18.476562 -9.800781 18.925781 -7.644531 18.5 -5.25 C 18.070312 -2.832031 16.925781 -0.941406 15.0625 0.421875 C 13.195312 1.785156 11.082031 2.257812 8.71875 1.84375 C 6.3125 1.414062 4.46875 0.25 3.1875 -1.65625 C 1.914062 -3.5625 1.492188 -5.734375 1.921875 -8.171875 Z M 5.96875 -7.453125 C 5.8125 -6.585938 5.800781 -5.773438 5.9375 -5.015625 C 6.082031 -4.253906 6.445312 -3.570312 7.03125 -2.96875 C 7.613281 -2.363281 8.390625 -1.972656 9.359375 -1.796875 C 10.753906 -1.554688 11.890625 -1.847656 12.765625 -2.671875 C 13.648438 -3.503906 14.210938 -4.597656 14.453125 -5.953125 C 14.691406 -7.296875 14.53125 -8.515625 13.96875 -9.609375 C 13.414062 -10.703125 12.453125 -11.367188 11.078125 -11.609375 C 9.710938 -11.847656 8.578125 -11.550781 7.671875 -10.71875 C 6.773438 -9.882812 6.207031 -8.796875 5.96875 -7.453125 Z M 5.96875 -7.453125 "/></g></g></g><g fill="#a3021c" fill-opacity="1"><g transform="translate(204.098399, 328.175746)"><g><path d="M 15.4375 -15.484375 L 14.53125 -4.734375 C 14.351562 -2.679688 13.664062 -1.175781 12.46875 -0.21875 C 11.28125 0.726562 9.617188 1.109375 7.484375 0.921875 C 5.359375 0.742188 3.785156 0.0859375 2.765625 -1.046875 C 1.753906 -2.191406 1.335938 -3.789062 1.515625 -5.84375 L 2.421875 -16.59375 L 6.21875 -16.265625 L 5.40625 -6.625 C 5.289062 -5.28125 5.425781 -4.328125 5.8125 -3.765625 C 6.195312 -3.203125 6.863281 -2.878906 7.8125 -2.796875 C 8.769531 -2.722656 9.484375 -2.929688 9.953125 -3.421875 C 10.421875 -3.910156 10.710938 -4.828125 10.828125 -6.171875 L 11.640625 -15.8125 Z M 15.4375 -15.484375 "/></g></g></g><g fill="#a3021c" fill-opacity="1"><g transform="translate(219.568452, 329.455654)"><g><path d="M 1.28125 -16.734375 L 7.265625 -16.703125 C 8.867188 -16.703125 10.175781 -16.269531 11.1875 -15.40625 C 12.195312 -14.539062 12.703125 -13.3125 12.703125 -11.71875 C 12.691406 -10.488281 12.378906 -9.457031 11.765625 -8.625 C 11.148438 -7.800781 10.316406 -7.222656 9.265625 -6.890625 L 14.984375 0.046875 L 10.140625 0.03125 L 5.046875 -6.59375 L 5.03125 0.015625 L 1.21875 0 Z M 5.0625 -9.296875 L 5.5 -9.296875 C 5.851562 -9.296875 6.148438 -9.300781 6.390625 -9.3125 C 6.640625 -9.320312 6.921875 -9.363281 7.234375 -9.4375 C 7.546875 -9.519531 7.796875 -9.632812 7.984375 -9.78125 C 8.171875 -9.9375 8.332031 -10.15625 8.46875 -10.4375 C 8.601562 -10.71875 8.671875 -11.0625 8.671875 -11.46875 C 8.679688 -11.875 8.617188 -12.21875 8.484375 -12.5 C 8.347656 -12.78125 8.1875 -12.992188 8 -13.140625 C 7.8125 -13.296875 7.5625 -13.414062 7.25 -13.5 C 6.9375 -13.59375 6.65625 -13.644531 6.40625 -13.65625 C 6.164062 -13.664062 5.867188 -13.671875 5.515625 -13.671875 L 5.078125 -13.671875 Z M 5.0625 -9.296875 "/></g></g></g><g fill="#a3021c" fill-opacity="1"><g transform="translate(234.552045, 329.53677)"><g><path d="M 15.515625 -10.6875 L 15.8125 -7.0625 C 15.550781 -5.050781 14.734375 -3.472656 13.359375 -2.328125 C 11.992188 -1.191406 10.414062 -0.550781 8.625 -0.40625 C 6.375 -0.226562 4.382812 -0.910156 2.65625 -2.453125 C 0.9375 -4.003906 -0.0195312 -5.972656 -0.21875 -8.359375 C -0.414062 -10.773438 0.1875 -12.882812 1.59375 -14.6875 C 3 -16.488281 4.863281 -17.484375 7.1875 -17.671875 C 9.894531 -17.898438 12.117188 -17.128906 13.859375 -15.359375 L 11.59375 -12.4375 C 10.59375 -13.789062 9.296875 -14.398438 7.703125 -14.265625 C 6.523438 -14.171875 5.5625 -13.582031 4.8125 -12.5 C 4.070312 -11.414062 3.757812 -10.148438 3.875 -8.703125 C 3.988281 -7.285156 4.5 -6.109375 5.40625 -5.171875 C 6.320312 -4.234375 7.367188 -3.8125 8.546875 -3.90625 C 9.515625 -3.988281 10.332031 -4.351562 11 -5 C 11.675781 -5.65625 11.972656 -6.46875 11.890625 -7.4375 L 8.0625 -7.109375 L 7.828125 -10.046875 Z M 15.515625 -10.6875 "/></g></g></g><g fill="#229999" fill-opacity="1"><g transform="translate(84.32382, 261.946196)"><g><path d="M 9.46875 4.984375 C 9.863281 5.410156 10.3125 5.765625 10.8125 6.046875 C 11.3125 6.328125 11.707031 6.503906 12 6.578125 L 12.46875 6.671875 L 11.203125 10.078125 C 11.148438 10.078125 11.0625 10.0625 10.9375 10.03125 C 10.820312 10 10.582031 9.921875 10.21875 9.796875 C 9.851562 9.671875 9.484375 9.507812 9.109375 9.3125 C 8.742188 9.125 8.300781 8.835938 7.78125 8.453125 C 7.269531 8.066406 6.785156 7.628906 6.328125 7.140625 C 5.253906 6.003906 4.515625 4.664062 4.109375 3.125 C 3.703125 1.59375 3.695312 0.0625 4.09375 -1.46875 C 4.488281 -3.007812 5.253906 -4.3125 6.390625 -5.375 C 7.242188 -6.175781 8.234375 -6.765625 9.359375 -7.140625 C 10.492188 -7.523438 11.625 -7.679688 12.75 -7.609375 C 13.882812 -7.535156 15 -7.253906 16.09375 -6.765625 C 17.1875 -6.273438 18.132812 -5.601562 18.9375 -4.75 C 19.675781 -3.96875 20.265625 -3.160156 20.703125 -2.328125 C 21.140625 -1.492188 21.394531 -0.847656 21.46875 -0.390625 L 21.578125 0.28125 L 18.109375 1.34375 C 18.109375 1.207031 18.082031 1.03125 18.03125 0.8125 C 17.988281 0.601562 17.835938 0.226562 17.578125 -0.3125 C 17.328125 -0.851562 17.003906 -1.335938 16.609375 -1.765625 C 15.972656 -2.441406 15.296875 -2.9375 14.578125 -3.25 C 13.867188 -3.570312 13.1875 -3.722656 12.53125 -3.703125 C 11.882812 -3.691406 11.28125 -3.570312 10.71875 -3.34375 C 10.164062 -3.113281 9.679688 -2.800781 9.265625 -2.40625 C 8.335938 -1.53125 7.832031 -0.398438 7.75 0.984375 C 7.675781 2.367188 8.25 3.703125 9.46875 4.984375 Z M 9.46875 4.984375 "/></g></g></g><g fill="#229999" fill-opacity="1"><g transform="translate(95.109212, 273.515636)"><g><path d="M 19.171875 -1.0625 L 16.984375 1.4375 L 21.140625 5.0625 L 18.9375 7.59375 L 14.78125 3.96875 L 12.578125 6.515625 L 16.921875 10.296875 L 14.71875 12.8125 L 6.71875 5.84375 C 4.945312 4.3125 3.960938 2.410156 3.765625 0.140625 C 3.578125 -2.128906 4.269531 -4.171875 5.84375 -5.984375 C 7.425781 -7.804688 9.351562 -8.773438 11.625 -8.890625 C 13.90625 -9.015625 15.929688 -8.3125 17.703125 -6.78125 L 25.703125 0.1875 L 23.515625 2.71875 Z M 16.25 -3.515625 L 15.796875 -3.90625 C 14.734375 -4.832031 13.554688 -5.226562 12.265625 -5.09375 C 10.984375 -4.96875 9.878906 -4.375 8.953125 -3.3125 C 8.023438 -2.25 7.582031 -1.066406 7.625 0.234375 C 7.664062 1.535156 8.21875 2.648438 9.28125 3.578125 L 9.734375 3.96875 Z M 16.25 -3.515625 "/></g></g></g><g fill="#229999" fill-opacity="1"><g transform="translate(111.061066, 287.195041)"><g><path d="M 21.171875 -5.453125 L 14.90625 3.34375 C 13.71875 5.007812 12.363281 5.945312 10.84375 6.15625 C 9.332031 6.363281 7.707031 5.847656 5.96875 4.609375 C 4.226562 3.367188 3.210938 2 2.921875 0.5 C 2.628906 -0.988281 3.078125 -2.566406 4.265625 -4.234375 L 10.53125 -13.03125 L 13.640625 -10.828125 L 8.03125 -2.953125 C 7.25 -1.847656 6.875 -0.957031 6.90625 -0.28125 C 6.945312 0.394531 7.359375 1.007812 8.140625 1.5625 C 8.921875 2.125 9.640625 2.3125 10.296875 2.125 C 10.953125 1.945312 11.671875 1.304688 12.453125 0.203125 L 18.0625 -7.671875 Z M 21.171875 -5.453125 "/></g></g></g><g fill="#229999" fill-opacity="1"><g transform="translate(123.727425, 296.183107)"><g><path d="M 9.625 -13.75 L 14.765625 -10.6875 C 16.140625 -9.863281 17.039062 -8.820312 17.46875 -7.5625 C 17.90625 -6.300781 17.71875 -4.988281 16.90625 -3.625 C 16.269531 -2.5625 15.472656 -1.828125 14.515625 -1.421875 C 13.554688 -1.023438 12.539062 -0.953125 11.46875 -1.203125 L 12.859375 7.671875 L 8.703125 5.203125 L 7.703125 -3.09375 L 4.3125 2.578125 L 1.046875 0.625 Z M 9.078125 -5.421875 L 9.46875 -5.203125 C 9.769531 -5.015625 10.023438 -4.859375 10.234375 -4.734375 C 10.453125 -4.617188 10.71875 -4.515625 11.03125 -4.421875 C 11.351562 -4.335938 11.632812 -4.3125 11.875 -4.34375 C 12.113281 -4.382812 12.359375 -4.492188 12.609375 -4.671875 C 12.867188 -4.847656 13.101562 -5.109375 13.3125 -5.453125 C 13.519531 -5.796875 13.640625 -6.125 13.671875 -6.4375 C 13.703125 -6.75 13.675781 -7.015625 13.59375 -7.234375 C 13.507812 -7.460938 13.351562 -7.691406 13.125 -7.921875 C 12.894531 -8.148438 12.675781 -8.332031 12.46875 -8.46875 C 12.269531 -8.601562 12.019531 -8.765625 11.71875 -8.953125 L 11.328125 -9.171875 Z M 9.078125 -5.421875 "/></g></g></g><g fill="#229999" fill-opacity="1"><g transform="translate(136.516087, 303.66296)"><g/></g></g><g fill="#229999" fill-opacity="1"><g transform="translate(141.633823, 306.487781)"><g><path d="M 8.046875 -14.734375 L 12.453125 -12.71875 C 14.566406 -11.757812 16.046875 -10.210938 16.890625 -8.078125 C 17.734375 -5.953125 17.660156 -3.800781 16.671875 -1.625 C 15.671875 0.5625 14.09375 2.039062 11.9375 2.8125 C 9.789062 3.582031 7.648438 3.484375 5.515625 2.515625 L 1.109375 0.5 Z M 5.984375 -1.015625 L 6.53125 -0.765625 C 7.789062 -0.191406 9.015625 -0.144531 10.203125 -0.625 C 11.398438 -1.113281 12.304688 -2.003906 12.921875 -3.296875 C 13.503906 -4.585938 13.585938 -5.847656 13.171875 -7.078125 C 12.765625 -8.304688 11.921875 -9.210938 10.640625 -9.796875 L 10.09375 -10.046875 Z M 5.984375 -1.015625 "/></g></g></g><g fill="#229999" fill-opacity="1"><g transform="translate(155.647149, 312.786379)"><g><path d="M 15.921875 -11.953125 L 14.765625 -8.8125 L 9.359375 -10.8125 L 8.203125 -7.6875 L 13.375 -5.78125 L 12.21875 -2.640625 L 7.046875 -4.546875 L 5.875 -1.390625 L 11.28125 0.609375 L 10.125 3.75 L 1.140625 0.421875 L 6.9375 -15.28125 Z M 15.921875 -11.953125 "/></g></g></g><g fill="#229999" fill-opacity="1"><g transform="translate(166.946243, 316.878298)"><g/></g></g><g fill="#229999" fill-opacity="1"><g transform="translate(172.466666, 318.728214)"><g><path d="M 5.390625 -15.875 L 10.421875 -14.578125 C 11.941406 -14.179688 13.066406 -13.539062 13.796875 -12.65625 C 14.523438 -11.78125 14.703125 -10.613281 14.328125 -9.15625 C 13.898438 -7.53125 12.921875 -6.550781 11.390625 -6.21875 C 13.597656 -5.207031 14.398438 -3.546875 13.796875 -1.234375 C 13.441406 0.117188 12.6875 1.085938 11.53125 1.671875 C 10.375 2.253906 8.96875 2.332031 7.3125 1.90625 L 1.171875 0.3125 Z M 7.4375 -8.59375 L 7.71875 -8.515625 C 8.539062 -8.296875 9.195312 -8.273438 9.6875 -8.453125 C 10.175781 -8.640625 10.503906 -9.0625 10.671875 -9.71875 C 10.953125 -10.820312 10.269531 -11.585938 8.625 -12.015625 L 8.34375 -12.09375 Z M 5.609375 -1.578125 L 6.75 -1.28125 C 8.5625 -0.800781 9.628906 -1.164062 9.953125 -2.375 C 10.128906 -3.09375 10.03125 -3.664062 9.65625 -4.09375 C 9.289062 -4.53125 8.65625 -4.867188 7.75 -5.109375 L 6.609375 -5.40625 Z M 5.609375 -1.578125 "/></g></g></g><g fill="#229999" fill-opacity="1"><g transform="translate(185.977601, 322.319654)"><g><path d="M 1.875 -8.171875 C 2.28125 -10.554688 3.4375 -12.4375 5.34375 -13.8125 C 7.25 -15.1875 9.347656 -15.675781 11.640625 -15.28125 C 13.941406 -14.882812 15.757812 -13.726562 17.09375 -11.8125 C 18.425781 -9.90625 18.882812 -7.75 18.46875 -5.34375 C 18.0625 -2.9375 16.925781 -1.046875 15.0625 0.328125 C 13.207031 1.710938 11.097656 2.203125 8.734375 1.796875 C 6.316406 1.378906 4.460938 0.222656 3.171875 -1.671875 C 1.890625 -3.578125 1.457031 -5.742188 1.875 -8.171875 Z M 5.921875 -7.484375 C 5.773438 -6.628906 5.773438 -5.820312 5.921875 -5.0625 C 6.066406 -4.300781 6.429688 -3.613281 7.015625 -3 C 7.597656 -2.394531 8.378906 -2.007812 9.359375 -1.84375 C 10.753906 -1.601562 11.890625 -1.898438 12.765625 -2.734375 C 13.640625 -3.578125 14.191406 -4.675781 14.421875 -6.03125 C 14.648438 -7.375 14.484375 -8.59375 13.921875 -9.6875 C 13.367188 -10.78125 12.40625 -11.441406 11.03125 -11.671875 C 9.664062 -11.898438 8.53125 -11.59375 7.625 -10.75 C 6.71875 -9.914062 6.148438 -8.828125 5.921875 -7.484375 Z M 5.921875 -7.484375 "/></g></g></g><g fill="#229999" fill-opacity="1"><g transform="translate(204.007953, 325.314569)"><g><path d="M 15.359375 -15.578125 L 14.5 -4.8125 C 14.332031 -2.757812 13.65625 -1.253906 12.46875 -0.296875 C 11.28125 0.660156 9.617188 1.054688 7.484375 0.890625 C 5.359375 0.722656 3.785156 0.0703125 2.765625 -1.0625 C 1.742188 -2.195312 1.316406 -3.789062 1.484375 -5.84375 L 2.34375 -16.609375 L 6.140625 -16.3125 L 5.375 -6.671875 C 5.257812 -5.316406 5.394531 -4.359375 5.78125 -3.796875 C 6.164062 -3.234375 6.832031 -2.910156 7.78125 -2.828125 C 8.738281 -2.753906 9.453125 -2.960938 9.921875 -3.453125 C 10.390625 -3.953125 10.679688 -4.878906 10.796875 -6.234375 L 11.5625 -15.875 Z M 15.359375 -15.578125 "/></g></g></g><g fill="#229999" fill-opacity="1"><g transform="translate(219.492818, 326.514751)"><g><path d="M 1.1875 -16.734375 L 7.171875 -16.75 C 8.773438 -16.75 10.082031 -16.316406 11.09375 -15.453125 C 12.113281 -14.597656 12.628906 -13.375 12.640625 -11.78125 C 12.640625 -10.550781 12.332031 -9.519531 11.71875 -8.6875 C 11.101562 -7.851562 10.269531 -7.269531 9.21875 -6.9375 L 14.984375 -0.03125 L 10.140625 -0.015625 L 5.015625 -6.625 L 5.03125 -0.015625 L 1.21875 0 Z M 5.015625 -9.328125 L 5.453125 -9.328125 C 5.804688 -9.328125 6.101562 -9.332031 6.34375 -9.34375 C 6.59375 -9.351562 6.875 -9.398438 7.1875 -9.484375 C 7.5 -9.566406 7.75 -9.679688 7.9375 -9.828125 C 8.125 -9.984375 8.285156 -10.203125 8.421875 -10.484375 C 8.554688 -10.765625 8.625 -11.109375 8.625 -11.515625 C 8.625 -11.921875 8.554688 -12.265625 8.421875 -12.546875 C 8.285156 -12.828125 8.125 -13.039062 7.9375 -13.1875 C 7.75 -13.34375 7.492188 -13.460938 7.171875 -13.546875 C 6.859375 -13.628906 6.578125 -13.675781 6.328125 -13.6875 C 6.085938 -13.695312 5.789062 -13.703125 5.4375 -13.703125 L 5 -13.703125 Z M 5.015625 -9.328125 "/></g></g></g><g fill="#229999" fill-opacity="1"><g transform="translate(234.485649, 326.517636)"><g><path d="M 15.46875 -10.765625 L 15.78125 -7.140625 C 15.53125 -5.128906 14.71875 -3.550781 13.34375 -2.40625 C 11.976562 -1.257812 10.40625 -0.609375 8.625 -0.453125 C 6.375 -0.253906 4.378906 -0.925781 2.640625 -2.46875 C 0.910156 -4.019531 -0.0546875 -5.988281 -0.265625 -8.375 C -0.472656 -10.789062 0.117188 -12.898438 1.515625 -14.703125 C 2.921875 -16.515625 4.785156 -17.519531 7.109375 -17.71875 C 9.816406 -17.957031 12.035156 -17.195312 13.765625 -15.4375 L 11.53125 -12.484375 C 10.507812 -13.847656 9.207031 -14.457031 7.625 -14.3125 C 6.445312 -14.21875 5.488281 -13.625 4.75 -12.53125 C 4.007812 -11.4375 3.703125 -10.171875 3.828125 -8.734375 C 3.953125 -7.304688 4.472656 -6.128906 5.390625 -5.203125 C 6.304688 -4.273438 7.351562 -3.859375 8.53125 -3.953125 C 9.488281 -4.046875 10.300781 -4.414062 10.96875 -5.0625 C 11.644531 -5.71875 11.941406 -6.523438 11.859375 -7.484375 L 8.03125 -7.140625 L 7.78125 -10.09375 Z M 15.46875 -10.765625 "/></g></g></g><path stroke-linecap="butt" transform="matrix(0.157629, 0.168687, -0.168687, 0.157629, 97.454427, 249.537992)" fill="none" stroke-linejoin="miter" d="M 43.834836 61.068994 C 46.360606 61.067194 48.801667 60.6852 51.170381 59.934564 C 53.550648 59.171567 55.285234 58.43045 56.410417 57.721956 L 58.060295 56.600646 L 65.095757 70.631371 C 64.862289 70.806874 64.547149 71.044998 64.12642 71.346554 C 63.717244 71.635748 62.766149 72.182723 61.284686 72.975115 C 59.790861 73.755955 58.198138 74.444381 56.494155 75.028841 C 54.790172 75.6133 52.557648 76.143847 49.795773 76.596566 C 47.058623 77.072389 44.217712 77.312314 41.284593 77.303977 C 34.545086 77.304926 28.168562 75.65358 22.131105 72.350749 C 16.093649 69.047918 11.235289 64.508052 7.555215 58.707238 C 3.851226 52.907234 2.022671 46.636669 2.021722 39.897162 C 2.016501 34.797794 3.095517 29.901098 5.259581 25.230988 C 7.422834 20.536964 10.315459 16.524497 13.925904 13.20595 C 17.523177 9.851937 21.730252 7.183533 26.523214 5.201549 C 31.33928 3.194841 36.249574 2.202455 41.2772 2.199665 C 45.98158 2.195859 50.298061 2.755854 54.238195 3.867287 C 58.202243 4.977909 60.993691 6.104328 62.623281 7.210267 L 65.08621 8.886503 L 58.068721 22.938577 C 57.661577 22.581281 57.036776 22.159537 56.218231 21.672534 C 55.398876 21.161616 53.760769 20.510855 51.303101 19.696335 C 48.833071 18.870263 46.352904 18.451541 43.839497 18.464893 C 39.840986 18.456749 36.271706 19.104421 33.106933 20.384806 C 29.954521 21.676743 27.450015 23.3657 25.606586 25.487142 C 23.762347 27.584671 22.355044 29.858925 21.383867 32.285989 C 20.425053 34.724605 19.94614 37.194841 19.94794 39.720611 C 19.954576 45.214966 22.001613 50.161344 26.123705 54.522658 C 30.25816 58.895523 36.161871 61.077635 43.834836 61.068994 Z M 43.834836 61.068994 " stroke="#a3021c" stroke-width="3.294743" stroke-opacity="1" stroke-miterlimit="4"/><path stroke-linecap="butt" transform="matrix(0.173342, 0.152495, -0.152495, 0.173342, 106.948987, 259.968967)" fill="none" stroke-linejoin="miter" d="M 59.555706 18.027164 L 59.557622 32.425302 L 83.462727 32.420232 L 83.458532 46.913885 L 59.553427 46.918955 L 59.555824 61.496949 L 84.503484 61.498639 L 84.510465 76.004996 L 38.559277 76.002204 C 28.441104 76.002218 19.813098 72.572996 12.686434 65.727241 C 5.572474 58.870311 2.012714 50.238722 2.019857 39.821298 C 2.015825 29.391171 5.567497 20.723046 12.697225 13.842329 C 19.81425 6.972789 28.4382 3.532423 38.556373 3.532409 L 84.507561 3.535202 L 84.503366 18.028855 Z M 43.042951 18.289404 L 40.489911 18.28191 C 34.40021 18.27592 29.436585 20.344032 25.602094 24.438488 C 21.780305 28.521767 19.860065 33.613846 19.865251 39.716251 C 19.856206 45.85371 21.781525 50.988024 25.607682 55.081082 C 29.445015 59.186843 34.408532 61.242719 40.498233 61.248708 L 43.040098 61.243499 Z M 43.042951 18.289404 " stroke="#a3021c" stroke-width="3.294743" stroke-opacity="1" stroke-miterlimit="4"/><path stroke-linecap="butt" transform="matrix(0.187332, 0.13494, -0.13494, 0.187332, 121.495381, 272.667755)" fill="none" stroke-linejoin="miter" d="M 60.978245 3.536167 L 60.981621 50.263029 C 60.979671 59.147378 58.57548 65.883651 53.769046 70.471847 C 48.966452 75.036426 41.930199 77.310641 32.693794 77.312062 C 23.433771 77.309644 16.410826 75.028541 11.601342 70.464914 C 6.805586 65.891398 4.396874 59.160546 4.388935 50.262468 L 4.399287 3.525716 L 20.919037 3.532628 L 20.907103 45.432858 C 20.912746 51.288201 21.839615 55.353955 23.673983 57.640009 C 25.531968 59.929903 28.522221 61.070566 32.691977 61.069676 C 36.848004 61.078676 39.85864 59.93179 41.696426 57.648797 C 43.547942 55.355915 44.452205 51.284828 44.456451 45.443214 L 44.458496 3.529255 Z M 60.978245 3.536167 " stroke="#a3021c" stroke-width="3.294743" stroke-opacity="1" stroke-miterlimit="4"/><path stroke-linecap="butt" transform="matrix(0.197632, 0.119347, -0.119347, 0.197632, 132.929821, 280.938733)" fill="none" stroke-linejoin="miter" d="M 5.273376 3.529438 L 31.188313 3.533885 C 38.16395 3.531404 43.844907 5.378084 48.234192 9.111639 C 52.629214 12.821965 54.82933 18.134475 54.825793 25.034685 C 54.826501 30.370877 53.475464 34.84332 50.810395 38.449006 C 48.145325 42.054692 44.537057 44.589444 39.976844 46.038781 L 64.926788 75.997144 L 43.915704 75.996123 L 21.790011 47.376087 L 21.796169 75.99246 L 5.279829 76.004738 Z M 21.782773 35.679427 L 23.718187 35.676809 C 25.235746 35.66958 26.524017 35.642693 27.582998 35.596148 C 28.633233 35.53512 29.839777 35.340168 31.185137 34.982326 C 32.530497 34.624485 33.614311 34.128108 34.413348 33.48746 C 35.250099 32.843802 35.955373 31.884236 36.540927 30.660958 C 37.140963 29.428933 37.432713 27.948243 37.421912 26.195658 C 37.425594 24.434326 37.139888 22.946578 36.556048 21.71793 C 35.963462 20.474798 35.244096 19.545409 34.426918 18.912271 C 33.600994 18.264649 32.52885 17.765716 31.187258 17.409733 C 29.845665 17.05375 28.643733 16.830846 27.584471 16.778734 C 26.525208 16.726623 25.239666 16.692567 23.722107 16.699796 L 21.786692 16.702413 Z M 21.782773 35.679427 " stroke="#a3021c" stroke-width="3.294743" stroke-opacity="1" stroke-miterlimit="4"/><path stroke-linecap="butt" transform="matrix(0.209628, 0.096739, -0.096739, 0.209628, 149.064237, 290.424708)" fill="none" stroke-linejoin="miter" d="M 5.274823 3.533847 L 26.274979 3.532493 C 36.336052 3.529432 44.949366 6.970983 52.092468 13.848875 C 59.250933 20.719676 62.81928 29.340417 62.819963 39.71937 C 62.819462 50.136137 59.263284 58.783715 52.143153 65.684555 C 45.015934 72.570032 36.407017 76.002484 26.270314 76.003178 L 5.270159 76.004533 Z M 21.7888 61.244596 L 24.340111 61.241173 C 30.358556 61.240281 35.289927 59.206796 39.11886 55.147809 C 42.963156 51.081732 44.925039 45.965025 44.982058 39.789415 C 44.977627 33.642163 43.063504 28.52527 39.224326 24.445825 C 35.393422 20.343928 30.438614 18.288697 24.344539 18.287223 L 21.793228 18.290645 Z M 21.7888 61.244596 " stroke="#a3021c" stroke-width="3.294743" stroke-opacity="1" stroke-miterlimit="4"/><path stroke-linecap="butt" transform="matrix(0.216132, 0.0811725, -0.0811725, 0.216132, 161.861595, 296.30166)" fill="none" stroke-linejoin="miter" d="M 46.735884 3.535077 L 46.739149 18.028731 L 21.79358 18.017402 L 21.798779 32.419962 L 45.68885 32.412014 L 45.676275 46.911616 L 21.786204 46.919564 L 21.787533 61.504311 L 46.727153 61.499801 L 46.730417 75.993454 L 5.2733 76.002238 L 5.272819 3.528022 Z M 46.735884 3.535077 " stroke="#a3021c" stroke-width="3.294743" stroke-opacity="1" stroke-miterlimit="4"/><path stroke-linecap="butt" transform="matrix(0.223119, 0.0593289, -0.0593289, 0.223119, 176.989915, 301.79963)" fill="none" stroke-linejoin="miter" d="M 5.27133 3.523072 L 27.753391 3.532491 C 34.545533 3.529684 39.955763 4.979797 44.016785 7.874134 C 48.061456 10.772819 50.080941 15.470551 50.075239 21.967328 C 50.080982 29.23139 47.068132 34.426895 41.027994 37.521139 C 51.331533 39.333296 56.491058 45.437024 56.49787 55.799618 C 56.490274 61.894228 54.392057 66.776496 50.174863 70.471469 C 45.953322 74.150091 40.145115 76.009665 32.769902 75.992441 L 5.268922 76.004525 Z M 21.79885 31.90223 L 23.095805 31.90751 C 26.789413 31.905773 29.54182 31.261427 31.353026 29.974473 C 33.164233 28.68752 34.072515 26.572705 34.082221 23.646381 C 34.086804 18.725571 30.422188 16.268557 23.104725 16.270992 L 21.791419 16.27006 Z M 21.786398 63.261372 L 26.965521 63.24979 C 35.054618 63.252262 39.102164 60.565309 39.103812 55.172578 C 39.105009 51.95089 38.089785 49.647251 36.053793 48.245308 C 34.034151 46.839018 31.006971 46.120817 26.964597 46.127756 L 21.797477 46.118639 Z M 21.786398 63.261372 " stroke="#a3021c" stroke-width="3.294743" stroke-opacity="1" stroke-miterlimit="4"/><path stroke-linecap="butt" transform="matrix(0.227374, 0.0400432, -0.0400432, 0.227374, 189.016295, 305.13783)" fill="none" stroke-linejoin="miter" d="M 2.007425 39.705062 C 2.016951 29.223657 5.593551 20.364612 12.748019 13.091666 C 19.888759 5.838317 28.489604 2.1933 38.559357 2.206603 C 48.692828 2.191505 57.301927 5.812123 64.38372 13.051796 C 71.482176 20.288534 75.021245 29.165736 75.023457 39.713793 C 75.01781 50.314774 71.539198 59.242462 64.55136 66.486062 C 57.59098 73.690468 48.934276 77.310963 38.558719 77.317155 C 27.974401 77.308574 19.218269 73.731029 12.337377 66.559055 C 5.456485 59.387081 2.025254 50.439348 2.007425 39.705062 Z M 19.857379 39.705389 C 19.861927 43.535702 20.455654 47.004554 21.624831 50.131545 C 22.794007 53.258536 24.843493 55.921256 27.750756 58.089314 C 30.691346 60.251502 34.28409 61.336765 38.559381 61.32257 C 44.709637 61.321768 49.355161 59.215145 52.479288 55.005633 C 55.617145 50.776525 57.178285 45.691222 57.173503 39.713466 C 57.180459 33.802362 55.581689 28.723802 52.393854 24.474851 C 49.208955 20.242563 44.591366 18.118016 38.560685 18.114939 C 32.582929 18.119721 27.973666 20.237138 24.735831 24.483854 C 21.481334 28.733505 19.86727 33.810948 19.857379 39.705389 Z M 19.857379 39.705389 " stroke="#a3021c" stroke-width="3.294743" stroke-opacity="1" stroke-miterlimit="4"/><path stroke-linecap="butt" transform="matrix(0.23005, 0.0194696, -0.0194696, 0.23005, 205.467267, 308.02287)" fill="none" stroke-linejoin="miter" d="M 60.97518 3.53577 L 60.973615 50.264827 C 60.979468 59.161845 58.577005 65.885485 53.76908 70.469466 C 48.959729 75.036588 41.935811 77.312054 32.681896 77.314152 C 23.42798 77.31625 16.408008 75.023766 11.607974 70.471846 C 6.805085 65.886208 4.402142 59.161739 4.396289 50.264721 L 4.397854 3.535664 L 20.918886 3.529815 L 20.916723 45.436607 C 20.918635 51.277561 21.841422 55.35956 23.680804 57.632028 C 25.521613 59.921355 28.522969 61.076683 32.682017 61.064294 C 36.842492 61.068765 39.853537 59.930975 41.696864 57.635492 C 43.541618 55.356868 44.453896 51.289364 44.467417 45.430124 L 44.45272 3.524759 Z M 60.97518 3.53577 " stroke="#a3021c" stroke-width="3.294743" stroke-opacity="1" stroke-miterlimit="4"/><path stroke-linecap="butt" transform="matrix(0.230871, 0.000800083, -0.000800083, 0.230871, 219.526807, 309.241268)" fill="none" stroke-linejoin="miter" d="M 5.276527 3.521892 L 31.180479 3.533639 C 38.16825 3.526343 43.842757 5.384754 48.23784 9.108755 C 52.632864 12.815837 54.817017 18.137942 54.82402 25.041116 C 54.82557 30.370785 53.487498 34.842198 50.809744 38.438433 C 48.148967 42.051529 44.536952 44.585067 39.973699 46.039048 L 64.915511 76.001826 L 43.918302 76.006914 L 21.789742 47.371034 L 21.787434 75.99901 L 5.273924 76.005479 Z M 21.783064 35.679612 L 23.728795 35.672869 C 25.23468 35.68457 26.520438 35.646275 27.586184 35.591823 C 28.635011 35.537429 29.835584 35.330234 31.187964 34.987155 C 32.523365 34.627215 33.604506 34.1328 34.431329 33.48699 C 35.258151 32.84118 35.965482 31.891231 36.553381 30.654062 C 37.141338 29.433813 37.423808 27.943909 37.434688 26.201153 C 37.42859 24.441535 37.135801 22.953625 36.539342 21.720561 C 35.959802 20.487438 35.245903 19.542414 34.431544 18.902292 C 33.600266 18.262228 32.532584 17.75834 31.177801 17.407723 C 29.839879 17.040128 28.637898 16.841258 27.58866 16.777216 C 26.522562 16.730152 25.236571 16.700769 23.713766 16.689127 L 21.784954 16.695811 Z M 21.783064 35.679612 " stroke="#a3021c" stroke-width="3.294743" stroke-opacity="1" stroke-miterlimit="4"/><path stroke-linecap="butt" transform="matrix(0.230093, -0.0189595, 0.0189595, 0.230093, 233.017679, 309.381073)" fill="none" stroke-linejoin="miter" d="M 70.803304 35.415361 L 70.798216 51.135498 C 68.934622 59.741991 64.832192 66.262598 58.509177 70.681848 C 52.186162 75.101097 45.12904 77.303798 37.33642 77.306811 C 27.557011 77.315884 19.218615 73.640882 12.333927 66.333781 C 5.450628 59.009819 2.019632 50.170778 2.008604 39.797018 C 2.011469 29.254635 5.375435 20.364328 12.120142 13.093762 C 18.847986 5.821807 27.26111 2.202924 37.345431 2.201999 C 49.110241 2.203731 58.412948 6.331682 65.270414 14.587243 L 54.4805 26.447771 C 50.593898 20.25353 45.21374 17.144844 38.303521 17.15266 C 33.211468 17.140523 28.868995 19.363186 25.263409 23.768674 C 21.656434 28.191024 19.858654 33.526409 19.868682 39.791691 C 19.853321 45.953019 21.659539 51.228857 25.273253 55.58409 C 28.870104 59.937933 33.222292 62.130049 38.298872 62.123935 C 42.526776 62.115797 46.1957 60.856244 49.325283 58.312941 C 52.456256 55.752774 54.02541 52.367865 54.032746 48.158212 L 37.344507 48.158238 L 37.341125 35.425327 Z M 70.803304 35.415361 " stroke="#a3021c" stroke-width="3.294743" stroke-opacity="1" stroke-miterlimit="4"/></svg>